%TF.GenerationSoftware,KiCad,Pcbnew,8.0.8*%
%TF.CreationDate,2025-05-16T08:04:54+02:00*%
%TF.ProjectId,nebulizer,6e656275-6c69-47a6-9572-2e6b69636164,rev?*%
%TF.SameCoordinates,Original*%
%TF.FileFunction,Legend,Top*%
%TF.FilePolarity,Positive*%
%FSLAX46Y46*%
G04 Gerber Fmt 4.6, Leading zero omitted, Abs format (unit mm)*
G04 Created by KiCad (PCBNEW 8.0.8) date 2025-05-16 08:04:54*
%MOMM*%
%LPD*%
G01*
G04 APERTURE LIST*
%ADD10C,0.100000*%
%ADD11C,0.150000*%
%ADD12C,0.120000*%
%ADD13C,0.152400*%
G04 APERTURE END LIST*
D10*
X77010191Y-15613420D02*
X77200667Y-15613420D01*
X77200667Y-15613420D02*
X77295905Y-15565801D01*
X77295905Y-15565801D02*
X77343524Y-15518181D01*
X77343524Y-15518181D02*
X77438762Y-15375324D01*
X77438762Y-15375324D02*
X77486381Y-15184848D01*
X77486381Y-15184848D02*
X77486381Y-14803896D01*
X77486381Y-14803896D02*
X77438762Y-14708658D01*
X77438762Y-14708658D02*
X77391143Y-14661039D01*
X77391143Y-14661039D02*
X77295905Y-14613420D01*
X77295905Y-14613420D02*
X77105429Y-14613420D01*
X77105429Y-14613420D02*
X77010191Y-14661039D01*
X77010191Y-14661039D02*
X76962572Y-14708658D01*
X76962572Y-14708658D02*
X76914953Y-14803896D01*
X76914953Y-14803896D02*
X76914953Y-15041991D01*
X76914953Y-15041991D02*
X76962572Y-15137229D01*
X76962572Y-15137229D02*
X77010191Y-15184848D01*
X77010191Y-15184848D02*
X77105429Y-15232467D01*
X77105429Y-15232467D02*
X77295905Y-15232467D01*
X77295905Y-15232467D02*
X77391143Y-15184848D01*
X77391143Y-15184848D02*
X77438762Y-15137229D01*
X77438762Y-15137229D02*
X77486381Y-15041991D01*
X77962572Y-15613420D02*
X78153048Y-15613420D01*
X78153048Y-15613420D02*
X78248286Y-15565801D01*
X78248286Y-15565801D02*
X78295905Y-15518181D01*
X78295905Y-15518181D02*
X78391143Y-15375324D01*
X78391143Y-15375324D02*
X78438762Y-15184848D01*
X78438762Y-15184848D02*
X78438762Y-14803896D01*
X78438762Y-14803896D02*
X78391143Y-14708658D01*
X78391143Y-14708658D02*
X78343524Y-14661039D01*
X78343524Y-14661039D02*
X78248286Y-14613420D01*
X78248286Y-14613420D02*
X78057810Y-14613420D01*
X78057810Y-14613420D02*
X77962572Y-14661039D01*
X77962572Y-14661039D02*
X77914953Y-14708658D01*
X77914953Y-14708658D02*
X77867334Y-14803896D01*
X77867334Y-14803896D02*
X77867334Y-15041991D01*
X77867334Y-15041991D02*
X77914953Y-15137229D01*
X77914953Y-15137229D02*
X77962572Y-15184848D01*
X77962572Y-15184848D02*
X78057810Y-15232467D01*
X78057810Y-15232467D02*
X78248286Y-15232467D01*
X78248286Y-15232467D02*
X78343524Y-15184848D01*
X78343524Y-15184848D02*
X78391143Y-15137229D01*
X78391143Y-15137229D02*
X78438762Y-15041991D01*
X78914953Y-15565801D02*
X78914953Y-15613420D01*
X78914953Y-15613420D02*
X78867334Y-15708658D01*
X78867334Y-15708658D02*
X78819715Y-15756277D01*
X79534000Y-14613420D02*
X79629238Y-14613420D01*
X79629238Y-14613420D02*
X79724476Y-14661039D01*
X79724476Y-14661039D02*
X79772095Y-14708658D01*
X79772095Y-14708658D02*
X79819714Y-14803896D01*
X79819714Y-14803896D02*
X79867333Y-14994372D01*
X79867333Y-14994372D02*
X79867333Y-15232467D01*
X79867333Y-15232467D02*
X79819714Y-15422943D01*
X79819714Y-15422943D02*
X79772095Y-15518181D01*
X79772095Y-15518181D02*
X79724476Y-15565801D01*
X79724476Y-15565801D02*
X79629238Y-15613420D01*
X79629238Y-15613420D02*
X79534000Y-15613420D01*
X79534000Y-15613420D02*
X79438762Y-15565801D01*
X79438762Y-15565801D02*
X79391143Y-15518181D01*
X79391143Y-15518181D02*
X79343524Y-15422943D01*
X79343524Y-15422943D02*
X79295905Y-15232467D01*
X79295905Y-15232467D02*
X79295905Y-14994372D01*
X79295905Y-14994372D02*
X79343524Y-14803896D01*
X79343524Y-14803896D02*
X79391143Y-14708658D01*
X79391143Y-14708658D02*
X79438762Y-14661039D01*
X79438762Y-14661039D02*
X79534000Y-14613420D01*
X80724476Y-14613420D02*
X80534000Y-14613420D01*
X80534000Y-14613420D02*
X80438762Y-14661039D01*
X80438762Y-14661039D02*
X80391143Y-14708658D01*
X80391143Y-14708658D02*
X80295905Y-14851515D01*
X80295905Y-14851515D02*
X80248286Y-15041991D01*
X80248286Y-15041991D02*
X80248286Y-15422943D01*
X80248286Y-15422943D02*
X80295905Y-15518181D01*
X80295905Y-15518181D02*
X80343524Y-15565801D01*
X80343524Y-15565801D02*
X80438762Y-15613420D01*
X80438762Y-15613420D02*
X80629238Y-15613420D01*
X80629238Y-15613420D02*
X80724476Y-15565801D01*
X80724476Y-15565801D02*
X80772095Y-15518181D01*
X80772095Y-15518181D02*
X80819714Y-15422943D01*
X80819714Y-15422943D02*
X80819714Y-15184848D01*
X80819714Y-15184848D02*
X80772095Y-15089610D01*
X80772095Y-15089610D02*
X80724476Y-15041991D01*
X80724476Y-15041991D02*
X80629238Y-14994372D01*
X80629238Y-14994372D02*
X80438762Y-14994372D01*
X80438762Y-14994372D02*
X80343524Y-15041991D01*
X80343524Y-15041991D02*
X80295905Y-15089610D01*
X80295905Y-15089610D02*
X80248286Y-15184848D01*
X81438762Y-14613420D02*
X81534000Y-14613420D01*
X81534000Y-14613420D02*
X81629238Y-14661039D01*
X81629238Y-14661039D02*
X81676857Y-14708658D01*
X81676857Y-14708658D02*
X81724476Y-14803896D01*
X81724476Y-14803896D02*
X81772095Y-14994372D01*
X81772095Y-14994372D02*
X81772095Y-15232467D01*
X81772095Y-15232467D02*
X81724476Y-15422943D01*
X81724476Y-15422943D02*
X81676857Y-15518181D01*
X81676857Y-15518181D02*
X81629238Y-15565801D01*
X81629238Y-15565801D02*
X81534000Y-15613420D01*
X81534000Y-15613420D02*
X81438762Y-15613420D01*
X81438762Y-15613420D02*
X81343524Y-15565801D01*
X81343524Y-15565801D02*
X81295905Y-15518181D01*
X81295905Y-15518181D02*
X81248286Y-15422943D01*
X81248286Y-15422943D02*
X81200667Y-15232467D01*
X81200667Y-15232467D02*
X81200667Y-14994372D01*
X81200667Y-14994372D02*
X81248286Y-14803896D01*
X81248286Y-14803896D02*
X81295905Y-14708658D01*
X81295905Y-14708658D02*
X81343524Y-14661039D01*
X81343524Y-14661039D02*
X81438762Y-14613420D01*
X82391143Y-14613420D02*
X82486381Y-14613420D01*
X82486381Y-14613420D02*
X82581619Y-14661039D01*
X82581619Y-14661039D02*
X82629238Y-14708658D01*
X82629238Y-14708658D02*
X82676857Y-14803896D01*
X82676857Y-14803896D02*
X82724476Y-14994372D01*
X82724476Y-14994372D02*
X82724476Y-15232467D01*
X82724476Y-15232467D02*
X82676857Y-15422943D01*
X82676857Y-15422943D02*
X82629238Y-15518181D01*
X82629238Y-15518181D02*
X82581619Y-15565801D01*
X82581619Y-15565801D02*
X82486381Y-15613420D01*
X82486381Y-15613420D02*
X82391143Y-15613420D01*
X82391143Y-15613420D02*
X82295905Y-15565801D01*
X82295905Y-15565801D02*
X82248286Y-15518181D01*
X82248286Y-15518181D02*
X82200667Y-15422943D01*
X82200667Y-15422943D02*
X82153048Y-15232467D01*
X82153048Y-15232467D02*
X82153048Y-14994372D01*
X82153048Y-14994372D02*
X82200667Y-14803896D01*
X82200667Y-14803896D02*
X82248286Y-14708658D01*
X82248286Y-14708658D02*
X82295905Y-14661039D01*
X82295905Y-14661039D02*
X82391143Y-14613420D01*
X83914953Y-15613420D02*
X83914953Y-14946753D01*
X83914953Y-15041991D02*
X83962572Y-14994372D01*
X83962572Y-14994372D02*
X84057810Y-14946753D01*
X84057810Y-14946753D02*
X84200667Y-14946753D01*
X84200667Y-14946753D02*
X84295905Y-14994372D01*
X84295905Y-14994372D02*
X84343524Y-15089610D01*
X84343524Y-15089610D02*
X84343524Y-15613420D01*
X84343524Y-15089610D02*
X84391143Y-14994372D01*
X84391143Y-14994372D02*
X84486381Y-14946753D01*
X84486381Y-14946753D02*
X84629238Y-14946753D01*
X84629238Y-14946753D02*
X84724477Y-14994372D01*
X84724477Y-14994372D02*
X84772096Y-15089610D01*
X84772096Y-15089610D02*
X84772096Y-15613420D01*
X85248286Y-15613420D02*
X85248286Y-14946753D01*
X85248286Y-15041991D02*
X85295905Y-14994372D01*
X85295905Y-14994372D02*
X85391143Y-14946753D01*
X85391143Y-14946753D02*
X85534000Y-14946753D01*
X85534000Y-14946753D02*
X85629238Y-14994372D01*
X85629238Y-14994372D02*
X85676857Y-15089610D01*
X85676857Y-15089610D02*
X85676857Y-15613420D01*
X85676857Y-15089610D02*
X85724476Y-14994372D01*
X85724476Y-14994372D02*
X85819714Y-14946753D01*
X85819714Y-14946753D02*
X85962571Y-14946753D01*
X85962571Y-14946753D02*
X86057810Y-14994372D01*
X86057810Y-14994372D02*
X86105429Y-15089610D01*
X86105429Y-15089610D02*
X86105429Y-15613420D01*
X131064000Y-19820000D02*
X131064000Y-15669581D01*
X32004000Y-19820000D02*
X32004000Y-15669581D01*
X131064000Y-16256001D02*
X32004000Y-16256001D01*
X131064000Y-16256001D02*
X32004000Y-16256001D01*
X131064000Y-16256001D02*
X129937496Y-16842422D01*
X131064000Y-16256001D02*
X129937496Y-15669580D01*
X32004000Y-16256001D02*
X33130504Y-15669580D01*
X32004000Y-16256001D02*
X33130504Y-16842422D01*
X138357419Y-54212666D02*
X138357419Y-54403142D01*
X138357419Y-54403142D02*
X138405038Y-54498380D01*
X138405038Y-54498380D02*
X138452657Y-54545999D01*
X138452657Y-54545999D02*
X138595514Y-54641237D01*
X138595514Y-54641237D02*
X138785990Y-54688856D01*
X138785990Y-54688856D02*
X139166942Y-54688856D01*
X139166942Y-54688856D02*
X139262180Y-54641237D01*
X139262180Y-54641237D02*
X139309800Y-54593618D01*
X139309800Y-54593618D02*
X139357419Y-54498380D01*
X139357419Y-54498380D02*
X139357419Y-54307904D01*
X139357419Y-54307904D02*
X139309800Y-54212666D01*
X139309800Y-54212666D02*
X139262180Y-54165047D01*
X139262180Y-54165047D02*
X139166942Y-54117428D01*
X139166942Y-54117428D02*
X138928847Y-54117428D01*
X138928847Y-54117428D02*
X138833609Y-54165047D01*
X138833609Y-54165047D02*
X138785990Y-54212666D01*
X138785990Y-54212666D02*
X138738371Y-54307904D01*
X138738371Y-54307904D02*
X138738371Y-54498380D01*
X138738371Y-54498380D02*
X138785990Y-54593618D01*
X138785990Y-54593618D02*
X138833609Y-54641237D01*
X138833609Y-54641237D02*
X138928847Y-54688856D01*
X138357419Y-53498380D02*
X138357419Y-53403142D01*
X138357419Y-53403142D02*
X138405038Y-53307904D01*
X138405038Y-53307904D02*
X138452657Y-53260285D01*
X138452657Y-53260285D02*
X138547895Y-53212666D01*
X138547895Y-53212666D02*
X138738371Y-53165047D01*
X138738371Y-53165047D02*
X138976466Y-53165047D01*
X138976466Y-53165047D02*
X139166942Y-53212666D01*
X139166942Y-53212666D02*
X139262180Y-53260285D01*
X139262180Y-53260285D02*
X139309800Y-53307904D01*
X139309800Y-53307904D02*
X139357419Y-53403142D01*
X139357419Y-53403142D02*
X139357419Y-53498380D01*
X139357419Y-53498380D02*
X139309800Y-53593618D01*
X139309800Y-53593618D02*
X139262180Y-53641237D01*
X139262180Y-53641237D02*
X139166942Y-53688856D01*
X139166942Y-53688856D02*
X138976466Y-53736475D01*
X138976466Y-53736475D02*
X138738371Y-53736475D01*
X138738371Y-53736475D02*
X138547895Y-53688856D01*
X138547895Y-53688856D02*
X138452657Y-53641237D01*
X138452657Y-53641237D02*
X138405038Y-53593618D01*
X138405038Y-53593618D02*
X138357419Y-53498380D01*
X139309800Y-52688856D02*
X139357419Y-52688856D01*
X139357419Y-52688856D02*
X139452657Y-52736475D01*
X139452657Y-52736475D02*
X139500276Y-52784094D01*
X138690752Y-51831714D02*
X139357419Y-51831714D01*
X138309800Y-52069809D02*
X139024085Y-52307904D01*
X139024085Y-52307904D02*
X139024085Y-51688857D01*
X138357419Y-50831714D02*
X138357419Y-51307904D01*
X138357419Y-51307904D02*
X138833609Y-51355523D01*
X138833609Y-51355523D02*
X138785990Y-51307904D01*
X138785990Y-51307904D02*
X138738371Y-51212666D01*
X138738371Y-51212666D02*
X138738371Y-50974571D01*
X138738371Y-50974571D02*
X138785990Y-50879333D01*
X138785990Y-50879333D02*
X138833609Y-50831714D01*
X138833609Y-50831714D02*
X138928847Y-50784095D01*
X138928847Y-50784095D02*
X139166942Y-50784095D01*
X139166942Y-50784095D02*
X139262180Y-50831714D01*
X139262180Y-50831714D02*
X139309800Y-50879333D01*
X139309800Y-50879333D02*
X139357419Y-50974571D01*
X139357419Y-50974571D02*
X139357419Y-51212666D01*
X139357419Y-51212666D02*
X139309800Y-51307904D01*
X139309800Y-51307904D02*
X139262180Y-51355523D01*
X138452657Y-50403142D02*
X138405038Y-50355523D01*
X138405038Y-50355523D02*
X138357419Y-50260285D01*
X138357419Y-50260285D02*
X138357419Y-50022190D01*
X138357419Y-50022190D02*
X138405038Y-49926952D01*
X138405038Y-49926952D02*
X138452657Y-49879333D01*
X138452657Y-49879333D02*
X138547895Y-49831714D01*
X138547895Y-49831714D02*
X138643133Y-49831714D01*
X138643133Y-49831714D02*
X138785990Y-49879333D01*
X138785990Y-49879333D02*
X139357419Y-50450761D01*
X139357419Y-50450761D02*
X139357419Y-49831714D01*
X139357419Y-48641237D02*
X138690752Y-48641237D01*
X138785990Y-48641237D02*
X138738371Y-48593618D01*
X138738371Y-48593618D02*
X138690752Y-48498380D01*
X138690752Y-48498380D02*
X138690752Y-48355523D01*
X138690752Y-48355523D02*
X138738371Y-48260285D01*
X138738371Y-48260285D02*
X138833609Y-48212666D01*
X138833609Y-48212666D02*
X139357419Y-48212666D01*
X138833609Y-48212666D02*
X138738371Y-48165047D01*
X138738371Y-48165047D02*
X138690752Y-48069809D01*
X138690752Y-48069809D02*
X138690752Y-47926952D01*
X138690752Y-47926952D02*
X138738371Y-47831713D01*
X138738371Y-47831713D02*
X138833609Y-47784094D01*
X138833609Y-47784094D02*
X139357419Y-47784094D01*
X139357419Y-47307904D02*
X138690752Y-47307904D01*
X138785990Y-47307904D02*
X138738371Y-47260285D01*
X138738371Y-47260285D02*
X138690752Y-47165047D01*
X138690752Y-47165047D02*
X138690752Y-47022190D01*
X138690752Y-47022190D02*
X138738371Y-46926952D01*
X138738371Y-46926952D02*
X138833609Y-46879333D01*
X138833609Y-46879333D02*
X139357419Y-46879333D01*
X138833609Y-46879333D02*
X138738371Y-46831714D01*
X138738371Y-46831714D02*
X138690752Y-46736476D01*
X138690752Y-46736476D02*
X138690752Y-46593619D01*
X138690752Y-46593619D02*
X138738371Y-46498380D01*
X138738371Y-46498380D02*
X138833609Y-46450761D01*
X138833609Y-46450761D02*
X139357419Y-46450761D01*
X131564000Y-20320000D02*
X140586420Y-20320000D01*
X131564000Y-80772000D02*
X140586420Y-80772000D01*
X140000000Y-20320000D02*
X140000000Y-80772000D01*
X140000000Y-20320000D02*
X140000000Y-80772000D01*
X140000000Y-20320000D02*
X140586421Y-21446504D01*
X140000000Y-20320000D02*
X139413579Y-21446504D01*
X140000000Y-80772000D02*
X139413579Y-79645496D01*
X140000000Y-80772000D02*
X140586421Y-79645496D01*
D11*
X117348819Y-64523238D02*
X116872628Y-64856571D01*
X117348819Y-65094666D02*
X116348819Y-65094666D01*
X116348819Y-65094666D02*
X116348819Y-64713714D01*
X116348819Y-64713714D02*
X116396438Y-64618476D01*
X116396438Y-64618476D02*
X116444057Y-64570857D01*
X116444057Y-64570857D02*
X116539295Y-64523238D01*
X116539295Y-64523238D02*
X116682152Y-64523238D01*
X116682152Y-64523238D02*
X116777390Y-64570857D01*
X116777390Y-64570857D02*
X116825009Y-64618476D01*
X116825009Y-64618476D02*
X116872628Y-64713714D01*
X116872628Y-64713714D02*
X116872628Y-65094666D01*
X116348819Y-64237523D02*
X117348819Y-63904190D01*
X117348819Y-63904190D02*
X116348819Y-63570857D01*
X117348819Y-62713714D02*
X117348819Y-63285142D01*
X117348819Y-62999428D02*
X116348819Y-62999428D01*
X116348819Y-62999428D02*
X116491676Y-63094666D01*
X116491676Y-63094666D02*
X116586914Y-63189904D01*
X116586914Y-63189904D02*
X116634533Y-63285142D01*
X38290666Y-68640819D02*
X38290666Y-69355104D01*
X38290666Y-69355104D02*
X38243047Y-69497961D01*
X38243047Y-69497961D02*
X38147809Y-69593200D01*
X38147809Y-69593200D02*
X38004952Y-69640819D01*
X38004952Y-69640819D02*
X37909714Y-69640819D01*
X39290666Y-69640819D02*
X38719238Y-69640819D01*
X39004952Y-69640819D02*
X39004952Y-68640819D01*
X39004952Y-68640819D02*
X38909714Y-68783676D01*
X38909714Y-68783676D02*
X38814476Y-68878914D01*
X38814476Y-68878914D02*
X38719238Y-68926533D01*
X111913333Y-44314819D02*
X111580000Y-43838628D01*
X111341905Y-44314819D02*
X111341905Y-43314819D01*
X111341905Y-43314819D02*
X111722857Y-43314819D01*
X111722857Y-43314819D02*
X111818095Y-43362438D01*
X111818095Y-43362438D02*
X111865714Y-43410057D01*
X111865714Y-43410057D02*
X111913333Y-43505295D01*
X111913333Y-43505295D02*
X111913333Y-43648152D01*
X111913333Y-43648152D02*
X111865714Y-43743390D01*
X111865714Y-43743390D02*
X111818095Y-43791009D01*
X111818095Y-43791009D02*
X111722857Y-43838628D01*
X111722857Y-43838628D02*
X111341905Y-43838628D01*
X112294286Y-43410057D02*
X112341905Y-43362438D01*
X112341905Y-43362438D02*
X112437143Y-43314819D01*
X112437143Y-43314819D02*
X112675238Y-43314819D01*
X112675238Y-43314819D02*
X112770476Y-43362438D01*
X112770476Y-43362438D02*
X112818095Y-43410057D01*
X112818095Y-43410057D02*
X112865714Y-43505295D01*
X112865714Y-43505295D02*
X112865714Y-43600533D01*
X112865714Y-43600533D02*
X112818095Y-43743390D01*
X112818095Y-43743390D02*
X112246667Y-44314819D01*
X112246667Y-44314819D02*
X112865714Y-44314819D01*
X100584095Y-28984819D02*
X100584095Y-29794342D01*
X100584095Y-29794342D02*
X100631714Y-29889580D01*
X100631714Y-29889580D02*
X100679333Y-29937200D01*
X100679333Y-29937200D02*
X100774571Y-29984819D01*
X100774571Y-29984819D02*
X100965047Y-29984819D01*
X100965047Y-29984819D02*
X101060285Y-29937200D01*
X101060285Y-29937200D02*
X101107904Y-29889580D01*
X101107904Y-29889580D02*
X101155523Y-29794342D01*
X101155523Y-29794342D02*
X101155523Y-28984819D01*
X102155523Y-29984819D02*
X101584095Y-29984819D01*
X101869809Y-29984819D02*
X101869809Y-28984819D01*
X101869809Y-28984819D02*
X101774571Y-29127676D01*
X101774571Y-29127676D02*
X101679333Y-29222914D01*
X101679333Y-29222914D02*
X101584095Y-29270533D01*
X49460666Y-68640819D02*
X49460666Y-69355104D01*
X49460666Y-69355104D02*
X49413047Y-69497961D01*
X49413047Y-69497961D02*
X49317809Y-69593200D01*
X49317809Y-69593200D02*
X49174952Y-69640819D01*
X49174952Y-69640819D02*
X49079714Y-69640819D01*
X49889238Y-68736057D02*
X49936857Y-68688438D01*
X49936857Y-68688438D02*
X50032095Y-68640819D01*
X50032095Y-68640819D02*
X50270190Y-68640819D01*
X50270190Y-68640819D02*
X50365428Y-68688438D01*
X50365428Y-68688438D02*
X50413047Y-68736057D01*
X50413047Y-68736057D02*
X50460666Y-68831295D01*
X50460666Y-68831295D02*
X50460666Y-68926533D01*
X50460666Y-68926533D02*
X50413047Y-69069390D01*
X50413047Y-69069390D02*
X49841619Y-69640819D01*
X49841619Y-69640819D02*
X50460666Y-69640819D01*
X53699333Y-63063580D02*
X53651714Y-63111200D01*
X53651714Y-63111200D02*
X53508857Y-63158819D01*
X53508857Y-63158819D02*
X53413619Y-63158819D01*
X53413619Y-63158819D02*
X53270762Y-63111200D01*
X53270762Y-63111200D02*
X53175524Y-63015961D01*
X53175524Y-63015961D02*
X53127905Y-62920723D01*
X53127905Y-62920723D02*
X53080286Y-62730247D01*
X53080286Y-62730247D02*
X53080286Y-62587390D01*
X53080286Y-62587390D02*
X53127905Y-62396914D01*
X53127905Y-62396914D02*
X53175524Y-62301676D01*
X53175524Y-62301676D02*
X53270762Y-62206438D01*
X53270762Y-62206438D02*
X53413619Y-62158819D01*
X53413619Y-62158819D02*
X53508857Y-62158819D01*
X53508857Y-62158819D02*
X53651714Y-62206438D01*
X53651714Y-62206438D02*
X53699333Y-62254057D01*
X54651714Y-63158819D02*
X54080286Y-63158819D01*
X54366000Y-63158819D02*
X54366000Y-62158819D01*
X54366000Y-62158819D02*
X54270762Y-62301676D01*
X54270762Y-62301676D02*
X54175524Y-62396914D01*
X54175524Y-62396914D02*
X54080286Y-62444533D01*
X69764819Y-51561904D02*
X70574342Y-51561904D01*
X70574342Y-51561904D02*
X70669580Y-51514285D01*
X70669580Y-51514285D02*
X70717200Y-51466666D01*
X70717200Y-51466666D02*
X70764819Y-51371428D01*
X70764819Y-51371428D02*
X70764819Y-51180952D01*
X70764819Y-51180952D02*
X70717200Y-51085714D01*
X70717200Y-51085714D02*
X70669580Y-51038095D01*
X70669580Y-51038095D02*
X70574342Y-50990476D01*
X70574342Y-50990476D02*
X69764819Y-50990476D01*
X69764819Y-50038095D02*
X69764819Y-50514285D01*
X69764819Y-50514285D02*
X70241009Y-50561904D01*
X70241009Y-50561904D02*
X70193390Y-50514285D01*
X70193390Y-50514285D02*
X70145771Y-50419047D01*
X70145771Y-50419047D02*
X70145771Y-50180952D01*
X70145771Y-50180952D02*
X70193390Y-50085714D01*
X70193390Y-50085714D02*
X70241009Y-50038095D01*
X70241009Y-50038095D02*
X70336247Y-49990476D01*
X70336247Y-49990476D02*
X70574342Y-49990476D01*
X70574342Y-49990476D02*
X70669580Y-50038095D01*
X70669580Y-50038095D02*
X70717200Y-50085714D01*
X70717200Y-50085714D02*
X70764819Y-50180952D01*
X70764819Y-50180952D02*
X70764819Y-50419047D01*
X70764819Y-50419047D02*
X70717200Y-50514285D01*
X70717200Y-50514285D02*
X70669580Y-50561904D01*
X67904333Y-74636819D02*
X67571000Y-74160628D01*
X67332905Y-74636819D02*
X67332905Y-73636819D01*
X67332905Y-73636819D02*
X67713857Y-73636819D01*
X67713857Y-73636819D02*
X67809095Y-73684438D01*
X67809095Y-73684438D02*
X67856714Y-73732057D01*
X67856714Y-73732057D02*
X67904333Y-73827295D01*
X67904333Y-73827295D02*
X67904333Y-73970152D01*
X67904333Y-73970152D02*
X67856714Y-74065390D01*
X67856714Y-74065390D02*
X67809095Y-74113009D01*
X67809095Y-74113009D02*
X67713857Y-74160628D01*
X67713857Y-74160628D02*
X67332905Y-74160628D01*
X68761476Y-73636819D02*
X68571000Y-73636819D01*
X68571000Y-73636819D02*
X68475762Y-73684438D01*
X68475762Y-73684438D02*
X68428143Y-73732057D01*
X68428143Y-73732057D02*
X68332905Y-73874914D01*
X68332905Y-73874914D02*
X68285286Y-74065390D01*
X68285286Y-74065390D02*
X68285286Y-74446342D01*
X68285286Y-74446342D02*
X68332905Y-74541580D01*
X68332905Y-74541580D02*
X68380524Y-74589200D01*
X68380524Y-74589200D02*
X68475762Y-74636819D01*
X68475762Y-74636819D02*
X68666238Y-74636819D01*
X68666238Y-74636819D02*
X68761476Y-74589200D01*
X68761476Y-74589200D02*
X68809095Y-74541580D01*
X68809095Y-74541580D02*
X68856714Y-74446342D01*
X68856714Y-74446342D02*
X68856714Y-74208247D01*
X68856714Y-74208247D02*
X68809095Y-74113009D01*
X68809095Y-74113009D02*
X68761476Y-74065390D01*
X68761476Y-74065390D02*
X68666238Y-74017771D01*
X68666238Y-74017771D02*
X68475762Y-74017771D01*
X68475762Y-74017771D02*
X68380524Y-74065390D01*
X68380524Y-74065390D02*
X68332905Y-74113009D01*
X68332905Y-74113009D02*
X68285286Y-74208247D01*
X47585333Y-49127580D02*
X47537714Y-49175200D01*
X47537714Y-49175200D02*
X47394857Y-49222819D01*
X47394857Y-49222819D02*
X47299619Y-49222819D01*
X47299619Y-49222819D02*
X47156762Y-49175200D01*
X47156762Y-49175200D02*
X47061524Y-49079961D01*
X47061524Y-49079961D02*
X47013905Y-48984723D01*
X47013905Y-48984723D02*
X46966286Y-48794247D01*
X46966286Y-48794247D02*
X46966286Y-48651390D01*
X46966286Y-48651390D02*
X47013905Y-48460914D01*
X47013905Y-48460914D02*
X47061524Y-48365676D01*
X47061524Y-48365676D02*
X47156762Y-48270438D01*
X47156762Y-48270438D02*
X47299619Y-48222819D01*
X47299619Y-48222819D02*
X47394857Y-48222819D01*
X47394857Y-48222819D02*
X47537714Y-48270438D01*
X47537714Y-48270438D02*
X47585333Y-48318057D01*
X47918667Y-48222819D02*
X48537714Y-48222819D01*
X48537714Y-48222819D02*
X48204381Y-48603771D01*
X48204381Y-48603771D02*
X48347238Y-48603771D01*
X48347238Y-48603771D02*
X48442476Y-48651390D01*
X48442476Y-48651390D02*
X48490095Y-48699009D01*
X48490095Y-48699009D02*
X48537714Y-48794247D01*
X48537714Y-48794247D02*
X48537714Y-49032342D01*
X48537714Y-49032342D02*
X48490095Y-49127580D01*
X48490095Y-49127580D02*
X48442476Y-49175200D01*
X48442476Y-49175200D02*
X48347238Y-49222819D01*
X48347238Y-49222819D02*
X48061524Y-49222819D01*
X48061524Y-49222819D02*
X47966286Y-49175200D01*
X47966286Y-49175200D02*
X47918667Y-49127580D01*
X96071905Y-68156819D02*
X96071905Y-67156819D01*
X96071905Y-67156819D02*
X96310000Y-67156819D01*
X96310000Y-67156819D02*
X96452857Y-67204438D01*
X96452857Y-67204438D02*
X96548095Y-67299676D01*
X96548095Y-67299676D02*
X96595714Y-67394914D01*
X96595714Y-67394914D02*
X96643333Y-67585390D01*
X96643333Y-67585390D02*
X96643333Y-67728247D01*
X96643333Y-67728247D02*
X96595714Y-67918723D01*
X96595714Y-67918723D02*
X96548095Y-68013961D01*
X96548095Y-68013961D02*
X96452857Y-68109200D01*
X96452857Y-68109200D02*
X96310000Y-68156819D01*
X96310000Y-68156819D02*
X96071905Y-68156819D01*
X97024286Y-67252057D02*
X97071905Y-67204438D01*
X97071905Y-67204438D02*
X97167143Y-67156819D01*
X97167143Y-67156819D02*
X97405238Y-67156819D01*
X97405238Y-67156819D02*
X97500476Y-67204438D01*
X97500476Y-67204438D02*
X97548095Y-67252057D01*
X97548095Y-67252057D02*
X97595714Y-67347295D01*
X97595714Y-67347295D02*
X97595714Y-67442533D01*
X97595714Y-67442533D02*
X97548095Y-67585390D01*
X97548095Y-67585390D02*
X96976667Y-68156819D01*
X96976667Y-68156819D02*
X97595714Y-68156819D01*
X91686095Y-68526819D02*
X91686095Y-67526819D01*
X92257523Y-68526819D02*
X91828952Y-67955390D01*
X92257523Y-67526819D02*
X91686095Y-68098247D01*
X60793333Y-22468819D02*
X60460000Y-21992628D01*
X60221905Y-22468819D02*
X60221905Y-21468819D01*
X60221905Y-21468819D02*
X60602857Y-21468819D01*
X60602857Y-21468819D02*
X60698095Y-21516438D01*
X60698095Y-21516438D02*
X60745714Y-21564057D01*
X60745714Y-21564057D02*
X60793333Y-21659295D01*
X60793333Y-21659295D02*
X60793333Y-21802152D01*
X60793333Y-21802152D02*
X60745714Y-21897390D01*
X60745714Y-21897390D02*
X60698095Y-21945009D01*
X60698095Y-21945009D02*
X60602857Y-21992628D01*
X60602857Y-21992628D02*
X60221905Y-21992628D01*
X61364762Y-21897390D02*
X61269524Y-21849771D01*
X61269524Y-21849771D02*
X61221905Y-21802152D01*
X61221905Y-21802152D02*
X61174286Y-21706914D01*
X61174286Y-21706914D02*
X61174286Y-21659295D01*
X61174286Y-21659295D02*
X61221905Y-21564057D01*
X61221905Y-21564057D02*
X61269524Y-21516438D01*
X61269524Y-21516438D02*
X61364762Y-21468819D01*
X61364762Y-21468819D02*
X61555238Y-21468819D01*
X61555238Y-21468819D02*
X61650476Y-21516438D01*
X61650476Y-21516438D02*
X61698095Y-21564057D01*
X61698095Y-21564057D02*
X61745714Y-21659295D01*
X61745714Y-21659295D02*
X61745714Y-21706914D01*
X61745714Y-21706914D02*
X61698095Y-21802152D01*
X61698095Y-21802152D02*
X61650476Y-21849771D01*
X61650476Y-21849771D02*
X61555238Y-21897390D01*
X61555238Y-21897390D02*
X61364762Y-21897390D01*
X61364762Y-21897390D02*
X61269524Y-21945009D01*
X61269524Y-21945009D02*
X61221905Y-21992628D01*
X61221905Y-21992628D02*
X61174286Y-22087866D01*
X61174286Y-22087866D02*
X61174286Y-22278342D01*
X61174286Y-22278342D02*
X61221905Y-22373580D01*
X61221905Y-22373580D02*
X61269524Y-22421200D01*
X61269524Y-22421200D02*
X61364762Y-22468819D01*
X61364762Y-22468819D02*
X61555238Y-22468819D01*
X61555238Y-22468819D02*
X61650476Y-22421200D01*
X61650476Y-22421200D02*
X61698095Y-22373580D01*
X61698095Y-22373580D02*
X61745714Y-22278342D01*
X61745714Y-22278342D02*
X61745714Y-22087866D01*
X61745714Y-22087866D02*
X61698095Y-21992628D01*
X61698095Y-21992628D02*
X61650476Y-21945009D01*
X61650476Y-21945009D02*
X61555238Y-21897390D01*
X112641714Y-68125604D02*
X113117904Y-68125604D01*
X112546476Y-68411319D02*
X112879809Y-67411319D01*
X112879809Y-67411319D02*
X113213142Y-68411319D01*
X114070285Y-68411319D02*
X113498857Y-68411319D01*
X113784571Y-68411319D02*
X113784571Y-67411319D01*
X113784571Y-67411319D02*
X113689333Y-67554176D01*
X113689333Y-67554176D02*
X113594095Y-67649414D01*
X113594095Y-67649414D02*
X113498857Y-67697033D01*
X81017904Y-27977180D02*
X81017904Y-27167657D01*
X81017904Y-27167657D02*
X80970285Y-27072419D01*
X80970285Y-27072419D02*
X80922666Y-27024800D01*
X80922666Y-27024800D02*
X80827428Y-26977180D01*
X80827428Y-26977180D02*
X80636952Y-26977180D01*
X80636952Y-26977180D02*
X80541714Y-27024800D01*
X80541714Y-27024800D02*
X80494095Y-27072419D01*
X80494095Y-27072419D02*
X80446476Y-27167657D01*
X80446476Y-27167657D02*
X80446476Y-27977180D01*
X80017904Y-27024800D02*
X79875047Y-26977180D01*
X79875047Y-26977180D02*
X79636952Y-26977180D01*
X79636952Y-26977180D02*
X79541714Y-27024800D01*
X79541714Y-27024800D02*
X79494095Y-27072419D01*
X79494095Y-27072419D02*
X79446476Y-27167657D01*
X79446476Y-27167657D02*
X79446476Y-27262895D01*
X79446476Y-27262895D02*
X79494095Y-27358133D01*
X79494095Y-27358133D02*
X79541714Y-27405752D01*
X79541714Y-27405752D02*
X79636952Y-27453371D01*
X79636952Y-27453371D02*
X79827428Y-27500990D01*
X79827428Y-27500990D02*
X79922666Y-27548609D01*
X79922666Y-27548609D02*
X79970285Y-27596228D01*
X79970285Y-27596228D02*
X80017904Y-27691466D01*
X80017904Y-27691466D02*
X80017904Y-27786704D01*
X80017904Y-27786704D02*
X79970285Y-27881942D01*
X79970285Y-27881942D02*
X79922666Y-27929561D01*
X79922666Y-27929561D02*
X79827428Y-27977180D01*
X79827428Y-27977180D02*
X79589333Y-27977180D01*
X79589333Y-27977180D02*
X79446476Y-27929561D01*
X78684571Y-27500990D02*
X78541714Y-27453371D01*
X78541714Y-27453371D02*
X78494095Y-27405752D01*
X78494095Y-27405752D02*
X78446476Y-27310514D01*
X78446476Y-27310514D02*
X78446476Y-27167657D01*
X78446476Y-27167657D02*
X78494095Y-27072419D01*
X78494095Y-27072419D02*
X78541714Y-27024800D01*
X78541714Y-27024800D02*
X78636952Y-26977180D01*
X78636952Y-26977180D02*
X79017904Y-26977180D01*
X79017904Y-26977180D02*
X79017904Y-27977180D01*
X79017904Y-27977180D02*
X78684571Y-27977180D01*
X78684571Y-27977180D02*
X78589333Y-27929561D01*
X78589333Y-27929561D02*
X78541714Y-27881942D01*
X78541714Y-27881942D02*
X78494095Y-27786704D01*
X78494095Y-27786704D02*
X78494095Y-27691466D01*
X78494095Y-27691466D02*
X78541714Y-27596228D01*
X78541714Y-27596228D02*
X78589333Y-27548609D01*
X78589333Y-27548609D02*
X78684571Y-27500990D01*
X78684571Y-27500990D02*
X79017904Y-27500990D01*
X33060819Y-57570666D02*
X32584628Y-57903999D01*
X33060819Y-58142094D02*
X32060819Y-58142094D01*
X32060819Y-58142094D02*
X32060819Y-57761142D01*
X32060819Y-57761142D02*
X32108438Y-57665904D01*
X32108438Y-57665904D02*
X32156057Y-57618285D01*
X32156057Y-57618285D02*
X32251295Y-57570666D01*
X32251295Y-57570666D02*
X32394152Y-57570666D01*
X32394152Y-57570666D02*
X32489390Y-57618285D01*
X32489390Y-57618285D02*
X32537009Y-57665904D01*
X32537009Y-57665904D02*
X32584628Y-57761142D01*
X32584628Y-57761142D02*
X32584628Y-58142094D01*
X32060819Y-56665904D02*
X32060819Y-57142094D01*
X32060819Y-57142094D02*
X32537009Y-57189713D01*
X32537009Y-57189713D02*
X32489390Y-57142094D01*
X32489390Y-57142094D02*
X32441771Y-57046856D01*
X32441771Y-57046856D02*
X32441771Y-56808761D01*
X32441771Y-56808761D02*
X32489390Y-56713523D01*
X32489390Y-56713523D02*
X32537009Y-56665904D01*
X32537009Y-56665904D02*
X32632247Y-56618285D01*
X32632247Y-56618285D02*
X32870342Y-56618285D01*
X32870342Y-56618285D02*
X32965580Y-56665904D01*
X32965580Y-56665904D02*
X33013200Y-56713523D01*
X33013200Y-56713523D02*
X33060819Y-56808761D01*
X33060819Y-56808761D02*
X33060819Y-57046856D01*
X33060819Y-57046856D02*
X33013200Y-57142094D01*
X33013200Y-57142094D02*
X32965580Y-57189713D01*
X47560666Y-38276819D02*
X47560666Y-38991104D01*
X47560666Y-38991104D02*
X47513047Y-39133961D01*
X47513047Y-39133961D02*
X47417809Y-39229200D01*
X47417809Y-39229200D02*
X47274952Y-39276819D01*
X47274952Y-39276819D02*
X47179714Y-39276819D01*
X48465428Y-38610152D02*
X48465428Y-39276819D01*
X48227333Y-38229200D02*
X47989238Y-38943485D01*
X47989238Y-38943485D02*
X48608285Y-38943485D01*
X124194095Y-28984819D02*
X124194095Y-29794342D01*
X124194095Y-29794342D02*
X124241714Y-29889580D01*
X124241714Y-29889580D02*
X124289333Y-29937200D01*
X124289333Y-29937200D02*
X124384571Y-29984819D01*
X124384571Y-29984819D02*
X124575047Y-29984819D01*
X124575047Y-29984819D02*
X124670285Y-29937200D01*
X124670285Y-29937200D02*
X124717904Y-29889580D01*
X124717904Y-29889580D02*
X124765523Y-29794342D01*
X124765523Y-29794342D02*
X124765523Y-28984819D01*
X125146476Y-28984819D02*
X125765523Y-28984819D01*
X125765523Y-28984819D02*
X125432190Y-29365771D01*
X125432190Y-29365771D02*
X125575047Y-29365771D01*
X125575047Y-29365771D02*
X125670285Y-29413390D01*
X125670285Y-29413390D02*
X125717904Y-29461009D01*
X125717904Y-29461009D02*
X125765523Y-29556247D01*
X125765523Y-29556247D02*
X125765523Y-29794342D01*
X125765523Y-29794342D02*
X125717904Y-29889580D01*
X125717904Y-29889580D02*
X125670285Y-29937200D01*
X125670285Y-29937200D02*
X125575047Y-29984819D01*
X125575047Y-29984819D02*
X125289333Y-29984819D01*
X125289333Y-29984819D02*
X125194095Y-29937200D01*
X125194095Y-29937200D02*
X125146476Y-29889580D01*
X73773057Y-71830238D02*
X73725438Y-71925476D01*
X73725438Y-71925476D02*
X73630200Y-72020714D01*
X73630200Y-72020714D02*
X73487342Y-72163571D01*
X73487342Y-72163571D02*
X73439723Y-72258809D01*
X73439723Y-72258809D02*
X73439723Y-72354047D01*
X73677819Y-72306428D02*
X73630200Y-72401666D01*
X73630200Y-72401666D02*
X73534961Y-72496904D01*
X73534961Y-72496904D02*
X73344485Y-72544523D01*
X73344485Y-72544523D02*
X73011152Y-72544523D01*
X73011152Y-72544523D02*
X72820676Y-72496904D01*
X72820676Y-72496904D02*
X72725438Y-72401666D01*
X72725438Y-72401666D02*
X72677819Y-72306428D01*
X72677819Y-72306428D02*
X72677819Y-72115952D01*
X72677819Y-72115952D02*
X72725438Y-72020714D01*
X72725438Y-72020714D02*
X72820676Y-71925476D01*
X72820676Y-71925476D02*
X73011152Y-71877857D01*
X73011152Y-71877857D02*
X73344485Y-71877857D01*
X73344485Y-71877857D02*
X73534961Y-71925476D01*
X73534961Y-71925476D02*
X73630200Y-72020714D01*
X73630200Y-72020714D02*
X73677819Y-72115952D01*
X73677819Y-72115952D02*
X73677819Y-72306428D01*
X72773057Y-71496904D02*
X72725438Y-71449285D01*
X72725438Y-71449285D02*
X72677819Y-71354047D01*
X72677819Y-71354047D02*
X72677819Y-71115952D01*
X72677819Y-71115952D02*
X72725438Y-71020714D01*
X72725438Y-71020714D02*
X72773057Y-70973095D01*
X72773057Y-70973095D02*
X72868295Y-70925476D01*
X72868295Y-70925476D02*
X72963533Y-70925476D01*
X72963533Y-70925476D02*
X73106390Y-70973095D01*
X73106390Y-70973095D02*
X73677819Y-71544523D01*
X73677819Y-71544523D02*
X73677819Y-70925476D01*
X68953333Y-63859580D02*
X68905714Y-63907200D01*
X68905714Y-63907200D02*
X68762857Y-63954819D01*
X68762857Y-63954819D02*
X68667619Y-63954819D01*
X68667619Y-63954819D02*
X68524762Y-63907200D01*
X68524762Y-63907200D02*
X68429524Y-63811961D01*
X68429524Y-63811961D02*
X68381905Y-63716723D01*
X68381905Y-63716723D02*
X68334286Y-63526247D01*
X68334286Y-63526247D02*
X68334286Y-63383390D01*
X68334286Y-63383390D02*
X68381905Y-63192914D01*
X68381905Y-63192914D02*
X68429524Y-63097676D01*
X68429524Y-63097676D02*
X68524762Y-63002438D01*
X68524762Y-63002438D02*
X68667619Y-62954819D01*
X68667619Y-62954819D02*
X68762857Y-62954819D01*
X68762857Y-62954819D02*
X68905714Y-63002438D01*
X68905714Y-63002438D02*
X68953333Y-63050057D01*
X69858095Y-62954819D02*
X69381905Y-62954819D01*
X69381905Y-62954819D02*
X69334286Y-63431009D01*
X69334286Y-63431009D02*
X69381905Y-63383390D01*
X69381905Y-63383390D02*
X69477143Y-63335771D01*
X69477143Y-63335771D02*
X69715238Y-63335771D01*
X69715238Y-63335771D02*
X69810476Y-63383390D01*
X69810476Y-63383390D02*
X69858095Y-63431009D01*
X69858095Y-63431009D02*
X69905714Y-63526247D01*
X69905714Y-63526247D02*
X69905714Y-63764342D01*
X69905714Y-63764342D02*
X69858095Y-63859580D01*
X69858095Y-63859580D02*
X69810476Y-63907200D01*
X69810476Y-63907200D02*
X69715238Y-63954819D01*
X69715238Y-63954819D02*
X69477143Y-63954819D01*
X69477143Y-63954819D02*
X69381905Y-63907200D01*
X69381905Y-63907200D02*
X69334286Y-63859580D01*
X65405333Y-36259580D02*
X65357714Y-36307200D01*
X65357714Y-36307200D02*
X65214857Y-36354819D01*
X65214857Y-36354819D02*
X65119619Y-36354819D01*
X65119619Y-36354819D02*
X64976762Y-36307200D01*
X64976762Y-36307200D02*
X64881524Y-36211961D01*
X64881524Y-36211961D02*
X64833905Y-36116723D01*
X64833905Y-36116723D02*
X64786286Y-35926247D01*
X64786286Y-35926247D02*
X64786286Y-35783390D01*
X64786286Y-35783390D02*
X64833905Y-35592914D01*
X64833905Y-35592914D02*
X64881524Y-35497676D01*
X64881524Y-35497676D02*
X64976762Y-35402438D01*
X64976762Y-35402438D02*
X65119619Y-35354819D01*
X65119619Y-35354819D02*
X65214857Y-35354819D01*
X65214857Y-35354819D02*
X65357714Y-35402438D01*
X65357714Y-35402438D02*
X65405333Y-35450057D01*
X66262476Y-35688152D02*
X66262476Y-36354819D01*
X66024381Y-35307200D02*
X65786286Y-36021485D01*
X65786286Y-36021485D02*
X66405333Y-36021485D01*
X32856057Y-35147238D02*
X32808438Y-35242476D01*
X32808438Y-35242476D02*
X32713200Y-35337714D01*
X32713200Y-35337714D02*
X32570342Y-35480571D01*
X32570342Y-35480571D02*
X32522723Y-35575809D01*
X32522723Y-35575809D02*
X32522723Y-35671047D01*
X32760819Y-35623428D02*
X32713200Y-35718666D01*
X32713200Y-35718666D02*
X32617961Y-35813904D01*
X32617961Y-35813904D02*
X32427485Y-35861523D01*
X32427485Y-35861523D02*
X32094152Y-35861523D01*
X32094152Y-35861523D02*
X31903676Y-35813904D01*
X31903676Y-35813904D02*
X31808438Y-35718666D01*
X31808438Y-35718666D02*
X31760819Y-35623428D01*
X31760819Y-35623428D02*
X31760819Y-35432952D01*
X31760819Y-35432952D02*
X31808438Y-35337714D01*
X31808438Y-35337714D02*
X31903676Y-35242476D01*
X31903676Y-35242476D02*
X32094152Y-35194857D01*
X32094152Y-35194857D02*
X32427485Y-35194857D01*
X32427485Y-35194857D02*
X32617961Y-35242476D01*
X32617961Y-35242476D02*
X32713200Y-35337714D01*
X32713200Y-35337714D02*
X32760819Y-35432952D01*
X32760819Y-35432952D02*
X32760819Y-35623428D01*
X32760819Y-34242476D02*
X32760819Y-34813904D01*
X32760819Y-34528190D02*
X31760819Y-34528190D01*
X31760819Y-34528190D02*
X31903676Y-34623428D01*
X31903676Y-34623428D02*
X31998914Y-34718666D01*
X31998914Y-34718666D02*
X32046533Y-34813904D01*
X54547580Y-74802666D02*
X54595200Y-74850285D01*
X54595200Y-74850285D02*
X54642819Y-74993142D01*
X54642819Y-74993142D02*
X54642819Y-75088380D01*
X54642819Y-75088380D02*
X54595200Y-75231237D01*
X54595200Y-75231237D02*
X54499961Y-75326475D01*
X54499961Y-75326475D02*
X54404723Y-75374094D01*
X54404723Y-75374094D02*
X54214247Y-75421713D01*
X54214247Y-75421713D02*
X54071390Y-75421713D01*
X54071390Y-75421713D02*
X53880914Y-75374094D01*
X53880914Y-75374094D02*
X53785676Y-75326475D01*
X53785676Y-75326475D02*
X53690438Y-75231237D01*
X53690438Y-75231237D02*
X53642819Y-75088380D01*
X53642819Y-75088380D02*
X53642819Y-74993142D01*
X53642819Y-74993142D02*
X53690438Y-74850285D01*
X53690438Y-74850285D02*
X53738057Y-74802666D01*
X53738057Y-74421713D02*
X53690438Y-74374094D01*
X53690438Y-74374094D02*
X53642819Y-74278856D01*
X53642819Y-74278856D02*
X53642819Y-74040761D01*
X53642819Y-74040761D02*
X53690438Y-73945523D01*
X53690438Y-73945523D02*
X53738057Y-73897904D01*
X53738057Y-73897904D02*
X53833295Y-73850285D01*
X53833295Y-73850285D02*
X53928533Y-73850285D01*
X53928533Y-73850285D02*
X54071390Y-73897904D01*
X54071390Y-73897904D02*
X54642819Y-74469332D01*
X54642819Y-74469332D02*
X54642819Y-73850285D01*
X63064894Y-37042878D02*
X63064894Y-38371848D01*
X63064894Y-38371848D02*
X63143069Y-38528198D01*
X63143069Y-38528198D02*
X63221244Y-38606373D01*
X63221244Y-38606373D02*
X63377593Y-38684547D01*
X63377593Y-38684547D02*
X63690292Y-38684547D01*
X63690292Y-38684547D02*
X63846641Y-38606373D01*
X63846641Y-38606373D02*
X63924816Y-38528198D01*
X63924816Y-38528198D02*
X64002991Y-38371848D01*
X64002991Y-38371848D02*
X64002991Y-37042878D01*
X65488311Y-37590101D02*
X65488311Y-38684547D01*
X65097437Y-36964704D02*
X64706563Y-38137324D01*
X64706563Y-38137324D02*
X65722835Y-38137324D01*
X58520819Y-56046666D02*
X58520819Y-56522856D01*
X58520819Y-56522856D02*
X57520819Y-56522856D01*
X58520819Y-55189523D02*
X58520819Y-55760951D01*
X58520819Y-55475237D02*
X57520819Y-55475237D01*
X57520819Y-55475237D02*
X57663676Y-55570475D01*
X57663676Y-55570475D02*
X57758914Y-55665713D01*
X57758914Y-55665713D02*
X57806533Y-55760951D01*
X52017333Y-38339580D02*
X51969714Y-38387200D01*
X51969714Y-38387200D02*
X51826857Y-38434819D01*
X51826857Y-38434819D02*
X51731619Y-38434819D01*
X51731619Y-38434819D02*
X51588762Y-38387200D01*
X51588762Y-38387200D02*
X51493524Y-38291961D01*
X51493524Y-38291961D02*
X51445905Y-38196723D01*
X51445905Y-38196723D02*
X51398286Y-38006247D01*
X51398286Y-38006247D02*
X51398286Y-37863390D01*
X51398286Y-37863390D02*
X51445905Y-37672914D01*
X51445905Y-37672914D02*
X51493524Y-37577676D01*
X51493524Y-37577676D02*
X51588762Y-37482438D01*
X51588762Y-37482438D02*
X51731619Y-37434819D01*
X51731619Y-37434819D02*
X51826857Y-37434819D01*
X51826857Y-37434819D02*
X51969714Y-37482438D01*
X51969714Y-37482438D02*
X52017333Y-37530057D01*
X52874476Y-37434819D02*
X52684000Y-37434819D01*
X52684000Y-37434819D02*
X52588762Y-37482438D01*
X52588762Y-37482438D02*
X52541143Y-37530057D01*
X52541143Y-37530057D02*
X52445905Y-37672914D01*
X52445905Y-37672914D02*
X52398286Y-37863390D01*
X52398286Y-37863390D02*
X52398286Y-38244342D01*
X52398286Y-38244342D02*
X52445905Y-38339580D01*
X52445905Y-38339580D02*
X52493524Y-38387200D01*
X52493524Y-38387200D02*
X52588762Y-38434819D01*
X52588762Y-38434819D02*
X52779238Y-38434819D01*
X52779238Y-38434819D02*
X52874476Y-38387200D01*
X52874476Y-38387200D02*
X52922095Y-38339580D01*
X52922095Y-38339580D02*
X52969714Y-38244342D01*
X52969714Y-38244342D02*
X52969714Y-38006247D01*
X52969714Y-38006247D02*
X52922095Y-37911009D01*
X52922095Y-37911009D02*
X52874476Y-37863390D01*
X52874476Y-37863390D02*
X52779238Y-37815771D01*
X52779238Y-37815771D02*
X52588762Y-37815771D01*
X52588762Y-37815771D02*
X52493524Y-37863390D01*
X52493524Y-37863390D02*
X52445905Y-37911009D01*
X52445905Y-37911009D02*
X52398286Y-38006247D01*
X99213333Y-44314819D02*
X98880000Y-43838628D01*
X98641905Y-44314819D02*
X98641905Y-43314819D01*
X98641905Y-43314819D02*
X99022857Y-43314819D01*
X99022857Y-43314819D02*
X99118095Y-43362438D01*
X99118095Y-43362438D02*
X99165714Y-43410057D01*
X99165714Y-43410057D02*
X99213333Y-43505295D01*
X99213333Y-43505295D02*
X99213333Y-43648152D01*
X99213333Y-43648152D02*
X99165714Y-43743390D01*
X99165714Y-43743390D02*
X99118095Y-43791009D01*
X99118095Y-43791009D02*
X99022857Y-43838628D01*
X99022857Y-43838628D02*
X98641905Y-43838628D01*
X99546667Y-43314819D02*
X100165714Y-43314819D01*
X100165714Y-43314819D02*
X99832381Y-43695771D01*
X99832381Y-43695771D02*
X99975238Y-43695771D01*
X99975238Y-43695771D02*
X100070476Y-43743390D01*
X100070476Y-43743390D02*
X100118095Y-43791009D01*
X100118095Y-43791009D02*
X100165714Y-43886247D01*
X100165714Y-43886247D02*
X100165714Y-44124342D01*
X100165714Y-44124342D02*
X100118095Y-44219580D01*
X100118095Y-44219580D02*
X100070476Y-44267200D01*
X100070476Y-44267200D02*
X99975238Y-44314819D01*
X99975238Y-44314819D02*
X99689524Y-44314819D01*
X99689524Y-44314819D02*
X99594286Y-44267200D01*
X99594286Y-44267200D02*
X99546667Y-44219580D01*
X107191200Y-65035332D02*
X107238819Y-64892475D01*
X107238819Y-64892475D02*
X107238819Y-64654380D01*
X107238819Y-64654380D02*
X107191200Y-64559142D01*
X107191200Y-64559142D02*
X107143580Y-64511523D01*
X107143580Y-64511523D02*
X107048342Y-64463904D01*
X107048342Y-64463904D02*
X106953104Y-64463904D01*
X106953104Y-64463904D02*
X106857866Y-64511523D01*
X106857866Y-64511523D02*
X106810247Y-64559142D01*
X106810247Y-64559142D02*
X106762628Y-64654380D01*
X106762628Y-64654380D02*
X106715009Y-64844856D01*
X106715009Y-64844856D02*
X106667390Y-64940094D01*
X106667390Y-64940094D02*
X106619771Y-64987713D01*
X106619771Y-64987713D02*
X106524533Y-65035332D01*
X106524533Y-65035332D02*
X106429295Y-65035332D01*
X106429295Y-65035332D02*
X106334057Y-64987713D01*
X106334057Y-64987713D02*
X106286438Y-64940094D01*
X106286438Y-64940094D02*
X106238819Y-64844856D01*
X106238819Y-64844856D02*
X106238819Y-64606761D01*
X106238819Y-64606761D02*
X106286438Y-64463904D01*
X106238819Y-64130570D02*
X107238819Y-63892475D01*
X107238819Y-63892475D02*
X106524533Y-63701999D01*
X106524533Y-63701999D02*
X107238819Y-63511523D01*
X107238819Y-63511523D02*
X106238819Y-63273428D01*
X107238819Y-62368666D02*
X107238819Y-62940094D01*
X107238819Y-62654380D02*
X106238819Y-62654380D01*
X106238819Y-62654380D02*
X106381676Y-62749618D01*
X106381676Y-62749618D02*
X106476914Y-62844856D01*
X106476914Y-62844856D02*
X106524533Y-62940094D01*
X112389095Y-28984819D02*
X112389095Y-29794342D01*
X112389095Y-29794342D02*
X112436714Y-29889580D01*
X112436714Y-29889580D02*
X112484333Y-29937200D01*
X112484333Y-29937200D02*
X112579571Y-29984819D01*
X112579571Y-29984819D02*
X112770047Y-29984819D01*
X112770047Y-29984819D02*
X112865285Y-29937200D01*
X112865285Y-29937200D02*
X112912904Y-29889580D01*
X112912904Y-29889580D02*
X112960523Y-29794342D01*
X112960523Y-29794342D02*
X112960523Y-28984819D01*
X113389095Y-29080057D02*
X113436714Y-29032438D01*
X113436714Y-29032438D02*
X113531952Y-28984819D01*
X113531952Y-28984819D02*
X113770047Y-28984819D01*
X113770047Y-28984819D02*
X113865285Y-29032438D01*
X113865285Y-29032438D02*
X113912904Y-29080057D01*
X113912904Y-29080057D02*
X113960523Y-29175295D01*
X113960523Y-29175295D02*
X113960523Y-29270533D01*
X113960523Y-29270533D02*
X113912904Y-29413390D01*
X113912904Y-29413390D02*
X113341476Y-29984819D01*
X113341476Y-29984819D02*
X113960523Y-29984819D01*
X86654666Y-68082819D02*
X86654666Y-68797104D01*
X86654666Y-68797104D02*
X86607047Y-68939961D01*
X86607047Y-68939961D02*
X86511809Y-69035200D01*
X86511809Y-69035200D02*
X86368952Y-69082819D01*
X86368952Y-69082819D02*
X86273714Y-69082819D01*
X87035619Y-68082819D02*
X87654666Y-68082819D01*
X87654666Y-68082819D02*
X87321333Y-68463771D01*
X87321333Y-68463771D02*
X87464190Y-68463771D01*
X87464190Y-68463771D02*
X87559428Y-68511390D01*
X87559428Y-68511390D02*
X87607047Y-68559009D01*
X87607047Y-68559009D02*
X87654666Y-68654247D01*
X87654666Y-68654247D02*
X87654666Y-68892342D01*
X87654666Y-68892342D02*
X87607047Y-68987580D01*
X87607047Y-68987580D02*
X87559428Y-69035200D01*
X87559428Y-69035200D02*
X87464190Y-69082819D01*
X87464190Y-69082819D02*
X87178476Y-69082819D01*
X87178476Y-69082819D02*
X87083238Y-69035200D01*
X87083238Y-69035200D02*
X87035619Y-68987580D01*
X38886819Y-43918094D02*
X37886819Y-43918094D01*
X37886819Y-43918094D02*
X37886819Y-43679999D01*
X37886819Y-43679999D02*
X37934438Y-43537142D01*
X37934438Y-43537142D02*
X38029676Y-43441904D01*
X38029676Y-43441904D02*
X38124914Y-43394285D01*
X38124914Y-43394285D02*
X38315390Y-43346666D01*
X38315390Y-43346666D02*
X38458247Y-43346666D01*
X38458247Y-43346666D02*
X38648723Y-43394285D01*
X38648723Y-43394285D02*
X38743961Y-43441904D01*
X38743961Y-43441904D02*
X38839200Y-43537142D01*
X38839200Y-43537142D02*
X38886819Y-43679999D01*
X38886819Y-43679999D02*
X38886819Y-43918094D01*
X38886819Y-42394285D02*
X38886819Y-42965713D01*
X38886819Y-42679999D02*
X37886819Y-42679999D01*
X37886819Y-42679999D02*
X38029676Y-42775237D01*
X38029676Y-42775237D02*
X38124914Y-42870475D01*
X38124914Y-42870475D02*
X38172533Y-42965713D01*
X39456819Y-49791904D02*
X38456819Y-49791904D01*
X39456819Y-49220476D02*
X38885390Y-49649047D01*
X38456819Y-49220476D02*
X39028247Y-49791904D01*
X96523200Y-65035332D02*
X96570819Y-64892475D01*
X96570819Y-64892475D02*
X96570819Y-64654380D01*
X96570819Y-64654380D02*
X96523200Y-64559142D01*
X96523200Y-64559142D02*
X96475580Y-64511523D01*
X96475580Y-64511523D02*
X96380342Y-64463904D01*
X96380342Y-64463904D02*
X96285104Y-64463904D01*
X96285104Y-64463904D02*
X96189866Y-64511523D01*
X96189866Y-64511523D02*
X96142247Y-64559142D01*
X96142247Y-64559142D02*
X96094628Y-64654380D01*
X96094628Y-64654380D02*
X96047009Y-64844856D01*
X96047009Y-64844856D02*
X95999390Y-64940094D01*
X95999390Y-64940094D02*
X95951771Y-64987713D01*
X95951771Y-64987713D02*
X95856533Y-65035332D01*
X95856533Y-65035332D02*
X95761295Y-65035332D01*
X95761295Y-65035332D02*
X95666057Y-64987713D01*
X95666057Y-64987713D02*
X95618438Y-64940094D01*
X95618438Y-64940094D02*
X95570819Y-64844856D01*
X95570819Y-64844856D02*
X95570819Y-64606761D01*
X95570819Y-64606761D02*
X95618438Y-64463904D01*
X95570819Y-64130570D02*
X96570819Y-63892475D01*
X96570819Y-63892475D02*
X95856533Y-63701999D01*
X95856533Y-63701999D02*
X96570819Y-63511523D01*
X96570819Y-63511523D02*
X95570819Y-63273428D01*
X95666057Y-62940094D02*
X95618438Y-62892475D01*
X95618438Y-62892475D02*
X95570819Y-62797237D01*
X95570819Y-62797237D02*
X95570819Y-62559142D01*
X95570819Y-62559142D02*
X95618438Y-62463904D01*
X95618438Y-62463904D02*
X95666057Y-62416285D01*
X95666057Y-62416285D02*
X95761295Y-62368666D01*
X95761295Y-62368666D02*
X95856533Y-62368666D01*
X95856533Y-62368666D02*
X95999390Y-62416285D01*
X95999390Y-62416285D02*
X96570819Y-62987713D01*
X96570819Y-62987713D02*
X96570819Y-62368666D01*
X61244819Y-37250666D02*
X60768628Y-37583999D01*
X61244819Y-37822094D02*
X60244819Y-37822094D01*
X60244819Y-37822094D02*
X60244819Y-37441142D01*
X60244819Y-37441142D02*
X60292438Y-37345904D01*
X60292438Y-37345904D02*
X60340057Y-37298285D01*
X60340057Y-37298285D02*
X60435295Y-37250666D01*
X60435295Y-37250666D02*
X60578152Y-37250666D01*
X60578152Y-37250666D02*
X60673390Y-37298285D01*
X60673390Y-37298285D02*
X60721009Y-37345904D01*
X60721009Y-37345904D02*
X60768628Y-37441142D01*
X60768628Y-37441142D02*
X60768628Y-37822094D01*
X60578152Y-36393523D02*
X61244819Y-36393523D01*
X60197200Y-36631618D02*
X60911485Y-36869713D01*
X60911485Y-36869713D02*
X60911485Y-36250666D01*
X124413333Y-44314819D02*
X124080000Y-43838628D01*
X123841905Y-44314819D02*
X123841905Y-43314819D01*
X123841905Y-43314819D02*
X124222857Y-43314819D01*
X124222857Y-43314819D02*
X124318095Y-43362438D01*
X124318095Y-43362438D02*
X124365714Y-43410057D01*
X124365714Y-43410057D02*
X124413333Y-43505295D01*
X124413333Y-43505295D02*
X124413333Y-43648152D01*
X124413333Y-43648152D02*
X124365714Y-43743390D01*
X124365714Y-43743390D02*
X124318095Y-43791009D01*
X124318095Y-43791009D02*
X124222857Y-43838628D01*
X124222857Y-43838628D02*
X123841905Y-43838628D01*
X125365714Y-44314819D02*
X124794286Y-44314819D01*
X125080000Y-44314819D02*
X125080000Y-43314819D01*
X125080000Y-43314819D02*
X124984762Y-43457676D01*
X124984762Y-43457676D02*
X124889524Y-43552914D01*
X124889524Y-43552914D02*
X124794286Y-43600533D01*
X67904333Y-70220819D02*
X67571000Y-69744628D01*
X67332905Y-70220819D02*
X67332905Y-69220819D01*
X67332905Y-69220819D02*
X67713857Y-69220819D01*
X67713857Y-69220819D02*
X67809095Y-69268438D01*
X67809095Y-69268438D02*
X67856714Y-69316057D01*
X67856714Y-69316057D02*
X67904333Y-69411295D01*
X67904333Y-69411295D02*
X67904333Y-69554152D01*
X67904333Y-69554152D02*
X67856714Y-69649390D01*
X67856714Y-69649390D02*
X67809095Y-69697009D01*
X67809095Y-69697009D02*
X67713857Y-69744628D01*
X67713857Y-69744628D02*
X67332905Y-69744628D01*
X68237667Y-69220819D02*
X68904333Y-69220819D01*
X68904333Y-69220819D02*
X68475762Y-70220819D01*
D12*
%TO.C,RV1*%
X119905526Y-67964621D02*
G75*
G02*
X122020000Y-58814001I3388474J4036621D01*
G01*
X124568881Y-69042390D02*
G75*
G02*
X122288000Y-69102000I-1274881J5114390D01*
G01*
X124834799Y-58888274D02*
G75*
G02*
X128564000Y-63928000I-1540799J-5039726D01*
G01*
X128563358Y-63835970D02*
G75*
G02*
X126955000Y-67719000I-5269358J-92030D01*
G01*
%TO.C,J1*%
X34014000Y-70876000D02*
X34014000Y-80296000D01*
X34014000Y-70876000D02*
X35674000Y-70876000D01*
X34014000Y-76986000D02*
X43244000Y-76986000D01*
X34014000Y-80296000D02*
X43244000Y-80296000D01*
X36424000Y-69586000D02*
X37024000Y-69586000D01*
X36724000Y-70186000D02*
X36424000Y-69586000D01*
X37024000Y-69586000D02*
X36724000Y-70186000D01*
X37774000Y-70876000D02*
X39484000Y-70876000D01*
X43244000Y-70876000D02*
X41584000Y-70876000D01*
X43244000Y-80296000D02*
X43244000Y-70876000D01*
%TO.C,R2*%
X108040000Y-46230000D02*
X108810000Y-46230000D01*
X108810000Y-44860000D02*
X108810000Y-47600000D01*
X108810000Y-47600000D02*
X115350000Y-47600000D01*
X115350000Y-44860000D02*
X108810000Y-44860000D01*
X115350000Y-47600000D02*
X115350000Y-44860000D01*
X116120000Y-46230000D02*
X115350000Y-46230000D01*
%TO.C,U1*%
X95876000Y-30180000D02*
X97076000Y-30180000D01*
X95876000Y-31380000D02*
X95876000Y-30180000D01*
X96236000Y-30540000D02*
X96236000Y-43760000D01*
X96236000Y-43760000D02*
X106456000Y-43760000D01*
X106456000Y-30540000D02*
X96236000Y-30540000D01*
X106456000Y-43760000D02*
X106456000Y-30540000D01*
%TO.C,J2*%
X45184000Y-70876000D02*
X45184000Y-80296000D01*
X45184000Y-70876000D02*
X46844000Y-70876000D01*
X45184000Y-76986000D02*
X54414000Y-76986000D01*
X45184000Y-80296000D02*
X54414000Y-80296000D01*
X47594000Y-69586000D02*
X48194000Y-69586000D01*
X47894000Y-70186000D02*
X47594000Y-69586000D01*
X48194000Y-69586000D02*
X47894000Y-70186000D01*
X48944000Y-70876000D02*
X50654000Y-70876000D01*
X54414000Y-70876000D02*
X52754000Y-70876000D01*
X54414000Y-80296000D02*
X54414000Y-70876000D01*
%TO.C,C1*%
X47448000Y-63496000D02*
X47448000Y-63511000D01*
X47448000Y-63496000D02*
X51988000Y-63496000D01*
X47448000Y-65621000D02*
X47448000Y-65636000D01*
X47448000Y-65636000D02*
X51988000Y-65636000D01*
X51988000Y-63496000D02*
X51988000Y-63511000D01*
X51988000Y-65621000D02*
X51988000Y-65636000D01*
%TO.C,U5*%
X64669000Y-45680000D02*
X64669000Y-55920000D01*
X67800000Y-45680000D02*
X67800000Y-55920000D01*
X69310000Y-45680000D02*
X64669000Y-45680000D01*
X69310000Y-45680000D02*
X69310000Y-55920000D01*
X69310000Y-48950000D02*
X67800000Y-48950000D01*
X69310000Y-52651000D02*
X67800000Y-52651000D01*
X69310000Y-55920000D02*
X64669000Y-55920000D01*
%TO.C,R6*%
X61491000Y-76214000D02*
X62261000Y-76214000D01*
X62261000Y-74844000D02*
X62261000Y-77584000D01*
X62261000Y-77584000D02*
X68801000Y-77584000D01*
X68801000Y-74844000D02*
X62261000Y-74844000D01*
X68801000Y-77584000D02*
X68801000Y-74844000D01*
X69571000Y-76214000D02*
X68801000Y-76214000D01*
%TO.C,C3*%
X39523000Y-43713000D02*
X39523000Y-42647000D01*
X39563000Y-43948000D02*
X39563000Y-42412000D01*
X39603000Y-44128000D02*
X39603000Y-42232000D01*
X39643000Y-44278000D02*
X39643000Y-42082000D01*
X39683000Y-44409000D02*
X39683000Y-41951000D01*
X39723000Y-44526000D02*
X39723000Y-41834000D01*
X39763000Y-44633000D02*
X39763000Y-41727000D01*
X39803000Y-44732000D02*
X39803000Y-41628000D01*
X39843000Y-44825000D02*
X39843000Y-41535000D01*
X39883000Y-44911000D02*
X39883000Y-41449000D01*
X39923000Y-44993000D02*
X39923000Y-41367000D01*
X39963000Y-45070000D02*
X39963000Y-41290000D01*
X40003000Y-45144000D02*
X40003000Y-41216000D01*
X40043000Y-45214000D02*
X40043000Y-41146000D01*
X40083000Y-45282000D02*
X40083000Y-41078000D01*
X40123000Y-45346000D02*
X40123000Y-41014000D01*
X40163000Y-45408000D02*
X40163000Y-40952000D01*
X40203000Y-45467000D02*
X40203000Y-40893000D01*
X40243000Y-45525000D02*
X40243000Y-40835000D01*
X40283000Y-45580000D02*
X40283000Y-40780000D01*
X40323000Y-45634000D02*
X40323000Y-40726000D01*
X40363000Y-45685000D02*
X40363000Y-40675000D01*
X40403000Y-45736000D02*
X40403000Y-40624000D01*
X40443000Y-45784000D02*
X40443000Y-40576000D01*
X40483000Y-45831000D02*
X40483000Y-40529000D01*
X40523000Y-45877000D02*
X40523000Y-40483000D01*
X40563000Y-45921000D02*
X40563000Y-40439000D01*
X40603000Y-45964000D02*
X40603000Y-40396000D01*
X40643000Y-46006000D02*
X40643000Y-40354000D01*
X40683000Y-46047000D02*
X40683000Y-40313000D01*
X40723000Y-46087000D02*
X40723000Y-40273000D01*
X40763000Y-46125000D02*
X40763000Y-40235000D01*
X40803000Y-46163000D02*
X40803000Y-40197000D01*
X40843000Y-42140000D02*
X40843000Y-40161000D01*
X40843000Y-46199000D02*
X40843000Y-44220000D01*
X40883000Y-42140000D02*
X40883000Y-40125000D01*
X40883000Y-46235000D02*
X40883000Y-44220000D01*
X40923000Y-42140000D02*
X40923000Y-40090000D01*
X40923000Y-46270000D02*
X40923000Y-44220000D01*
X40963000Y-42140000D02*
X40963000Y-40056000D01*
X40963000Y-46304000D02*
X40963000Y-44220000D01*
X41003000Y-42140000D02*
X41003000Y-40024000D01*
X41003000Y-46336000D02*
X41003000Y-44220000D01*
X41043000Y-42140000D02*
X41043000Y-39991000D01*
X41043000Y-46369000D02*
X41043000Y-44220000D01*
X41083000Y-42140000D02*
X41083000Y-39960000D01*
X41083000Y-46400000D02*
X41083000Y-44220000D01*
X41123000Y-42140000D02*
X41123000Y-39930000D01*
X41123000Y-46430000D02*
X41123000Y-44220000D01*
X41163000Y-42140000D02*
X41163000Y-39900000D01*
X41163000Y-46460000D02*
X41163000Y-44220000D01*
X41203000Y-42140000D02*
X41203000Y-39871000D01*
X41203000Y-46489000D02*
X41203000Y-44220000D01*
X41243000Y-42140000D02*
X41243000Y-39842000D01*
X41243000Y-46518000D02*
X41243000Y-44220000D01*
X41283000Y-42140000D02*
X41283000Y-39815000D01*
X41283000Y-46545000D02*
X41283000Y-44220000D01*
X41323000Y-42140000D02*
X41323000Y-39788000D01*
X41323000Y-46572000D02*
X41323000Y-44220000D01*
X41363000Y-42140000D02*
X41363000Y-39762000D01*
X41363000Y-46598000D02*
X41363000Y-44220000D01*
X41403000Y-42140000D02*
X41403000Y-39736000D01*
X41403000Y-46624000D02*
X41403000Y-44220000D01*
X41443000Y-42140000D02*
X41443000Y-39711000D01*
X41443000Y-46649000D02*
X41443000Y-44220000D01*
X41483000Y-42140000D02*
X41483000Y-39687000D01*
X41483000Y-46673000D02*
X41483000Y-44220000D01*
X41523000Y-42140000D02*
X41523000Y-39663000D01*
X41523000Y-46697000D02*
X41523000Y-44220000D01*
X41563000Y-42140000D02*
X41563000Y-39640000D01*
X41563000Y-46720000D02*
X41563000Y-44220000D01*
X41603000Y-42140000D02*
X41603000Y-39618000D01*
X41603000Y-46742000D02*
X41603000Y-44220000D01*
X41643000Y-42140000D02*
X41643000Y-39596000D01*
X41643000Y-46764000D02*
X41643000Y-44220000D01*
X41683000Y-42140000D02*
X41683000Y-39574000D01*
X41683000Y-46786000D02*
X41683000Y-44220000D01*
X41723000Y-42140000D02*
X41723000Y-39553000D01*
X41723000Y-46807000D02*
X41723000Y-44220000D01*
X41763000Y-42140000D02*
X41763000Y-39533000D01*
X41763000Y-46827000D02*
X41763000Y-44220000D01*
X41803000Y-42140000D02*
X41803000Y-39514000D01*
X41803000Y-46846000D02*
X41803000Y-44220000D01*
X41843000Y-42140000D02*
X41843000Y-39494000D01*
X41843000Y-46866000D02*
X41843000Y-44220000D01*
X41883000Y-42140000D02*
X41883000Y-39476000D01*
X41883000Y-46884000D02*
X41883000Y-44220000D01*
X41923000Y-42140000D02*
X41923000Y-39458000D01*
X41923000Y-46902000D02*
X41923000Y-44220000D01*
X41963000Y-42140000D02*
X41963000Y-39440000D01*
X41963000Y-46920000D02*
X41963000Y-44220000D01*
X42003000Y-42140000D02*
X42003000Y-39423000D01*
X42003000Y-46937000D02*
X42003000Y-44220000D01*
X42043000Y-42140000D02*
X42043000Y-39406000D01*
X42043000Y-46954000D02*
X42043000Y-44220000D01*
X42083000Y-42140000D02*
X42083000Y-39390000D01*
X42083000Y-46970000D02*
X42083000Y-44220000D01*
X42123000Y-42140000D02*
X42123000Y-39375000D01*
X42123000Y-46985000D02*
X42123000Y-44220000D01*
X42163000Y-42140000D02*
X42163000Y-39359000D01*
X42163000Y-47001000D02*
X42163000Y-44220000D01*
X42203000Y-42140000D02*
X42203000Y-39345000D01*
X42203000Y-47015000D02*
X42203000Y-44220000D01*
X42243000Y-42140000D02*
X42243000Y-39330000D01*
X42243000Y-47030000D02*
X42243000Y-44220000D01*
X42283000Y-42140000D02*
X42283000Y-39317000D01*
X42283000Y-47043000D02*
X42283000Y-44220000D01*
X42323000Y-42140000D02*
X42323000Y-39303000D01*
X42323000Y-47057000D02*
X42323000Y-44220000D01*
X42363000Y-42140000D02*
X42363000Y-39291000D01*
X42363000Y-47069000D02*
X42363000Y-44220000D01*
X42403000Y-42140000D02*
X42403000Y-39278000D01*
X42403000Y-47082000D02*
X42403000Y-44220000D01*
X42443000Y-42140000D02*
X42443000Y-39266000D01*
X42443000Y-47094000D02*
X42443000Y-44220000D01*
X42483000Y-42140000D02*
X42483000Y-39255000D01*
X42483000Y-47105000D02*
X42483000Y-44220000D01*
X42523000Y-42140000D02*
X42523000Y-39244000D01*
X42523000Y-47116000D02*
X42523000Y-44220000D01*
X42563000Y-42140000D02*
X42563000Y-39233000D01*
X42563000Y-47127000D02*
X42563000Y-44220000D01*
X42603000Y-42140000D02*
X42603000Y-39223000D01*
X42603000Y-47137000D02*
X42603000Y-44220000D01*
X42643000Y-42140000D02*
X42643000Y-39213000D01*
X42643000Y-47147000D02*
X42643000Y-44220000D01*
X42683000Y-42140000D02*
X42683000Y-39204000D01*
X42683000Y-47156000D02*
X42683000Y-44220000D01*
X42723000Y-42140000D02*
X42723000Y-39195000D01*
X42723000Y-47165000D02*
X42723000Y-44220000D01*
X42763000Y-42140000D02*
X42763000Y-39186000D01*
X42763000Y-47174000D02*
X42763000Y-44220000D01*
X42803000Y-42140000D02*
X42803000Y-39178000D01*
X42803000Y-47182000D02*
X42803000Y-44220000D01*
X42843000Y-42140000D02*
X42843000Y-39170000D01*
X42843000Y-47190000D02*
X42843000Y-44220000D01*
X42883000Y-42140000D02*
X42883000Y-39163000D01*
X42883000Y-47197000D02*
X42883000Y-44220000D01*
X42924000Y-47204000D02*
X42924000Y-39156000D01*
X42964000Y-47210000D02*
X42964000Y-39150000D01*
X43004000Y-47217000D02*
X43004000Y-39143000D01*
X43044000Y-47222000D02*
X43044000Y-39138000D01*
X43084000Y-47228000D02*
X43084000Y-39132000D01*
X43124000Y-47232000D02*
X43124000Y-39128000D01*
X43164000Y-47237000D02*
X43164000Y-39123000D01*
X43204000Y-47241000D02*
X43204000Y-39119000D01*
X43244000Y-47245000D02*
X43244000Y-39115000D01*
X43284000Y-47248000D02*
X43284000Y-39112000D01*
X43324000Y-47251000D02*
X43324000Y-39109000D01*
X43364000Y-47254000D02*
X43364000Y-39106000D01*
X43404000Y-47256000D02*
X43404000Y-39104000D01*
X43444000Y-47257000D02*
X43444000Y-39103000D01*
X43484000Y-47259000D02*
X43484000Y-39101000D01*
X43524000Y-47260000D02*
X43524000Y-39100000D01*
X43564000Y-47260000D02*
X43564000Y-39100000D01*
X43604000Y-47260000D02*
X43604000Y-39100000D01*
X47613698Y-45895000D02*
X47613698Y-45095000D01*
X48013698Y-45495000D02*
X47213698Y-45495000D01*
X47724000Y-43180000D02*
G75*
G02*
X39484000Y-43180000I-4120000J0D01*
G01*
X39484000Y-43180000D02*
G75*
G02*
X47724000Y-43180000I4120000J0D01*
G01*
%TO.C,D2*%
X92510000Y-70432000D02*
X92510000Y-75872000D01*
X92510000Y-75872000D02*
X95450000Y-75872000D01*
X93980000Y-69412000D02*
X93980000Y-70432000D01*
X93980000Y-76892000D02*
X93980000Y-75872000D01*
X95450000Y-70432000D02*
X92510000Y-70432000D01*
X95450000Y-71212000D02*
X92510000Y-71212000D01*
X95450000Y-71332000D02*
X92510000Y-71332000D01*
X95450000Y-71452000D02*
X92510000Y-71452000D01*
X95450000Y-75872000D02*
X95450000Y-70432000D01*
%TO.C,R8*%
X56920000Y-24384000D02*
X57690000Y-24384000D01*
X57690000Y-23014000D02*
X57690000Y-25754000D01*
X57690000Y-25754000D02*
X64230000Y-25754000D01*
X64230000Y-23014000D02*
X57690000Y-23014000D01*
X64230000Y-25754000D02*
X64230000Y-23014000D01*
X65000000Y-24384000D02*
X64230000Y-24384000D01*
%TO.C,A1*%
X70736000Y-23492000D02*
X70736000Y-66932000D01*
X70736000Y-23492000D02*
X75816000Y-23492000D01*
X70736000Y-66932000D02*
X88776000Y-66932000D01*
X73406000Y-26162000D02*
X70736000Y-26162000D01*
X73406000Y-64262000D02*
X70736000Y-64262000D01*
X73406000Y-64262000D02*
X73406000Y-26162000D01*
X75816000Y-20952000D02*
X83696000Y-20952000D01*
X75816000Y-31372000D02*
X75816000Y-20952000D01*
X83696000Y-20952000D02*
X83696000Y-31372000D01*
X83696000Y-31372000D02*
X75816000Y-31372000D01*
X86106000Y-26162000D02*
X88776000Y-26162000D01*
X86106000Y-61722000D02*
X86106000Y-26162000D01*
X86106000Y-61722000D02*
X86106000Y-64262000D01*
X86106000Y-61722000D02*
X88776000Y-61722000D01*
X86106000Y-64262000D02*
X88776000Y-64262000D01*
X88776000Y-23492000D02*
X83696000Y-23492000D01*
X88776000Y-61722000D02*
X88776000Y-23492000D01*
X88776000Y-66932000D02*
X88776000Y-64262000D01*
%TO.C,R5*%
X33606000Y-50134000D02*
X33606000Y-64674000D01*
X33606000Y-64674000D02*
X39546000Y-64674000D01*
X36576000Y-48884000D02*
X36576000Y-50134000D01*
X36576000Y-65924000D02*
X36576000Y-64674000D01*
X39546000Y-50134000D02*
X33606000Y-50134000D01*
X39546000Y-64674000D02*
X39546000Y-50134000D01*
%TO.C,J4*%
X43294000Y-22522000D02*
X52494000Y-22522000D01*
X43294000Y-31122000D02*
X43294000Y-22522000D01*
X43294000Y-37022000D02*
X43294000Y-35722000D01*
X45294000Y-37022000D02*
X43294000Y-37022000D01*
X51094000Y-37322000D02*
X52794000Y-37322000D01*
X52494000Y-22522000D02*
X52494000Y-37022000D01*
X52494000Y-37022000D02*
X50494000Y-37022000D01*
X52794000Y-37322000D02*
X52794000Y-36022000D01*
%TO.C,U3*%
X119486000Y-30180000D02*
X120686000Y-30180000D01*
X119486000Y-31380000D02*
X119486000Y-30180000D01*
X119846000Y-30540000D02*
X119846000Y-43760000D01*
X119846000Y-43760000D02*
X130066000Y-43760000D01*
X130066000Y-30540000D02*
X119846000Y-30540000D01*
X130066000Y-43760000D02*
X130066000Y-30540000D01*
%TO.C,Q2*%
X74273000Y-70643000D02*
X74273000Y-77063000D01*
X74273000Y-77063000D02*
X74543000Y-77063000D01*
X81173000Y-70643000D02*
X81173000Y-77063000D01*
X81173000Y-77063000D02*
X80903000Y-77063000D01*
X74583000Y-78793000D02*
X74113000Y-79133000D01*
X74113000Y-78453000D01*
X74583000Y-78793000D01*
G36*
X74583000Y-78793000D02*
G01*
X74113000Y-79133000D01*
X74113000Y-78453000D01*
X74583000Y-78793000D01*
G37*
%TO.C,C5*%
X63975000Y-62346000D02*
X63975000Y-61606000D01*
X64015000Y-62513000D02*
X64015000Y-61439000D01*
X64055000Y-62640000D02*
X64055000Y-61312000D01*
X64095000Y-62744000D02*
X64095000Y-61208000D01*
X64135000Y-62835000D02*
X64135000Y-61117000D01*
X64175000Y-62916000D02*
X64175000Y-61036000D01*
X64215000Y-62989000D02*
X64215000Y-60963000D01*
X64255000Y-61136000D02*
X64255000Y-60896000D01*
X64255000Y-63056000D02*
X64255000Y-62816000D01*
X64295000Y-61136000D02*
X64295000Y-60834000D01*
X64295000Y-63118000D02*
X64295000Y-62816000D01*
X64335000Y-61136000D02*
X64335000Y-60776000D01*
X64335000Y-63176000D02*
X64335000Y-62816000D01*
X64375000Y-61136000D02*
X64375000Y-60722000D01*
X64375000Y-63230000D02*
X64375000Y-62816000D01*
X64415000Y-61136000D02*
X64415000Y-60672000D01*
X64415000Y-63280000D02*
X64415000Y-62816000D01*
X64455000Y-61136000D02*
X64455000Y-60625000D01*
X64455000Y-63327000D02*
X64455000Y-62816000D01*
X64495000Y-61136000D02*
X64495000Y-60580000D01*
X64495000Y-63372000D02*
X64495000Y-62816000D01*
X64535000Y-61136000D02*
X64535000Y-60538000D01*
X64535000Y-63414000D02*
X64535000Y-62816000D01*
X64575000Y-61136000D02*
X64575000Y-60498000D01*
X64575000Y-63454000D02*
X64575000Y-62816000D01*
X64615000Y-61136000D02*
X64615000Y-60460000D01*
X64615000Y-63492000D02*
X64615000Y-62816000D01*
X64655000Y-61136000D02*
X64655000Y-60424000D01*
X64655000Y-63528000D02*
X64655000Y-62816000D01*
X64695000Y-61136000D02*
X64695000Y-60389000D01*
X64695000Y-63563000D02*
X64695000Y-62816000D01*
X64735000Y-61136000D02*
X64735000Y-60357000D01*
X64735000Y-63595000D02*
X64735000Y-62816000D01*
X64775000Y-61136000D02*
X64775000Y-60326000D01*
X64775000Y-63626000D02*
X64775000Y-62816000D01*
X64815000Y-61136000D02*
X64815000Y-60296000D01*
X64815000Y-63656000D02*
X64815000Y-62816000D01*
X64855000Y-61136000D02*
X64855000Y-60268000D01*
X64855000Y-63684000D02*
X64855000Y-62816000D01*
X64895000Y-61136000D02*
X64895000Y-60241000D01*
X64895000Y-63711000D02*
X64895000Y-62816000D01*
X64935000Y-61136000D02*
X64935000Y-60216000D01*
X64935000Y-63736000D02*
X64935000Y-62816000D01*
X64975000Y-61136000D02*
X64975000Y-60191000D01*
X64975000Y-63761000D02*
X64975000Y-62816000D01*
X65015000Y-61136000D02*
X65015000Y-60168000D01*
X65015000Y-63784000D02*
X65015000Y-62816000D01*
X65055000Y-61136000D02*
X65055000Y-60146000D01*
X65055000Y-63806000D02*
X65055000Y-62816000D01*
X65095000Y-61136000D02*
X65095000Y-60125000D01*
X65095000Y-63827000D02*
X65095000Y-62816000D01*
X65135000Y-61136000D02*
X65135000Y-60106000D01*
X65135000Y-63846000D02*
X65135000Y-62816000D01*
X65175000Y-61136000D02*
X65175000Y-60087000D01*
X65175000Y-63865000D02*
X65175000Y-62816000D01*
X65215000Y-61136000D02*
X65215000Y-60069000D01*
X65215000Y-63883000D02*
X65215000Y-62816000D01*
X65255000Y-61136000D02*
X65255000Y-60052000D01*
X65255000Y-63900000D02*
X65255000Y-62816000D01*
X65295000Y-61136000D02*
X65295000Y-60036000D01*
X65295000Y-63916000D02*
X65295000Y-62816000D01*
X65335000Y-61136000D02*
X65335000Y-60022000D01*
X65335000Y-63930000D02*
X65335000Y-62816000D01*
X65376000Y-61136000D02*
X65376000Y-60008000D01*
X65376000Y-63944000D02*
X65376000Y-62816000D01*
X65416000Y-61136000D02*
X65416000Y-59994000D01*
X65416000Y-63958000D02*
X65416000Y-62816000D01*
X65456000Y-61136000D02*
X65456000Y-59982000D01*
X65456000Y-63970000D02*
X65456000Y-62816000D01*
X65496000Y-61136000D02*
X65496000Y-59971000D01*
X65496000Y-63981000D02*
X65496000Y-62816000D01*
X65536000Y-61136000D02*
X65536000Y-59960000D01*
X65536000Y-63992000D02*
X65536000Y-62816000D01*
X65576000Y-61136000D02*
X65576000Y-59951000D01*
X65576000Y-64001000D02*
X65576000Y-62816000D01*
X65616000Y-61136000D02*
X65616000Y-59942000D01*
X65616000Y-64010000D02*
X65616000Y-62816000D01*
X65656000Y-61136000D02*
X65656000Y-59934000D01*
X65656000Y-64018000D02*
X65656000Y-62816000D01*
X65696000Y-61136000D02*
X65696000Y-59926000D01*
X65696000Y-64026000D02*
X65696000Y-62816000D01*
X65736000Y-61136000D02*
X65736000Y-59920000D01*
X65736000Y-64032000D02*
X65736000Y-62816000D01*
X65776000Y-61136000D02*
X65776000Y-59914000D01*
X65776000Y-64038000D02*
X65776000Y-62816000D01*
X65816000Y-61136000D02*
X65816000Y-59909000D01*
X65816000Y-64043000D02*
X65816000Y-62816000D01*
X65856000Y-61136000D02*
X65856000Y-59905000D01*
X65856000Y-64047000D02*
X65856000Y-62816000D01*
X65896000Y-64050000D02*
X65896000Y-59902000D01*
X65936000Y-64053000D02*
X65936000Y-59899000D01*
X65976000Y-64055000D02*
X65976000Y-59897000D01*
X66016000Y-64056000D02*
X66016000Y-59896000D01*
X66056000Y-64056000D02*
X66056000Y-59896000D01*
X68125801Y-63371000D02*
X68125801Y-62971000D01*
X68325801Y-63171000D02*
X67925801Y-63171000D01*
X68176000Y-61976000D02*
G75*
G02*
X63936000Y-61976000I-2120000J0D01*
G01*
X63936000Y-61976000D02*
G75*
G02*
X68176000Y-61976000I2120000J0D01*
G01*
%TO.C,C4*%
X63302000Y-37030000D02*
X63302000Y-37045000D01*
X63302000Y-37030000D02*
X67842000Y-37030000D01*
X63302000Y-39155000D02*
X63302000Y-39170000D01*
X63302000Y-39170000D02*
X67842000Y-39170000D01*
X67842000Y-37030000D02*
X67842000Y-37045000D01*
X67842000Y-39155000D02*
X67842000Y-39170000D01*
%TO.C,Q1*%
X33306000Y-29932000D02*
X37947000Y-29932000D01*
X33306000Y-33201000D02*
X34816000Y-33201000D01*
X33306000Y-36902000D02*
X34816000Y-36902000D01*
X33306000Y-40172000D02*
X33306000Y-29932000D01*
X33306000Y-40172000D02*
X37947000Y-40172000D01*
X34816000Y-40172000D02*
X34816000Y-29932000D01*
X37947000Y-40172000D02*
X37947000Y-29932000D01*
%TO.C,C2*%
X55318000Y-72366000D02*
X55333000Y-72366000D01*
X55318000Y-76906000D02*
X55318000Y-72366000D01*
X55318000Y-76906000D02*
X55333000Y-76906000D01*
X57443000Y-72366000D02*
X57458000Y-72366000D01*
X57443000Y-76906000D02*
X57458000Y-76906000D01*
X57458000Y-76906000D02*
X57458000Y-72366000D01*
D13*
%TO.C,U4*%
X61976000Y-36144200D02*
X68300600Y-36144200D01*
X68580000Y-26339800D02*
X61976000Y-26339800D01*
D12*
%TO.C,L1*%
X56936000Y-55880000D02*
G75*
G02*
X46696000Y-55880000I-5120000J0D01*
G01*
X46696000Y-55880000D02*
G75*
G02*
X56936000Y-55880000I5120000J0D01*
G01*
%TO.C,C6*%
X47774302Y-40915000D02*
X48574302Y-40915000D01*
X48174302Y-40515000D02*
X48174302Y-41315000D01*
X52184000Y-39150000D02*
X52184000Y-47310000D01*
X52224000Y-39150000D02*
X52224000Y-47310000D01*
X52264000Y-39150000D02*
X52264000Y-47310000D01*
X52304000Y-39151000D02*
X52304000Y-47309000D01*
X52344000Y-39153000D02*
X52344000Y-47307000D01*
X52384000Y-39154000D02*
X52384000Y-47306000D01*
X52424000Y-39156000D02*
X52424000Y-47304000D01*
X52464000Y-39159000D02*
X52464000Y-47301000D01*
X52504000Y-39162000D02*
X52504000Y-47298000D01*
X52544000Y-39165000D02*
X52544000Y-47295000D01*
X52584000Y-39169000D02*
X52584000Y-47291000D01*
X52624000Y-39173000D02*
X52624000Y-47287000D01*
X52664000Y-39178000D02*
X52664000Y-47282000D01*
X52704000Y-39182000D02*
X52704000Y-47278000D01*
X52744000Y-39188000D02*
X52744000Y-47272000D01*
X52784000Y-39193000D02*
X52784000Y-47267000D01*
X52824000Y-39200000D02*
X52824000Y-47260000D01*
X52864000Y-39206000D02*
X52864000Y-47254000D01*
X52905000Y-39213000D02*
X52905000Y-42190000D01*
X52905000Y-44270000D02*
X52905000Y-47247000D01*
X52945000Y-39220000D02*
X52945000Y-42190000D01*
X52945000Y-44270000D02*
X52945000Y-47240000D01*
X52985000Y-39228000D02*
X52985000Y-42190000D01*
X52985000Y-44270000D02*
X52985000Y-47232000D01*
X53025000Y-39236000D02*
X53025000Y-42190000D01*
X53025000Y-44270000D02*
X53025000Y-47224000D01*
X53065000Y-39245000D02*
X53065000Y-42190000D01*
X53065000Y-44270000D02*
X53065000Y-47215000D01*
X53105000Y-39254000D02*
X53105000Y-42190000D01*
X53105000Y-44270000D02*
X53105000Y-47206000D01*
X53145000Y-39263000D02*
X53145000Y-42190000D01*
X53145000Y-44270000D02*
X53145000Y-47197000D01*
X53185000Y-39273000D02*
X53185000Y-42190000D01*
X53185000Y-44270000D02*
X53185000Y-47187000D01*
X53225000Y-39283000D02*
X53225000Y-42190000D01*
X53225000Y-44270000D02*
X53225000Y-47177000D01*
X53265000Y-39294000D02*
X53265000Y-42190000D01*
X53265000Y-44270000D02*
X53265000Y-47166000D01*
X53305000Y-39305000D02*
X53305000Y-42190000D01*
X53305000Y-44270000D02*
X53305000Y-47155000D01*
X53345000Y-39316000D02*
X53345000Y-42190000D01*
X53345000Y-44270000D02*
X53345000Y-47144000D01*
X53385000Y-39328000D02*
X53385000Y-42190000D01*
X53385000Y-44270000D02*
X53385000Y-47132000D01*
X53425000Y-39341000D02*
X53425000Y-42190000D01*
X53425000Y-44270000D02*
X53425000Y-47119000D01*
X53465000Y-39353000D02*
X53465000Y-42190000D01*
X53465000Y-44270000D02*
X53465000Y-47107000D01*
X53505000Y-39367000D02*
X53505000Y-42190000D01*
X53505000Y-44270000D02*
X53505000Y-47093000D01*
X53545000Y-39380000D02*
X53545000Y-42190000D01*
X53545000Y-44270000D02*
X53545000Y-47080000D01*
X53585000Y-39395000D02*
X53585000Y-42190000D01*
X53585000Y-44270000D02*
X53585000Y-47065000D01*
X53625000Y-39409000D02*
X53625000Y-42190000D01*
X53625000Y-44270000D02*
X53625000Y-47051000D01*
X53665000Y-39425000D02*
X53665000Y-42190000D01*
X53665000Y-44270000D02*
X53665000Y-47035000D01*
X53705000Y-39440000D02*
X53705000Y-42190000D01*
X53705000Y-44270000D02*
X53705000Y-47020000D01*
X53745000Y-39456000D02*
X53745000Y-42190000D01*
X53745000Y-44270000D02*
X53745000Y-47004000D01*
X53785000Y-39473000D02*
X53785000Y-42190000D01*
X53785000Y-44270000D02*
X53785000Y-46987000D01*
X53825000Y-39490000D02*
X53825000Y-42190000D01*
X53825000Y-44270000D02*
X53825000Y-46970000D01*
X53865000Y-39508000D02*
X53865000Y-42190000D01*
X53865000Y-44270000D02*
X53865000Y-46952000D01*
X53905000Y-39526000D02*
X53905000Y-42190000D01*
X53905000Y-44270000D02*
X53905000Y-46934000D01*
X53945000Y-39544000D02*
X53945000Y-42190000D01*
X53945000Y-44270000D02*
X53945000Y-46916000D01*
X53985000Y-39564000D02*
X53985000Y-42190000D01*
X53985000Y-44270000D02*
X53985000Y-46896000D01*
X54025000Y-39583000D02*
X54025000Y-42190000D01*
X54025000Y-44270000D02*
X54025000Y-46877000D01*
X54065000Y-39603000D02*
X54065000Y-42190000D01*
X54065000Y-44270000D02*
X54065000Y-46857000D01*
X54105000Y-39624000D02*
X54105000Y-42190000D01*
X54105000Y-44270000D02*
X54105000Y-46836000D01*
X54145000Y-39646000D02*
X54145000Y-42190000D01*
X54145000Y-44270000D02*
X54145000Y-46814000D01*
X54185000Y-39668000D02*
X54185000Y-42190000D01*
X54185000Y-44270000D02*
X54185000Y-46792000D01*
X54225000Y-39690000D02*
X54225000Y-42190000D01*
X54225000Y-44270000D02*
X54225000Y-46770000D01*
X54265000Y-39713000D02*
X54265000Y-42190000D01*
X54265000Y-44270000D02*
X54265000Y-46747000D01*
X54305000Y-39737000D02*
X54305000Y-42190000D01*
X54305000Y-44270000D02*
X54305000Y-46723000D01*
X54345000Y-39761000D02*
X54345000Y-42190000D01*
X54345000Y-44270000D02*
X54345000Y-46699000D01*
X54385000Y-39786000D02*
X54385000Y-42190000D01*
X54385000Y-44270000D02*
X54385000Y-46674000D01*
X54425000Y-39812000D02*
X54425000Y-42190000D01*
X54425000Y-44270000D02*
X54425000Y-46648000D01*
X54465000Y-39838000D02*
X54465000Y-42190000D01*
X54465000Y-44270000D02*
X54465000Y-46622000D01*
X54505000Y-39865000D02*
X54505000Y-42190000D01*
X54505000Y-44270000D02*
X54505000Y-46595000D01*
X54545000Y-39892000D02*
X54545000Y-42190000D01*
X54545000Y-44270000D02*
X54545000Y-46568000D01*
X54585000Y-39921000D02*
X54585000Y-42190000D01*
X54585000Y-44270000D02*
X54585000Y-46539000D01*
X54625000Y-39950000D02*
X54625000Y-42190000D01*
X54625000Y-44270000D02*
X54625000Y-46510000D01*
X54665000Y-39980000D02*
X54665000Y-42190000D01*
X54665000Y-44270000D02*
X54665000Y-46480000D01*
X54705000Y-40010000D02*
X54705000Y-42190000D01*
X54705000Y-44270000D02*
X54705000Y-46450000D01*
X54745000Y-40041000D02*
X54745000Y-42190000D01*
X54745000Y-44270000D02*
X54745000Y-46419000D01*
X54785000Y-40074000D02*
X54785000Y-42190000D01*
X54785000Y-44270000D02*
X54785000Y-46386000D01*
X54825000Y-40106000D02*
X54825000Y-42190000D01*
X54825000Y-44270000D02*
X54825000Y-46354000D01*
X54865000Y-40140000D02*
X54865000Y-42190000D01*
X54865000Y-44270000D02*
X54865000Y-46320000D01*
X54905000Y-40175000D02*
X54905000Y-42190000D01*
X54905000Y-44270000D02*
X54905000Y-46285000D01*
X54945000Y-40211000D02*
X54945000Y-42190000D01*
X54945000Y-44270000D02*
X54945000Y-46249000D01*
X54985000Y-40247000D02*
X54985000Y-46213000D01*
X55025000Y-40285000D02*
X55025000Y-46175000D01*
X55065000Y-40323000D02*
X55065000Y-46137000D01*
X55105000Y-40363000D02*
X55105000Y-46097000D01*
X55145000Y-40404000D02*
X55145000Y-46056000D01*
X55185000Y-40446000D02*
X55185000Y-46014000D01*
X55225000Y-40489000D02*
X55225000Y-45971000D01*
X55265000Y-40533000D02*
X55265000Y-45927000D01*
X55305000Y-40579000D02*
X55305000Y-45881000D01*
X55345000Y-40626000D02*
X55345000Y-45834000D01*
X55385000Y-40674000D02*
X55385000Y-45786000D01*
X55425000Y-40725000D02*
X55425000Y-45735000D01*
X55465000Y-40776000D02*
X55465000Y-45684000D01*
X55505000Y-40830000D02*
X55505000Y-45630000D01*
X55545000Y-40885000D02*
X55545000Y-45575000D01*
X55585000Y-40943000D02*
X55585000Y-45517000D01*
X55625000Y-41002000D02*
X55625000Y-45458000D01*
X55665000Y-41064000D02*
X55665000Y-45396000D01*
X55705000Y-41128000D02*
X55705000Y-45332000D01*
X55745000Y-41196000D02*
X55745000Y-45264000D01*
X55785000Y-41266000D02*
X55785000Y-45194000D01*
X55825000Y-41340000D02*
X55825000Y-45120000D01*
X55865000Y-41417000D02*
X55865000Y-45043000D01*
X55905000Y-41499000D02*
X55905000Y-44961000D01*
X55945000Y-41585000D02*
X55945000Y-44875000D01*
X55985000Y-41678000D02*
X55985000Y-44782000D01*
X56025000Y-41777000D02*
X56025000Y-44683000D01*
X56065000Y-41884000D02*
X56065000Y-44576000D01*
X56105000Y-42001000D02*
X56105000Y-44459000D01*
X56145000Y-42132000D02*
X56145000Y-44328000D01*
X56185000Y-42282000D02*
X56185000Y-44178000D01*
X56225000Y-42462000D02*
X56225000Y-43998000D01*
X56265000Y-42697000D02*
X56265000Y-43763000D01*
X56304000Y-43230000D02*
G75*
G02*
X48064000Y-43230000I-4120000J0D01*
G01*
X48064000Y-43230000D02*
G75*
G02*
X56304000Y-43230000I4120000J0D01*
G01*
%TO.C,R3*%
X95340000Y-46230000D02*
X96110000Y-46230000D01*
X96110000Y-44860000D02*
X96110000Y-47600000D01*
X96110000Y-47600000D02*
X102650000Y-47600000D01*
X102650000Y-44860000D02*
X96110000Y-44860000D01*
X102650000Y-47600000D02*
X102650000Y-44860000D01*
X103420000Y-46230000D02*
X102650000Y-46230000D01*
%TO.C,SW1*%
X107784000Y-61452000D02*
X107784000Y-65952000D01*
X110284000Y-67202000D02*
X111784000Y-67202000D01*
X111784000Y-60202000D02*
X110284000Y-60202000D01*
X114284000Y-65952000D02*
X114284000Y-61452000D01*
%TO.C,U2*%
X107681000Y-30180000D02*
X108881000Y-30180000D01*
X107681000Y-31380000D02*
X107681000Y-30180000D01*
X108041000Y-30540000D02*
X108041000Y-43760000D01*
X108041000Y-43760000D02*
X118261000Y-43760000D01*
X118261000Y-30540000D02*
X108041000Y-30540000D01*
X118261000Y-43760000D02*
X118261000Y-30540000D01*
%TO.C,J3*%
X82378000Y-70318000D02*
X82378000Y-79738000D01*
X82378000Y-70318000D02*
X84038000Y-70318000D01*
X82378000Y-76428000D02*
X91608000Y-76428000D01*
X82378000Y-79738000D02*
X91608000Y-79738000D01*
X84788000Y-69028000D02*
X85388000Y-69028000D01*
X85088000Y-69628000D02*
X84788000Y-69028000D01*
X85388000Y-69028000D02*
X85088000Y-69628000D01*
X86138000Y-70318000D02*
X87848000Y-70318000D01*
X91608000Y-70318000D02*
X89948000Y-70318000D01*
X91608000Y-79738000D02*
X91608000Y-70318000D01*
%TO.C,D1*%
X40702000Y-53596000D02*
X40702000Y-62736000D01*
X40702000Y-61161000D02*
X44642000Y-61161000D01*
X40702000Y-61281000D02*
X44642000Y-61281000D01*
X40702000Y-61401000D02*
X44642000Y-61401000D01*
X40702000Y-62736000D02*
X44642000Y-62736000D01*
X42672000Y-53456000D02*
X42672000Y-53596000D01*
X42672000Y-62876000D02*
X42672000Y-62736000D01*
X44642000Y-53596000D02*
X40702000Y-53596000D01*
X44642000Y-62736000D02*
X44642000Y-53596000D01*
%TO.C,SW2*%
X97116000Y-61452000D02*
X97116000Y-65952000D01*
X99616000Y-67202000D02*
X101116000Y-67202000D01*
X101116000Y-60202000D02*
X99616000Y-60202000D01*
X103616000Y-65952000D02*
X103616000Y-61452000D01*
%TO.C,R4*%
X57050000Y-33814000D02*
X57050000Y-40354000D01*
X57050000Y-40354000D02*
X59790000Y-40354000D01*
X58420000Y-33044000D02*
X58420000Y-33814000D01*
X58420000Y-41124000D02*
X58420000Y-40354000D01*
X59790000Y-33814000D02*
X57050000Y-33814000D01*
X59790000Y-40354000D02*
X59790000Y-33814000D01*
%TO.C,R1*%
X120540000Y-46230000D02*
X121310000Y-46230000D01*
X121310000Y-44860000D02*
X121310000Y-47600000D01*
X121310000Y-47600000D02*
X127850000Y-47600000D01*
X127850000Y-44860000D02*
X121310000Y-44860000D01*
X127850000Y-47600000D02*
X127850000Y-44860000D01*
X128620000Y-46230000D02*
X127850000Y-46230000D01*
%TO.C,R7*%
X61491000Y-72136000D02*
X62261000Y-72136000D01*
X62261000Y-70766000D02*
X62261000Y-73506000D01*
X62261000Y-73506000D02*
X68801000Y-73506000D01*
X68801000Y-70766000D02*
X62261000Y-70766000D01*
X68801000Y-73506000D02*
X68801000Y-70766000D01*
X69571000Y-72136000D02*
X68801000Y-72136000D01*
%TD*%
M02*
