M48
; DRILL file {KiCad 8.0.8} date 2025-05-16T08:05:02+0200
; FORMAT={-:-/ absolute / inch / decimal}
; #@! TF.CreationDate,2025-05-16T08:05:02+02:00
; #@! TF.GenerationSoftware,Kicad,Pcbnew,8.0.8
; #@! TF.FileFunction,Plated,1,2,PTH
FMAT,2
INCH
; #@! TA.AperFunction,Plated,PTH,ComponentDrill
T1C0.0236
; #@! TA.AperFunction,Plated,PTH,ComponentDrill
T2C0.0315
; #@! TA.AperFunction,Plated,PTH,ViaDrill
T3C0.0354
; #@! TA.AperFunction,Plated,PTH,ComponentDrill
T4C0.0390
; #@! TA.AperFunction,Plated,PTH,ComponentDrill
T5C0.0394
; #@! TA.AperFunction,Plated,PTH,ComponentDrill
T6C0.0433
; #@! TA.AperFunction,Plated,PTH,ComponentDrill
T7C0.0472
; #@! TA.AperFunction,Plated,PTH,ComponentDrill
T8C0.0512
; #@! TA.AperFunction,Plated,PTH,ComponentDrill
T9C0.0551
%
G90
G05
T1
X2.5613Y-2.44
X2.64Y-2.44
T2
X1.6478Y-1.7
X1.7856Y-1.7
X1.859Y-2.542
X1.9856Y-1.702
X2.0558Y-2.542
X2.1234Y-1.702
X2.2Y-0.96
X2.22Y-2.84
X2.22Y-3.0369
X2.3Y-1.26
X2.3Y-1.66
X2.38Y-2.84
X2.38Y-3.0006
X2.4831Y-1.5
X2.6Y-0.96
X2.68Y-1.5
X2.78Y-2.84
X2.78Y-3.0006
X3.7126Y-1.8201
X4.1126Y-1.8201
X4.2126Y-1.8201
X4.6126Y-1.8201
X4.7047Y-1.8201
X5.1047Y-1.8201
T3
X1.86Y-2.38
X1.88Y-1.84
X2.0Y-1.82
X2.4391Y-1.82
X2.48Y-2.54
X2.54Y-2.34
X2.64Y-1.28
X2.68Y-0.96
X2.72Y-1.28
X2.72Y-1.64
X2.74Y-2.38
X2.78Y-2.68
X2.86Y-3.08
X3.0Y-1.58
X3.06Y-3.08
X3.06Y-1.48
X3.12Y-1.38
X3.34Y-2.96
X3.36Y-1.18
X3.54Y-1.78
X3.6Y-1.68
X3.66Y-1.58
X3.74Y-2.14
X3.78Y-2.2
X3.82Y-2.26
X3.9026Y-1.14
X3.9426Y-1.66
X4.0026Y-1.56
X4.0526Y-1.36
X4.0626Y-1.4626
X4.0626Y-1.79
X4.0726Y-1.2626
X4.4526Y-1.4626
X4.4591Y-1.81
X4.9926Y-1.46
X4.9926Y-1.82
T4
X2.42Y-1.08
X2.42Y-1.18
X2.42Y-1.28
X2.42Y-1.38
X2.72Y-1.08
X2.72Y-1.18
X2.72Y-1.28
X2.72Y-1.38
T5
X2.84Y-1.08
X2.84Y-1.18
X2.84Y-1.28
X2.84Y-1.38
X2.84Y-1.48
X2.84Y-1.58
X2.84Y-1.68
X2.84Y-1.78
X2.84Y-1.88
X2.84Y-1.98
X2.84Y-2.08
X2.84Y-2.18
X2.84Y-2.28
X2.84Y-2.38
X2.84Y-2.48
X3.44Y-1.08
X3.44Y-1.18
X3.44Y-1.28
X3.44Y-1.38
X3.44Y-1.48
X3.44Y-1.58
X3.44Y-1.68
X3.44Y-1.78
X3.44Y-1.88
X3.44Y-1.98
X3.44Y-2.08
X3.44Y-2.18
X3.44Y-2.28
X3.44Y-2.38
X3.44Y-2.48
X3.84Y-1.2626
X3.84Y-1.3626
X3.84Y-1.4626
X3.84Y-1.5626
X3.84Y-1.6626
X4.14Y-1.2626
X4.14Y-1.3626
X4.14Y-1.4626
X4.14Y-1.5626
X4.14Y-1.6626
X4.3048Y-1.2626
X4.3048Y-1.3626
X4.3048Y-1.4626
X4.3048Y-1.5626
X4.3048Y-1.6626
X4.6048Y-1.2626
X4.6048Y-1.3626
X4.6048Y-1.4626
X4.6048Y-1.5626
X4.6048Y-1.6626
X4.7695Y-1.2626
X4.7695Y-1.3626
X4.7695Y-1.4626
X4.7695Y-1.5626
X4.7695Y-1.6626
X5.0695Y-1.2626
X5.0695Y-1.3626
X5.0695Y-1.4626
X5.0695Y-1.5626
X5.0695Y-1.6626
T6
X1.44Y-1.28
X1.44Y-1.38
X1.44Y-1.48
X2.6Y-1.9
X2.6Y-2.0
X2.6Y-2.1
X3.7Y-2.68
X3.7Y-3.08
X3.8628Y-2.38
X3.8628Y-2.6359
X4.04Y-2.38
X4.04Y-2.6359
X4.2828Y-2.38
X4.2828Y-2.6359
X4.46Y-2.38
X4.46Y-2.6359
T7
X1.4458Y-2.842
X1.5958Y-2.842
X1.8856Y-2.842
X2.0356Y-2.842
X2.04Y-2.1016
X2.04Y-2.2984
X3.3499Y-2.82
X3.4999Y-2.82
T8
X4.7616Y-2.7137
X4.86Y-2.32
X4.9584Y-2.7137
T9
X1.44Y-1.86
X1.44Y-2.66
X1.68Y-2.04
X1.68Y-2.54
T5
G00X1.6966Y-1.3591
M15
G01X1.6966Y-1.2725
M16
G05
G00X1.9289Y-1.182
M15
G01X1.8423Y-1.182
M16
G05
G00X1.9368Y-1.43
M15
G01X1.8344Y-1.43
M16
G05
M30
