%TF.GenerationSoftware,KiCad,Pcbnew,8.0.8*%
%TF.CreationDate,2025-05-16T08:04:54+02:00*%
%TF.ProjectId,nebulizer,6e656275-6c69-47a6-9572-2e6b69636164,rev?*%
%TF.SameCoordinates,Original*%
%TF.FileFunction,Copper,L2,Bot*%
%TF.FilePolarity,Positive*%
%FSLAX46Y46*%
G04 Gerber Fmt 4.6, Leading zero omitted, Abs format (unit mm)*
G04 Created by KiCad (PCBNEW 8.0.8) date 2025-05-16 08:04:54*
%MOMM*%
%LPD*%
G01*
G04 APERTURE LIST*
G04 Aperture macros list*
%AMRoundRect*
0 Rectangle with rounded corners*
0 $1 Rounding radius*
0 $2 $3 $4 $5 $6 $7 $8 $9 X,Y pos of 4 corners*
0 Add a 4 corners polygon primitive as box body*
4,1,4,$2,$3,$4,$5,$6,$7,$8,$9,$2,$3,0*
0 Add four circle primitives for the rounded corners*
1,1,$1+$1,$2,$3*
1,1,$1+$1,$4,$5*
1,1,$1+$1,$6,$7*
1,1,$1+$1,$8,$9*
0 Add four rect primitives between the rounded corners*
20,1,$1+$1,$2,$3,$4,$5,0*
20,1,$1+$1,$4,$5,$6,$7,0*
20,1,$1+$1,$6,$7,$8,$9,0*
20,1,$1+$1,$8,$9,$2,$3,0*%
G04 Aperture macros list end*
%TA.AperFunction,ComponentPad*%
%ADD10C,2.340000*%
%TD*%
%TA.AperFunction,ComponentPad*%
%ADD11RoundRect,0.250000X-0.650000X-1.550000X0.650000X-1.550000X0.650000X1.550000X-0.650000X1.550000X0*%
%TD*%
%TA.AperFunction,ComponentPad*%
%ADD12O,1.800000X3.600000*%
%TD*%
%TA.AperFunction,ComponentPad*%
%ADD13C,1.600000*%
%TD*%
%TA.AperFunction,ComponentPad*%
%ADD14O,1.600000X1.600000*%
%TD*%
%TA.AperFunction,ComponentPad*%
%ADD15R,1.700000X1.700000*%
%TD*%
%TA.AperFunction,ComponentPad*%
%ADD16C,1.700000*%
%TD*%
%TA.AperFunction,ComponentPad*%
%ADD17R,2.000000X1.905000*%
%TD*%
%TA.AperFunction,ComponentPad*%
%ADD18O,2.000000X1.905000*%
%TD*%
%TA.AperFunction,ComponentPad*%
%ADD19R,1.600000X1.600000*%
%TD*%
%TA.AperFunction,ComponentPad*%
%ADD20R,2.200000X2.200000*%
%TD*%
%TA.AperFunction,ComponentPad*%
%ADD21O,2.200000X2.200000*%
%TD*%
%TA.AperFunction,ComponentPad*%
%ADD22C,2.800000*%
%TD*%
%TA.AperFunction,ComponentPad*%
%ADD23O,2.800000X2.800000*%
%TD*%
%TA.AperFunction,ComponentPad*%
%ADD24R,4.600000X2.000000*%
%TD*%
%TA.AperFunction,ComponentPad*%
%ADD25O,4.200000X2.000000*%
%TD*%
%TA.AperFunction,ComponentPad*%
%ADD26O,2.000000X4.200000*%
%TD*%
%TA.AperFunction,ComponentPad*%
%ADD27R,1.200000X1.200000*%
%TD*%
%TA.AperFunction,ComponentPad*%
%ADD28C,1.200000*%
%TD*%
%TA.AperFunction,ComponentPad*%
%ADD29R,1.498600X1.498600*%
%TD*%
%TA.AperFunction,ComponentPad*%
%ADD30C,1.498600*%
%TD*%
%TA.AperFunction,ComponentPad*%
%ADD31C,2.400000*%
%TD*%
%TA.AperFunction,ComponentPad*%
%ADD32C,2.000000*%
%TD*%
%TA.AperFunction,ComponentPad*%
%ADD33R,2.800000X2.800000*%
%TD*%
%TA.AperFunction,ViaPad*%
%ADD34C,1.400000*%
%TD*%
%TA.AperFunction,Conductor*%
%ADD35C,0.400000*%
%TD*%
%TA.AperFunction,Conductor*%
%ADD36C,0.800000*%
%TD*%
%TA.AperFunction,Conductor*%
%ADD37C,1.000000*%
%TD*%
%TA.AperFunction,Conductor*%
%ADD38C,2.000000*%
%TD*%
%TA.AperFunction,Conductor*%
%ADD39C,1.200000*%
%TD*%
%TA.AperFunction,Conductor*%
%ADD40C,0.600000*%
%TD*%
G04 APERTURE END LIST*
D10*
%TO.P,RV1,1,1*%
%TO.N,+5V*%
X125944000Y-68928000D03*
%TO.P,RV1,2,2*%
%TO.N,Net-(A1-A0)*%
X123444000Y-58928000D03*
%TO.P,RV1,3,3*%
%TO.N,GND*%
X120944000Y-68928000D03*
%TD*%
D11*
%TO.P,J1,1,Pin_1*%
%TO.N,GND*%
X36724000Y-72186000D03*
D12*
%TO.P,J1,2,Pin_2*%
%TO.N,Net-(J1-Pin_2)*%
X40534000Y-72186000D03*
%TD*%
D13*
%TO.P,R2,1*%
%TO.N,DIG_2*%
X107000000Y-46230000D03*
D14*
%TO.P,R2,2*%
%TO.N,Net-(R2-Pad2)*%
X117160000Y-46230000D03*
%TD*%
D15*
%TO.P,U1,1,G*%
%TO.N,SEG_G*%
X97536000Y-32070000D03*
D16*
%TO.P,U1,2,F*%
%TO.N,SEG_F*%
X97536000Y-34610000D03*
%TO.P,U1,3,CC*%
%TO.N,Net-(R3-Pad2)*%
X97536000Y-37150000D03*
%TO.P,U1,4,E*%
%TO.N,SEG_E*%
X97536000Y-39690000D03*
%TO.P,U1,5,D*%
%TO.N,SEG_D*%
X97536000Y-42230000D03*
%TO.P,U1,6,DP*%
%TO.N,SEG_DP*%
X105156000Y-42230000D03*
%TO.P,U1,7,C*%
%TO.N,SEG_C*%
X105156000Y-39690000D03*
%TO.P,U1,8,CC*%
%TO.N,Net-(R3-Pad2)*%
X105156000Y-37150000D03*
%TO.P,U1,9,B*%
%TO.N,SEG_B*%
X105156000Y-34610000D03*
%TO.P,U1,10,A*%
%TO.N,SEG_A*%
X105156000Y-32070000D03*
%TD*%
D11*
%TO.P,J2,1,Pin_1*%
%TO.N,GND*%
X47894000Y-72186000D03*
D12*
%TO.P,J2,2,Pin_2*%
%TO.N,Net-(J1-Pin_2)*%
X51704000Y-72186000D03*
%TD*%
D13*
%TO.P,C1,1*%
%TO.N,Net-(D1-A1)*%
X47218000Y-64566000D03*
%TO.P,C1,2*%
%TO.N,Net-(J1-Pin_2)*%
X52218000Y-64566000D03*
%TD*%
D17*
%TO.P,U5,1,IN*%
%TO.N,+12V*%
X66040000Y-48260000D03*
D18*
%TO.P,U5,2,GND*%
%TO.N,GND*%
X66040000Y-50800000D03*
%TO.P,U5,3,OUT*%
%TO.N,+5V*%
X66040000Y-53340000D03*
%TD*%
D13*
%TO.P,R6,1*%
%TO.N,Pumpe*%
X60451000Y-76214000D03*
D14*
%TO.P,R6,2*%
%TO.N,Net-(Q2-G)*%
X70611000Y-76214000D03*
%TD*%
D19*
%TO.P,C3,1*%
%TO.N,+12V*%
X45354000Y-43180000D03*
D13*
%TO.P,C3,2*%
%TO.N,GND*%
X41854000Y-43180000D03*
%TD*%
D20*
%TO.P,D2,1,K*%
%TO.N,+12V*%
X93980000Y-68072000D03*
D21*
%TO.P,D2,2,A*%
%TO.N,Net-(D2-A)*%
X93980000Y-78232000D03*
%TD*%
D13*
%TO.P,R8,1*%
%TO.N,GND*%
X55880000Y-24384000D03*
D14*
%TO.P,R8,2*%
%TO.N,Net-(A1-D11)*%
X66040000Y-24384000D03*
%TD*%
D19*
%TO.P,A1,1,D1/TX*%
%TO.N,unconnected-(A1-D1{slash}TX-Pad1)*%
X87376000Y-62992000D03*
D14*
%TO.P,A1,2,D0/RX*%
%TO.N,unconnected-(A1-D0{slash}RX-Pad2)*%
X87376000Y-60452000D03*
%TO.P,A1,3,~{RESET}*%
%TO.N,unconnected-(A1-~{RESET}-Pad3)*%
X87376000Y-57912000D03*
%TO.P,A1,4,GND*%
%TO.N,GND*%
X87376000Y-55372000D03*
%TO.P,A1,5,D2*%
%TO.N,DIG_1*%
X87376000Y-52832000D03*
%TO.P,A1,6,D3*%
%TO.N,DIG_2*%
X87376000Y-50292000D03*
%TO.P,A1,7,D4*%
%TO.N,DIG_3*%
X87376000Y-47752000D03*
%TO.P,A1,8,D5*%
%TO.N,SEG_A*%
X87376000Y-45212000D03*
%TO.P,A1,9,D6*%
%TO.N,SEG_B*%
X87376000Y-42672000D03*
%TO.P,A1,10,D7*%
%TO.N,SEG_C*%
X87376000Y-40132000D03*
%TO.P,A1,11,D8*%
%TO.N,SEG_D*%
X87376000Y-37592000D03*
%TO.P,A1,12,D9*%
%TO.N,SEG_E*%
X87376000Y-35052000D03*
%TO.P,A1,13,D10*%
%TO.N,SEG_F*%
X87376000Y-32512000D03*
%TO.P,A1,14,D11*%
%TO.N,Net-(A1-D11)*%
X87376000Y-29972000D03*
%TO.P,A1,15,D12*%
%TO.N,SEG_G*%
X87376000Y-27432000D03*
%TO.P,A1,16,D13*%
%TO.N,SEG_DP*%
X72136000Y-27432000D03*
%TO.P,A1,17,3V3*%
%TO.N,unconnected-(A1-3V3-Pad17)*%
X72136000Y-29972000D03*
%TO.P,A1,18,AREF*%
%TO.N,unconnected-(A1-AREF-Pad18)*%
X72136000Y-32512000D03*
%TO.P,A1,19,A0*%
%TO.N,Net-(A1-A0)*%
X72136000Y-35052000D03*
%TO.P,A1,20,A1*%
%TO.N,Net-(A1-A1)*%
X72136000Y-37592000D03*
%TO.P,A1,21,A2*%
%TO.N,Net-(A1-A2)*%
X72136000Y-40132000D03*
%TO.P,A1,22,A3*%
%TO.N,Pumpe*%
X72136000Y-42672000D03*
%TO.P,A1,23,A4*%
%TO.N,unconnected-(A1-A4-Pad23)*%
X72136000Y-45212000D03*
%TO.P,A1,24,A5*%
%TO.N,unconnected-(A1-A5-Pad24)*%
X72136000Y-47752000D03*
%TO.P,A1,25,A6*%
%TO.N,unconnected-(A1-A6-Pad25)*%
X72136000Y-50292000D03*
%TO.P,A1,26,A7*%
%TO.N,unconnected-(A1-A7-Pad26)*%
X72136000Y-52832000D03*
%TO.P,A1,27,+5V*%
%TO.N,+5V*%
X72136000Y-55372000D03*
%TO.P,A1,28,~{RESET}*%
%TO.N,unconnected-(A1-~{RESET}-Pad28)*%
X72136000Y-57912000D03*
%TO.P,A1,29,GND*%
%TO.N,GND*%
X72136000Y-60452000D03*
%TO.P,A1,30,VIN*%
%TO.N,unconnected-(A1-VIN-Pad30)*%
X72136000Y-62992000D03*
%TD*%
D22*
%TO.P,R5,1*%
%TO.N,Net-(D1-A1)*%
X36576000Y-67564000D03*
D23*
%TO.P,R5,2*%
%TO.N,Net-(Q1-D)*%
X36576000Y-47244000D03*
%TD*%
D24*
%TO.P,J4,1*%
%TO.N,+12V*%
X47894000Y-36322000D03*
D25*
%TO.P,J4,2*%
%TO.N,GND*%
X47894000Y-30022000D03*
D26*
%TO.P,J4,3*%
%TO.N,unconnected-(J4-Pad3)*%
X43094000Y-33422000D03*
%TD*%
D15*
%TO.P,U3,1,G*%
%TO.N,SEG_G*%
X121146000Y-32070000D03*
D16*
%TO.P,U3,2,F*%
%TO.N,SEG_F*%
X121146000Y-34610000D03*
%TO.P,U3,3,CC*%
%TO.N,Net-(R1-Pad2)*%
X121146000Y-37150000D03*
%TO.P,U3,4,E*%
%TO.N,SEG_E*%
X121146000Y-39690000D03*
%TO.P,U3,5,D*%
%TO.N,SEG_D*%
X121146000Y-42230000D03*
%TO.P,U3,6,DP*%
%TO.N,SEG_DP*%
X128766000Y-42230000D03*
%TO.P,U3,7,C*%
%TO.N,SEG_C*%
X128766000Y-39690000D03*
%TO.P,U3,8,CC*%
%TO.N,Net-(R1-Pad2)*%
X128766000Y-37150000D03*
%TO.P,U3,9,B*%
%TO.N,SEG_B*%
X128766000Y-34610000D03*
%TO.P,U3,10,A*%
%TO.N,SEG_A*%
X128766000Y-32070000D03*
%TD*%
D27*
%TO.P,C5,1*%
%TO.N,+5V*%
X67056000Y-61976000D03*
D28*
%TO.P,C5,2*%
%TO.N,GND*%
X65056000Y-61976000D03*
%TD*%
D13*
%TO.P,C4,1*%
%TO.N,GND*%
X63072000Y-38100000D03*
%TO.P,C4,2*%
%TO.N,+12V*%
X68072000Y-38100000D03*
%TD*%
D17*
%TO.P,Q1,1,G*%
%TO.N,Net-(Q1-G)*%
X36576000Y-37592000D03*
D18*
%TO.P,Q1,2,D*%
%TO.N,Net-(Q1-D)*%
X36576000Y-35052000D03*
%TO.P,Q1,3,S*%
%TO.N,GND*%
X36576000Y-32512000D03*
%TD*%
D13*
%TO.P,C2,1*%
%TO.N,GND*%
X56388000Y-77136000D03*
%TO.P,C2,2*%
%TO.N,Net-(J1-Pin_2)*%
X56388000Y-72136000D03*
%TD*%
D29*
%TO.P,U4,1,VDD_2*%
%TO.N,+12V*%
X69088000Y-35052000D03*
D30*
%TO.P,U4,2,INPUT*%
%TO.N,Net-(A1-D11)*%
X69088000Y-32512000D03*
%TO.P,U4,3,NC*%
%TO.N,unconnected-(U4-NC-Pad3)*%
X69088000Y-29972000D03*
%TO.P,U4,4,GND_2*%
%TO.N,GND*%
X69088000Y-27432000D03*
%TO.P,U4,5,GND*%
X61468000Y-27432000D03*
%TO.P,U4,6,~OUT_2*%
%TO.N,Net-(U4-~OUT)*%
X61468000Y-29972000D03*
%TO.P,U4,7,~OUT*%
X61468000Y-32512000D03*
%TO.P,U4,8,VDD*%
%TO.N,+12V*%
X61468000Y-35052000D03*
%TD*%
D31*
%TO.P,L1,1,1*%
%TO.N,+12V*%
X51816000Y-53380000D03*
%TO.P,L1,2,2*%
%TO.N,Net-(D1-A1)*%
X51816000Y-58380000D03*
%TD*%
D19*
%TO.P,C6,1*%
%TO.N,+12V*%
X50434000Y-43230000D03*
D13*
%TO.P,C6,2*%
%TO.N,GND*%
X53934000Y-43230000D03*
%TD*%
%TO.P,R3,1*%
%TO.N,DIG_3*%
X94300000Y-46230000D03*
D14*
%TO.P,R3,2*%
%TO.N,Net-(R3-Pad2)*%
X104460000Y-46230000D03*
%TD*%
D32*
%TO.P,SW1,1,1*%
%TO.N,GND*%
X108784000Y-66952000D03*
X108784000Y-60452000D03*
%TO.P,SW1,2,2*%
%TO.N,Net-(A1-A1)*%
X113284000Y-66952000D03*
X113284000Y-60452000D03*
%TD*%
D15*
%TO.P,U2,1,G*%
%TO.N,SEG_G*%
X109341000Y-32070000D03*
D16*
%TO.P,U2,2,F*%
%TO.N,SEG_F*%
X109341000Y-34610000D03*
%TO.P,U2,3,CC*%
%TO.N,Net-(R2-Pad2)*%
X109341000Y-37150000D03*
%TO.P,U2,4,E*%
%TO.N,SEG_E*%
X109341000Y-39690000D03*
%TO.P,U2,5,D*%
%TO.N,SEG_D*%
X109341000Y-42230000D03*
%TO.P,U2,6,DP*%
%TO.N,SEG_DP*%
X116961000Y-42230000D03*
%TO.P,U2,7,C*%
%TO.N,SEG_C*%
X116961000Y-39690000D03*
%TO.P,U2,8,CC*%
%TO.N,Net-(R2-Pad2)*%
X116961000Y-37150000D03*
%TO.P,U2,9,B*%
%TO.N,SEG_B*%
X116961000Y-34610000D03*
%TO.P,U2,10,A*%
%TO.N,SEG_A*%
X116961000Y-32070000D03*
%TD*%
D11*
%TO.P,J3,1,Pin_1*%
%TO.N,Net-(D2-A)*%
X85088000Y-71628000D03*
D12*
%TO.P,J3,2,Pin_2*%
%TO.N,+12V*%
X88898000Y-71628000D03*
%TD*%
D33*
%TO.P,D1,1,A1*%
%TO.N,Net-(D1-A1)*%
X42672000Y-64516000D03*
D23*
%TO.P,D1,2,A2*%
%TO.N,GND*%
X42672000Y-51816000D03*
%TD*%
D32*
%TO.P,SW2,1,1*%
%TO.N,GND*%
X98116000Y-66952000D03*
X98116000Y-60452000D03*
%TO.P,SW2,2,2*%
%TO.N,Net-(A1-A2)*%
X102616000Y-66952000D03*
X102616000Y-60452000D03*
%TD*%
D13*
%TO.P,R4,1*%
%TO.N,Net-(U4-~OUT)*%
X58420000Y-32004000D03*
D14*
%TO.P,R4,2*%
%TO.N,Net-(Q1-G)*%
X58420000Y-42164000D03*
%TD*%
D13*
%TO.P,R1,1*%
%TO.N,DIG_1*%
X119500000Y-46230000D03*
D14*
%TO.P,R1,2*%
%TO.N,Net-(R1-Pad2)*%
X129660000Y-46230000D03*
%TD*%
D13*
%TO.P,R7,1*%
%TO.N,Pumpe*%
X60451000Y-72136000D03*
D14*
%TO.P,R7,2*%
%TO.N,GND*%
X70611000Y-72136000D03*
%TD*%
D34*
%TO.N,SEG_A*%
X89916000Y-45212000D03*
X103444000Y-32070000D03*
%TO.N,GND*%
X64516000Y-59436000D03*
X69596000Y-60452000D03*
X77723000Y-78232000D03*
%TO.N,SEG_B*%
X91440000Y-42672000D03*
X102936000Y-34544000D03*
%TO.N,SEG_DP*%
X99126000Y-28956000D03*
X100142000Y-42164000D03*
%TO.N,SEG_C*%
X101666000Y-39624000D03*
X92964000Y-40132000D03*
%TO.N,Net-(R1-Pad2)*%
X126812000Y-37084000D03*
X126812000Y-46228000D03*
%TO.N,Net-(R2-Pad2)*%
X113260000Y-45974000D03*
X113096000Y-37150000D03*
%TO.N,Net-(R3-Pad2)*%
X103190000Y-37150000D03*
X103190000Y-45466000D03*
%TO.N,Net-(A1-A0)*%
X94996000Y-54356000D03*
X79248000Y-35052000D03*
%TO.N,Net-(A1-A1)*%
X77724000Y-37592000D03*
X96012000Y-55880000D03*
%TO.N,Pumpe*%
X69088000Y-41656000D03*
X62992000Y-64516000D03*
%TO.N,Net-(A1-D11)*%
X69088000Y-32512000D03*
X68072000Y-24384000D03*
X67056000Y-32512000D03*
X85344000Y-29972000D03*
%TO.N,+12V*%
X47752000Y-46736000D03*
X61952000Y-46228000D03*
X50800000Y-46228000D03*
X70612000Y-68072000D03*
%TO.N,Net-(D2-A)*%
X84835000Y-75184000D03*
%TO.N,Net-(Q2-G)*%
X72643000Y-78232000D03*
%TO.N,Net-(A1-A2)*%
X97028000Y-57404000D03*
X76200000Y-40132000D03*
%TO.N,Net-(D1-A1)*%
X47244000Y-60452000D03*
%TD*%
D35*
%TO.N,SEG_A*%
X127476000Y-33360000D02*
X128766000Y-32070000D01*
D36*
X103444000Y-32070000D02*
X105156000Y-32070000D01*
D35*
X114808000Y-32070000D02*
X116961000Y-32070000D01*
X113558000Y-33320000D02*
X114808000Y-32070000D01*
X118496000Y-32070000D02*
X119786000Y-33360000D01*
D36*
X87376000Y-45212000D02*
X89916000Y-45212000D01*
D35*
X106841000Y-32070000D02*
X108091000Y-33320000D01*
X119786000Y-33360000D02*
X127476000Y-33360000D01*
X105156000Y-32070000D02*
X106841000Y-32070000D01*
X108091000Y-33320000D02*
X113558000Y-33320000D01*
X116961000Y-32070000D02*
X118496000Y-32070000D01*
D37*
%TO.N,GND*%
X122428000Y-72136000D02*
X120904000Y-70612000D01*
D38*
X52274000Y-30022000D02*
X47894000Y-30022000D01*
D39*
X63072000Y-38100000D02*
X61976000Y-38100000D01*
X65056000Y-61976000D02*
X65024000Y-61976000D01*
D37*
X128524000Y-71120000D02*
X127508000Y-72136000D01*
X108712000Y-62484000D02*
X123952000Y-62484000D01*
D39*
X58084000Y-26588000D02*
X55880000Y-24384000D01*
D37*
X87376000Y-55372000D02*
X81280000Y-55372000D01*
D38*
X53934000Y-43230000D02*
X53934000Y-38100000D01*
D37*
X98116000Y-60452000D02*
X98116000Y-61540000D01*
D38*
X40132000Y-39624000D02*
X40132000Y-32512000D01*
D39*
X61976000Y-38100000D02*
X53934000Y-38100000D01*
D37*
X120904000Y-70612000D02*
X120944000Y-70572000D01*
D39*
X64516000Y-59436000D02*
X63500000Y-58420000D01*
X70611000Y-72136000D02*
X68071000Y-72136000D01*
X77723000Y-78232000D02*
X77723000Y-76200000D01*
D37*
X56388000Y-77136000D02*
X57992000Y-77136000D01*
D38*
X41854000Y-43180000D02*
X41854000Y-41346000D01*
D39*
X58084000Y-27432000D02*
X58084000Y-26588000D01*
D37*
X108712000Y-62484000D02*
X108784000Y-62412000D01*
D39*
X47894000Y-72186000D02*
X47894000Y-76994000D01*
X63500000Y-58420000D02*
X63500000Y-50800000D01*
D37*
X128524000Y-67056000D02*
X128524000Y-71120000D01*
D39*
X47752000Y-77136000D02*
X39036000Y-77136000D01*
X65024000Y-61976000D02*
X64516000Y-61468000D01*
X77723000Y-76200000D02*
X73659000Y-72136000D01*
X60452000Y-50800000D02*
X60452000Y-38100000D01*
D37*
X99060000Y-62484000D02*
X108712000Y-62484000D01*
X93980000Y-60452000D02*
X88900000Y-55372000D01*
D39*
X66040000Y-50800000D02*
X64516000Y-50800000D01*
X58084000Y-27432000D02*
X53934000Y-31582000D01*
X56388000Y-77136000D02*
X47752000Y-77136000D01*
X61468000Y-27432000D02*
X58084000Y-27432000D01*
D37*
X88900000Y-55372000D02*
X87376000Y-55372000D01*
D38*
X41854000Y-41346000D02*
X40132000Y-39624000D01*
X41706000Y-30022000D02*
X47894000Y-30022000D01*
D37*
X58420000Y-76708000D02*
X58420000Y-57404000D01*
X60452000Y-55372000D02*
X60452000Y-50800000D01*
D38*
X40132000Y-32512000D02*
X36576000Y-32512000D01*
D37*
X93980000Y-60452000D02*
X98116000Y-60452000D01*
X123952000Y-62484000D02*
X128524000Y-67056000D01*
D39*
X39036000Y-77136000D02*
X36724000Y-74824000D01*
D38*
X53934000Y-31582000D02*
X52324000Y-29972000D01*
D37*
X72136000Y-60452000D02*
X69596000Y-60452000D01*
X76200000Y-60452000D02*
X72136000Y-60452000D01*
D38*
X41656000Y-29972000D02*
X41706000Y-30022000D01*
D37*
X120944000Y-70572000D02*
X120944000Y-68928000D01*
X81280000Y-55372000D02*
X76200000Y-60452000D01*
D39*
X69088000Y-27432000D02*
X61468000Y-27432000D01*
X41854000Y-50998000D02*
X42672000Y-51816000D01*
X60452000Y-38100000D02*
X61976000Y-38100000D01*
D37*
X58420000Y-57404000D02*
X60452000Y-55372000D01*
D39*
X41854000Y-43180000D02*
X41854000Y-50998000D01*
X36724000Y-74824000D02*
X36724000Y-72186000D01*
D38*
X53934000Y-38100000D02*
X53934000Y-31582000D01*
D39*
X64516000Y-61468000D02*
X64516000Y-59436000D01*
D38*
X40132000Y-32512000D02*
X40132000Y-31496000D01*
D39*
X68071000Y-72136000D02*
X65056000Y-69121000D01*
D37*
X108784000Y-62412000D02*
X108784000Y-60452000D01*
X57992000Y-77136000D02*
X58420000Y-76708000D01*
D39*
X65056000Y-69121000D02*
X65056000Y-61976000D01*
X73659000Y-72136000D02*
X70611000Y-72136000D01*
X63500000Y-50800000D02*
X60452000Y-50800000D01*
X47894000Y-76994000D02*
X47752000Y-77136000D01*
D38*
X52324000Y-29972000D02*
X52274000Y-30022000D01*
D37*
X98116000Y-61540000D02*
X99060000Y-62484000D01*
D38*
X40132000Y-31496000D02*
X41656000Y-29972000D01*
D37*
X127508000Y-72136000D02*
X122428000Y-72136000D01*
D39*
X64516000Y-50800000D02*
X63500000Y-50800000D01*
D36*
%TO.N,DIG_2*%
X105894000Y-48768000D02*
X107000000Y-47662000D01*
X94996000Y-48768000D02*
X105894000Y-48768000D01*
X87376000Y-50292000D02*
X93472000Y-50292000D01*
X107000000Y-47662000D02*
X107000000Y-46230000D01*
X93472000Y-50292000D02*
X94996000Y-48768000D01*
%TO.N,SEG_B*%
X103002000Y-34610000D02*
X102936000Y-34544000D01*
D35*
X106358081Y-34610000D02*
X107648081Y-35900000D01*
X119532000Y-35900000D02*
X127476000Y-35900000D01*
X116961000Y-34610000D02*
X118242000Y-34610000D01*
D36*
X105156000Y-34610000D02*
X103002000Y-34610000D01*
D35*
X113518000Y-35900000D02*
X114808000Y-34610000D01*
X127476000Y-35900000D02*
X128766000Y-34610000D01*
X107648081Y-35900000D02*
X113518000Y-35900000D01*
X118242000Y-34610000D02*
X119532000Y-35900000D01*
X105156000Y-34610000D02*
X106358081Y-34610000D01*
X114808000Y-34610000D02*
X116961000Y-34610000D01*
D36*
X91440000Y-42672000D02*
X87376000Y-42672000D01*
D39*
%TO.N,+5V*%
X67056000Y-61976000D02*
X67056000Y-55880000D01*
X72136000Y-55372000D02*
X66548000Y-55372000D01*
D37*
X69088000Y-66040000D02*
X67056000Y-64008000D01*
X67056000Y-64008000D02*
X67056000Y-61976000D01*
X121024000Y-64008000D02*
X91440000Y-64008000D01*
D39*
X65916000Y-54740000D02*
X65916000Y-53464000D01*
D37*
X125944000Y-68928000D02*
X121024000Y-64008000D01*
X91440000Y-64008000D02*
X89408000Y-66040000D01*
X89408000Y-66040000D02*
X69088000Y-66040000D01*
D39*
X66548000Y-55372000D02*
X66294000Y-55118000D01*
X67056000Y-55880000D02*
X66294000Y-55118000D01*
X65916000Y-53464000D02*
X66040000Y-53340000D01*
X66294000Y-55118000D02*
X65916000Y-54740000D01*
D36*
%TO.N,DIG_3*%
X87376000Y-47752000D02*
X92778000Y-47752000D01*
X92778000Y-47752000D02*
X94300000Y-46230000D01*
%TO.N,SEG_DP*%
X74168000Y-25400000D02*
X96586000Y-25400000D01*
X74168000Y-25400000D02*
X72136000Y-27432000D01*
X99126000Y-28956000D02*
X99126000Y-27940000D01*
D35*
X113812000Y-43480000D02*
X115062000Y-42230000D01*
X108062000Y-43480000D02*
X113812000Y-43480000D01*
D36*
X100208000Y-42230000D02*
X105156000Y-42230000D01*
X100142000Y-42164000D02*
X100208000Y-42230000D01*
D35*
X127516000Y-43480000D02*
X128766000Y-42230000D01*
X115062000Y-42230000D02*
X116961000Y-42230000D01*
X106812000Y-42230000D02*
X108062000Y-43480000D01*
X116961000Y-42230000D02*
X118211000Y-43480000D01*
X105156000Y-42230000D02*
X106812000Y-42230000D01*
X118211000Y-43480000D02*
X127516000Y-43480000D01*
D36*
X99126000Y-27940000D02*
X96586000Y-25400000D01*
D35*
%TO.N,SEG_E*%
X120020000Y-39690000D02*
X121146000Y-39690000D01*
D36*
X87376000Y-35052000D02*
X92331500Y-35052000D01*
D35*
X108082000Y-39690000D02*
X109341000Y-39690000D01*
X97536000Y-39690000D02*
X98826000Y-38400000D01*
X98826000Y-38400000D02*
X106792000Y-38400000D01*
D36*
X97536000Y-39690000D02*
X96969500Y-39690000D01*
D35*
X113284000Y-39690000D02*
X114574000Y-38400000D01*
X118730000Y-38400000D02*
X120020000Y-39690000D01*
D36*
X96969500Y-39690000D02*
X92331500Y-35052000D01*
D35*
X106792000Y-38400000D02*
X108082000Y-39690000D01*
X109341000Y-39690000D02*
X113284000Y-39690000D01*
X114574000Y-38400000D02*
X118730000Y-38400000D01*
%TO.N,SEG_D*%
X97536000Y-42230000D02*
X98826000Y-40940000D01*
X106792000Y-40940000D02*
X108082000Y-42230000D01*
X113538000Y-42230000D02*
X114788000Y-40980000D01*
X114788000Y-40980000D02*
X118262000Y-40980000D01*
D36*
X87376000Y-37592000D02*
X92268000Y-37592000D01*
D35*
X98826000Y-40940000D02*
X106792000Y-40940000D01*
D36*
X96906000Y-42230000D02*
X92268000Y-37592000D01*
D35*
X119512000Y-42230000D02*
X121146000Y-42230000D01*
X109341000Y-42230000D02*
X113538000Y-42230000D01*
X118262000Y-40980000D02*
X119512000Y-42230000D01*
X108082000Y-42230000D02*
X109341000Y-42230000D01*
D36*
X97536000Y-42230000D02*
X96906000Y-42230000D01*
D35*
%TO.N,SEG_G*%
X98872000Y-30734000D02*
X106746000Y-30734000D01*
D36*
X87376000Y-27432000D02*
X92776000Y-27432000D01*
D35*
X97536000Y-32070000D02*
X98872000Y-30734000D01*
D36*
X97414000Y-32070000D02*
X92776000Y-27432000D01*
D35*
X109341000Y-32070000D02*
X113284000Y-32070000D01*
X113284000Y-32070000D02*
X114620000Y-30734000D01*
X119810000Y-30734000D02*
X121146000Y-32070000D01*
D36*
X97536000Y-32070000D02*
X97414000Y-32070000D01*
D35*
X108082000Y-32070000D02*
X109341000Y-32070000D01*
X114620000Y-30734000D02*
X119810000Y-30734000D01*
X106746000Y-30734000D02*
X108082000Y-32070000D01*
D36*
%TO.N,DIG_1*%
X119500000Y-48370000D02*
X119500000Y-46230000D01*
X117578000Y-50292000D02*
X119500000Y-48370000D01*
X87376000Y-52832000D02*
X92964000Y-52832000D01*
X95504000Y-50292000D02*
X117578000Y-50292000D01*
X92964000Y-52832000D02*
X95504000Y-50292000D01*
D35*
%TO.N,SEG_F*%
X97536000Y-34610000D02*
X98826000Y-33320000D01*
D36*
X87376000Y-32512000D02*
X94300000Y-32512000D01*
D35*
X108082000Y-34610000D02*
X109341000Y-34610000D01*
X114828000Y-33320000D02*
X118476000Y-33320000D01*
X118476000Y-33320000D02*
X119766000Y-34610000D01*
X119766000Y-34610000D02*
X121146000Y-34610000D01*
X109341000Y-34610000D02*
X113538000Y-34610000D01*
D36*
X97536000Y-34610000D02*
X96398000Y-34610000D01*
X96398000Y-34610000D02*
X94300000Y-32512000D01*
D35*
X98826000Y-33320000D02*
X106792000Y-33320000D01*
X113538000Y-34610000D02*
X114828000Y-33320000D01*
X106792000Y-33320000D02*
X108082000Y-34610000D01*
%TO.N,SEG_C*%
X114808000Y-39690000D02*
X116961000Y-39690000D01*
D36*
X101666000Y-39624000D02*
X101732000Y-39690000D01*
D35*
X118496000Y-39690000D02*
X119746000Y-40940000D01*
X113518000Y-40980000D02*
X114808000Y-39690000D01*
D36*
X87376000Y-40132000D02*
X92964000Y-40132000D01*
X101732000Y-39690000D02*
X105156000Y-39690000D01*
D35*
X106812000Y-39690000D02*
X108102000Y-40980000D01*
X105156000Y-39690000D02*
X106812000Y-39690000D01*
X127516000Y-40940000D02*
X128766000Y-39690000D01*
X116961000Y-39690000D02*
X118496000Y-39690000D01*
X119746000Y-40940000D02*
X127516000Y-40940000D01*
X108102000Y-40980000D02*
X113518000Y-40980000D01*
D36*
%TO.N,Net-(R1-Pad2)*%
X126814000Y-46230000D02*
X126812000Y-46228000D01*
X129660000Y-46230000D02*
X126814000Y-46230000D01*
X121146000Y-37150000D02*
X128766000Y-37150000D01*
%TO.N,Net-(R2-Pad2)*%
X113516000Y-46230000D02*
X113260000Y-45974000D01*
X117160000Y-46230000D02*
X113516000Y-46230000D01*
X109341000Y-37150000D02*
X116961000Y-37150000D01*
%TO.N,Net-(R3-Pad2)*%
X103190000Y-45466000D02*
X103954000Y-46230000D01*
X97536000Y-37150000D02*
X103190000Y-37150000D01*
X103190000Y-37150000D02*
X105156000Y-37150000D01*
X103954000Y-46230000D02*
X104460000Y-46230000D01*
D37*
%TO.N,Net-(A1-A0)*%
X118872000Y-54356000D02*
X93980000Y-54356000D01*
X123444000Y-58928000D02*
X118872000Y-54356000D01*
X72136000Y-35052000D02*
X79248000Y-35052000D01*
D39*
%TO.N,Net-(J1-Pin_2)*%
X40534000Y-72186000D02*
X40534000Y-70210000D01*
X51704000Y-65080000D02*
X52218000Y-64566000D01*
X51704000Y-72186000D02*
X51704000Y-68072000D01*
X40534000Y-70210000D02*
X42672000Y-68072000D01*
X56388000Y-72136000D02*
X56388000Y-69088000D01*
X55372000Y-68072000D02*
X51704000Y-68072000D01*
X51704000Y-68072000D02*
X51704000Y-65080000D01*
X42672000Y-68072000D02*
X51704000Y-68072000D01*
X56388000Y-69088000D02*
X55372000Y-68072000D01*
%TO.N,Net-(Q1-D)*%
X33528000Y-44196000D02*
X36576000Y-47244000D01*
X34036000Y-35052000D02*
X33528000Y-35560000D01*
X36576000Y-35052000D02*
X34036000Y-35052000D01*
X33528000Y-35560000D02*
X33528000Y-44196000D01*
D37*
%TO.N,Net-(A1-A1)*%
X108712000Y-55880000D02*
X94996000Y-55880000D01*
X72136000Y-37592000D02*
X77724000Y-37592000D01*
X113284000Y-60452000D02*
X108712000Y-55880000D01*
D36*
%TO.N,Pumpe*%
X62991000Y-64517000D02*
X62992000Y-64516000D01*
X62991000Y-72136000D02*
X62991000Y-76214000D01*
X60451000Y-72136000D02*
X62991000Y-72136000D01*
X62991000Y-72136000D02*
X62991000Y-64517000D01*
X72136000Y-42672000D02*
X70104000Y-42672000D01*
X60451000Y-76214000D02*
X62991000Y-76214000D01*
X70104000Y-42672000D02*
X69088000Y-41656000D01*
D37*
%TO.N,Net-(A1-D11)*%
X87376000Y-29972000D02*
X85344000Y-29972000D01*
D36*
X69088000Y-32512000D02*
X67056000Y-32512000D01*
X66040000Y-24384000D02*
X68072000Y-24384000D01*
D39*
%TO.N,+12V*%
X47752000Y-49276000D02*
X47752000Y-46736000D01*
X67056000Y-47244000D02*
X67056000Y-46228000D01*
D38*
X47752000Y-45720000D02*
X47752000Y-43180000D01*
X47894000Y-43038000D02*
X47752000Y-43180000D01*
D37*
X61952000Y-46228000D02*
X67056000Y-46228000D01*
D39*
X66040000Y-48260000D02*
X67056000Y-47244000D01*
D38*
X50800000Y-46228000D02*
X48260000Y-46228000D01*
X48260000Y-46228000D02*
X47752000Y-45720000D01*
D37*
X93980000Y-68072000D02*
X88900000Y-68072000D01*
D39*
X67056000Y-39116000D02*
X68072000Y-38100000D01*
D38*
X47752000Y-43180000D02*
X50384000Y-43180000D01*
X50384000Y-43180000D02*
X50434000Y-43230000D01*
D39*
X51816000Y-53380000D02*
X51816000Y-53340000D01*
X67056000Y-46228000D02*
X67056000Y-39116000D01*
D38*
X47752000Y-46736000D02*
X47752000Y-45720000D01*
D37*
X88900000Y-68072000D02*
X70612000Y-68072000D01*
D39*
X67056000Y-35052000D02*
X69088000Y-35052000D01*
D37*
X88898000Y-71628000D02*
X88898000Y-68074000D01*
D39*
X51816000Y-53340000D02*
X47752000Y-49276000D01*
D37*
X88898000Y-68074000D02*
X88900000Y-68072000D01*
D38*
X45354000Y-43180000D02*
X47752000Y-43180000D01*
X47894000Y-36322000D02*
X47894000Y-43038000D01*
D39*
X67056000Y-39116000D02*
X67056000Y-35052000D01*
X61468000Y-35052000D02*
X67056000Y-35052000D01*
%TO.N,Net-(D2-A)*%
X84835000Y-75184000D02*
X92963000Y-75184000D01*
X85088000Y-74931000D02*
X84835000Y-75184000D01*
D37*
X93980000Y-78232000D02*
X93980000Y-76200000D01*
D39*
X85088000Y-71628000D02*
X85088000Y-74931000D01*
D37*
X93980000Y-76200000D02*
X92964000Y-75184000D01*
D36*
%TO.N,Net-(Q1-G)*%
X56388000Y-55880000D02*
X58420000Y-53848000D01*
X36576000Y-37592000D02*
X36576000Y-42164000D01*
X39624000Y-45212000D02*
X39624000Y-53340000D01*
X42164000Y-55880000D02*
X56388000Y-55880000D01*
X58420000Y-53848000D02*
X58420000Y-42164000D01*
X39624000Y-53340000D02*
X42164000Y-55880000D01*
X36576000Y-42164000D02*
X39624000Y-45212000D01*
%TO.N,Net-(Q2-G)*%
X70625000Y-76214000D02*
X72643000Y-78232000D01*
X70611000Y-76214000D02*
X70625000Y-76214000D01*
D40*
%TO.N,Net-(U4-~OUT)*%
X58928000Y-32512000D02*
X58420000Y-32004000D01*
D36*
X61468000Y-32512000D02*
X61468000Y-29972000D01*
D40*
X61468000Y-32512000D02*
X58928000Y-32512000D01*
D37*
%TO.N,Net-(A1-A2)*%
X72136000Y-40132000D02*
X76200000Y-40132000D01*
X102616000Y-58420000D02*
X102616000Y-60452000D01*
X101600000Y-57404000D02*
X102616000Y-58420000D01*
X97536000Y-57404000D02*
X101600000Y-57404000D01*
X96012000Y-57404000D02*
X97536000Y-57404000D01*
D36*
X97028000Y-57404000D02*
X97536000Y-57404000D01*
D39*
%TO.N,Net-(D1-A1)*%
X50800000Y-60452000D02*
X47244000Y-60452000D01*
X42672000Y-60452000D02*
X38608000Y-60452000D01*
X47218000Y-60478000D02*
X47244000Y-60452000D01*
X38608000Y-60452000D02*
X36576000Y-62484000D01*
X51816000Y-58380000D02*
X51816000Y-59436000D01*
X51816000Y-59436000D02*
X50800000Y-60452000D01*
X47218000Y-64566000D02*
X47218000Y-60478000D01*
X36576000Y-62484000D02*
X36576000Y-67564000D01*
X42672000Y-64516000D02*
X42672000Y-60452000D01*
X47244000Y-60452000D02*
X42672000Y-60452000D01*
%TD*%
%TA.AperFunction,Conductor*%
%TO.N,+12V*%
G36*
X51759039Y-34563685D02*
G01*
X51804794Y-34616489D01*
X51816000Y-34668000D01*
X51816000Y-42000563D01*
X51796315Y-42067602D01*
X51743511Y-42113357D01*
X51674353Y-42123301D01*
X51610797Y-42094276D01*
X51592735Y-42074876D01*
X51591189Y-42072811D01*
X51591187Y-42072809D01*
X51476093Y-41986649D01*
X51476086Y-41986645D01*
X51341379Y-41936403D01*
X51341372Y-41936401D01*
X51281844Y-41930000D01*
X50684000Y-41930000D01*
X50684000Y-42914314D01*
X50679606Y-42909920D01*
X50588394Y-42857259D01*
X50486661Y-42830000D01*
X50381339Y-42830000D01*
X50279606Y-42857259D01*
X50188394Y-42909920D01*
X50184000Y-42914314D01*
X50184000Y-41930000D01*
X49586155Y-41930000D01*
X49526627Y-41936401D01*
X49526620Y-41936403D01*
X49391913Y-41986645D01*
X49391906Y-41986649D01*
X49276812Y-42072809D01*
X49276809Y-42072812D01*
X49190649Y-42187906D01*
X49190645Y-42187913D01*
X49140403Y-42322620D01*
X49140401Y-42322627D01*
X49134000Y-42382155D01*
X49134000Y-42980000D01*
X50118314Y-42980000D01*
X50113920Y-42984394D01*
X50061259Y-43075606D01*
X50034000Y-43177339D01*
X50034000Y-43282661D01*
X50061259Y-43384394D01*
X50113920Y-43475606D01*
X50118314Y-43480000D01*
X49134000Y-43480000D01*
X49134000Y-44077844D01*
X49140401Y-44137372D01*
X49140403Y-44137379D01*
X49190645Y-44272086D01*
X49190649Y-44272093D01*
X49276809Y-44387187D01*
X49276812Y-44387190D01*
X49391906Y-44473350D01*
X49391913Y-44473354D01*
X49526620Y-44523596D01*
X49526627Y-44523598D01*
X49586155Y-44529999D01*
X49586172Y-44530000D01*
X50184000Y-44530000D01*
X50184000Y-43545686D01*
X50188394Y-43550080D01*
X50279606Y-43602741D01*
X50381339Y-43630000D01*
X50486661Y-43630000D01*
X50588394Y-43602741D01*
X50679606Y-43550080D01*
X50684000Y-43545686D01*
X50684000Y-44530000D01*
X51281828Y-44530000D01*
X51281844Y-44529999D01*
X51341372Y-44523598D01*
X51341379Y-44523596D01*
X51476086Y-44473354D01*
X51476093Y-44473350D01*
X51591186Y-44387191D01*
X51592731Y-44385128D01*
X51594795Y-44383582D01*
X51597460Y-44380918D01*
X51597843Y-44381301D01*
X51648664Y-44343255D01*
X51718355Y-44338269D01*
X51779679Y-44371753D01*
X51813166Y-44433075D01*
X51816000Y-44459436D01*
X51816000Y-47120000D01*
X51796315Y-47187039D01*
X51743511Y-47232794D01*
X51692000Y-47244000D01*
X43304000Y-47244000D01*
X43236961Y-47224315D01*
X43191206Y-47171511D01*
X43180000Y-47120000D01*
X43180000Y-43912483D01*
X43193516Y-43856188D01*
X43244564Y-43756001D01*
X43244565Y-43755997D01*
X43244568Y-43755992D01*
X43317553Y-43531368D01*
X43354500Y-43298097D01*
X43354500Y-42332155D01*
X44054000Y-42332155D01*
X44054000Y-42930000D01*
X45038314Y-42930000D01*
X45033920Y-42934394D01*
X44981259Y-43025606D01*
X44954000Y-43127339D01*
X44954000Y-43232661D01*
X44981259Y-43334394D01*
X45033920Y-43425606D01*
X45038314Y-43430000D01*
X44054000Y-43430000D01*
X44054000Y-44027844D01*
X44060401Y-44087372D01*
X44060403Y-44087379D01*
X44110645Y-44222086D01*
X44110649Y-44222093D01*
X44196809Y-44337187D01*
X44196812Y-44337190D01*
X44311906Y-44423350D01*
X44311913Y-44423354D01*
X44446620Y-44473596D01*
X44446627Y-44473598D01*
X44506155Y-44479999D01*
X44506172Y-44480000D01*
X45104000Y-44480000D01*
X45104000Y-43495686D01*
X45108394Y-43500080D01*
X45199606Y-43552741D01*
X45301339Y-43580000D01*
X45406661Y-43580000D01*
X45508394Y-43552741D01*
X45599606Y-43500080D01*
X45604000Y-43495686D01*
X45604000Y-44480000D01*
X46201828Y-44480000D01*
X46201844Y-44479999D01*
X46261372Y-44473598D01*
X46261379Y-44473596D01*
X46396086Y-44423354D01*
X46396093Y-44423350D01*
X46511187Y-44337190D01*
X46511190Y-44337187D01*
X46597350Y-44222093D01*
X46597354Y-44222086D01*
X46647596Y-44087379D01*
X46647598Y-44087372D01*
X46653999Y-44027844D01*
X46654000Y-44027827D01*
X46654000Y-43430000D01*
X45669686Y-43430000D01*
X45674080Y-43425606D01*
X45726741Y-43334394D01*
X45754000Y-43232661D01*
X45754000Y-43127339D01*
X45726741Y-43025606D01*
X45674080Y-42934394D01*
X45669686Y-42930000D01*
X46654000Y-42930000D01*
X46654000Y-42332172D01*
X46653999Y-42332155D01*
X46647598Y-42272627D01*
X46647596Y-42272620D01*
X46597354Y-42137913D01*
X46597350Y-42137906D01*
X46511190Y-42022812D01*
X46511187Y-42022809D01*
X46396093Y-41936649D01*
X46396086Y-41936645D01*
X46261379Y-41886403D01*
X46261372Y-41886401D01*
X46201844Y-41880000D01*
X45604000Y-41880000D01*
X45604000Y-42864314D01*
X45599606Y-42859920D01*
X45508394Y-42807259D01*
X45406661Y-42780000D01*
X45301339Y-42780000D01*
X45199606Y-42807259D01*
X45108394Y-42859920D01*
X45104000Y-42864314D01*
X45104000Y-41880000D01*
X44506155Y-41880000D01*
X44446627Y-41886401D01*
X44446620Y-41886403D01*
X44311913Y-41936645D01*
X44311906Y-41936649D01*
X44196812Y-42022809D01*
X44196809Y-42022812D01*
X44110649Y-42137906D01*
X44110645Y-42137913D01*
X44060403Y-42272620D01*
X44060401Y-42272627D01*
X44054000Y-42332155D01*
X43354500Y-42332155D01*
X43354500Y-41227902D01*
X43317553Y-40994631D01*
X43303605Y-40951705D01*
X43244568Y-40770008D01*
X43193515Y-40669810D01*
X43180000Y-40613515D01*
X43180000Y-36133489D01*
X43199685Y-36066450D01*
X43252489Y-36020695D01*
X43284602Y-36011016D01*
X43445368Y-35985553D01*
X43669992Y-35912568D01*
X43880433Y-35805343D01*
X44071510Y-35666517D01*
X44238517Y-35499510D01*
X44377343Y-35308433D01*
X44394809Y-35274155D01*
X45094000Y-35274155D01*
X45094000Y-36072000D01*
X46160988Y-36072000D01*
X46128075Y-36129007D01*
X46094000Y-36256174D01*
X46094000Y-36387826D01*
X46128075Y-36514993D01*
X46160988Y-36572000D01*
X45094000Y-36572000D01*
X45094000Y-37369844D01*
X45100401Y-37429372D01*
X45100403Y-37429379D01*
X45150645Y-37564086D01*
X45150649Y-37564093D01*
X45236809Y-37679187D01*
X45236812Y-37679190D01*
X45351906Y-37765350D01*
X45351913Y-37765354D01*
X45486620Y-37815596D01*
X45486627Y-37815598D01*
X45546155Y-37821999D01*
X45546172Y-37822000D01*
X47644000Y-37822000D01*
X47644000Y-36822000D01*
X48144000Y-36822000D01*
X48144000Y-37822000D01*
X50241828Y-37822000D01*
X50241844Y-37821999D01*
X50301372Y-37815598D01*
X50301379Y-37815596D01*
X50436086Y-37765354D01*
X50436093Y-37765350D01*
X50551187Y-37679190D01*
X50551190Y-37679187D01*
X50637350Y-37564093D01*
X50637354Y-37564086D01*
X50687596Y-37429379D01*
X50687598Y-37429372D01*
X50693999Y-37369844D01*
X50694000Y-37369827D01*
X50694000Y-36572000D01*
X49627012Y-36572000D01*
X49659925Y-36514993D01*
X49694000Y-36387826D01*
X49694000Y-36256174D01*
X49659925Y-36129007D01*
X49627012Y-36072000D01*
X50694000Y-36072000D01*
X50694000Y-35274172D01*
X50693999Y-35274155D01*
X50687598Y-35214627D01*
X50687596Y-35214620D01*
X50637354Y-35079913D01*
X50637350Y-35079906D01*
X50551190Y-34964812D01*
X50551187Y-34964809D01*
X50436093Y-34878649D01*
X50436086Y-34878645D01*
X50301379Y-34828403D01*
X50301372Y-34828401D01*
X50241844Y-34822000D01*
X48144000Y-34822000D01*
X48144000Y-35822000D01*
X47644000Y-35822000D01*
X47644000Y-34822000D01*
X45546155Y-34822000D01*
X45486627Y-34828401D01*
X45486620Y-34828403D01*
X45351913Y-34878645D01*
X45351906Y-34878649D01*
X45236812Y-34964809D01*
X45236809Y-34964812D01*
X45150649Y-35079906D01*
X45150645Y-35079913D01*
X45100403Y-35214620D01*
X45100401Y-35214627D01*
X45094000Y-35274155D01*
X44394809Y-35274155D01*
X44484568Y-35097992D01*
X44557553Y-34873368D01*
X44565689Y-34822000D01*
X44593153Y-34648602D01*
X44623082Y-34585467D01*
X44682394Y-34548536D01*
X44715626Y-34544000D01*
X51692000Y-34544000D01*
X51759039Y-34563685D01*
G37*
%TD.AperFunction*%
%TD*%
M02*
