%TF.GenerationSoftware,KiCad,Pcbnew,8.0.8*%
%TF.CreationDate,2025-02-27T09:53:06+01:00*%
%TF.ProjectId,nebulizer,6e656275-6c69-47a6-9572-2e6b69636164,rev?*%
%TF.SameCoordinates,Original*%
%TF.FileFunction,Copper,L1,Top*%
%TF.FilePolarity,Positive*%
%FSLAX46Y46*%
G04 Gerber Fmt 4.6, Leading zero omitted, Abs format (unit mm)*
G04 Created by KiCad (PCBNEW 8.0.8) date 2025-02-27 09:53:06*
%MOMM*%
%LPD*%
G01*
G04 APERTURE LIST*
G04 Aperture macros list*
%AMRoundRect*
0 Rectangle with rounded corners*
0 $1 Rounding radius*
0 $2 $3 $4 $5 $6 $7 $8 $9 X,Y pos of 4 corners*
0 Add a 4 corners polygon primitive as box body*
4,1,4,$2,$3,$4,$5,$6,$7,$8,$9,$2,$3,0*
0 Add four circle primitives for the rounded corners*
1,1,$1+$1,$2,$3*
1,1,$1+$1,$4,$5*
1,1,$1+$1,$6,$7*
1,1,$1+$1,$8,$9*
0 Add four rect primitives between the rounded corners*
20,1,$1+$1,$2,$3,$4,$5,0*
20,1,$1+$1,$4,$5,$6,$7,0*
20,1,$1+$1,$6,$7,$8,$9,0*
20,1,$1+$1,$8,$9,$2,$3,0*%
G04 Aperture macros list end*
%ADD10C,0.300000*%
%TA.AperFunction,NonConductor*%
%ADD11C,0.300000*%
%TD*%
%TA.AperFunction,ComponentPad*%
%ADD12C,2.340000*%
%TD*%
%TA.AperFunction,ComponentPad*%
%ADD13RoundRect,0.250000X-0.650000X-1.550000X0.650000X-1.550000X0.650000X1.550000X-0.650000X1.550000X0*%
%TD*%
%TA.AperFunction,ComponentPad*%
%ADD14O,1.800000X3.600000*%
%TD*%
%TA.AperFunction,ComponentPad*%
%ADD15C,1.600000*%
%TD*%
%TA.AperFunction,ComponentPad*%
%ADD16O,1.600000X1.600000*%
%TD*%
%TA.AperFunction,ComponentPad*%
%ADD17R,1.700000X1.700000*%
%TD*%
%TA.AperFunction,ComponentPad*%
%ADD18C,1.700000*%
%TD*%
%TA.AperFunction,ComponentPad*%
%ADD19R,2.000000X1.905000*%
%TD*%
%TA.AperFunction,ComponentPad*%
%ADD20O,2.000000X1.905000*%
%TD*%
%TA.AperFunction,ComponentPad*%
%ADD21R,1.600000X1.600000*%
%TD*%
%TA.AperFunction,ComponentPad*%
%ADD22R,2.200000X2.200000*%
%TD*%
%TA.AperFunction,ComponentPad*%
%ADD23O,2.200000X2.200000*%
%TD*%
%TA.AperFunction,ComponentPad*%
%ADD24C,2.800000*%
%TD*%
%TA.AperFunction,ComponentPad*%
%ADD25O,2.800000X2.800000*%
%TD*%
%TA.AperFunction,ComponentPad*%
%ADD26R,4.600000X2.000000*%
%TD*%
%TA.AperFunction,ComponentPad*%
%ADD27O,4.200000X2.000000*%
%TD*%
%TA.AperFunction,ComponentPad*%
%ADD28O,2.000000X4.200000*%
%TD*%
%TA.AperFunction,SMDPad,CuDef*%
%ADD29RoundRect,0.250000X0.350000X-0.850000X0.350000X0.850000X-0.350000X0.850000X-0.350000X-0.850000X0*%
%TD*%
%TA.AperFunction,SMDPad,CuDef*%
%ADD30RoundRect,0.250000X1.125000X-1.275000X1.125000X1.275000X-1.125000X1.275000X-1.125000X-1.275000X0*%
%TD*%
%TA.AperFunction,SMDPad,CuDef*%
%ADD31RoundRect,0.249997X2.650003X-2.950003X2.650003X2.950003X-2.650003X2.950003X-2.650003X-2.950003X0*%
%TD*%
%TA.AperFunction,ComponentPad*%
%ADD32R,1.200000X1.200000*%
%TD*%
%TA.AperFunction,ComponentPad*%
%ADD33C,1.200000*%
%TD*%
%TA.AperFunction,ComponentPad*%
%ADD34R,1.498600X1.498600*%
%TD*%
%TA.AperFunction,ComponentPad*%
%ADD35C,1.498600*%
%TD*%
%TA.AperFunction,ComponentPad*%
%ADD36C,2.400000*%
%TD*%
%TA.AperFunction,ComponentPad*%
%ADD37C,2.000000*%
%TD*%
%TA.AperFunction,ComponentPad*%
%ADD38R,2.800000X2.800000*%
%TD*%
%TA.AperFunction,ViaPad*%
%ADD39C,1.400000*%
%TD*%
%TA.AperFunction,Conductor*%
%ADD40C,0.800000*%
%TD*%
%TA.AperFunction,Conductor*%
%ADD41C,1.200000*%
%TD*%
%TA.AperFunction,Conductor*%
%ADD42C,1.000000*%
%TD*%
G04 APERTURE END LIST*
D10*
D11*
X105710510Y-28756828D02*
X105710510Y-27256828D01*
X105710510Y-27256828D02*
X106567653Y-28756828D01*
X106567653Y-28756828D02*
X106567653Y-27256828D01*
X107853368Y-28685400D02*
X107710511Y-28756828D01*
X107710511Y-28756828D02*
X107424797Y-28756828D01*
X107424797Y-28756828D02*
X107281939Y-28685400D01*
X107281939Y-28685400D02*
X107210511Y-28542542D01*
X107210511Y-28542542D02*
X107210511Y-27971114D01*
X107210511Y-27971114D02*
X107281939Y-27828257D01*
X107281939Y-27828257D02*
X107424797Y-27756828D01*
X107424797Y-27756828D02*
X107710511Y-27756828D01*
X107710511Y-27756828D02*
X107853368Y-27828257D01*
X107853368Y-27828257D02*
X107924797Y-27971114D01*
X107924797Y-27971114D02*
X107924797Y-28113971D01*
X107924797Y-28113971D02*
X107210511Y-28256828D01*
X108567653Y-28756828D02*
X108567653Y-27256828D01*
X108567653Y-27828257D02*
X108710511Y-27756828D01*
X108710511Y-27756828D02*
X108996225Y-27756828D01*
X108996225Y-27756828D02*
X109139082Y-27828257D01*
X109139082Y-27828257D02*
X109210511Y-27899685D01*
X109210511Y-27899685D02*
X109281939Y-28042542D01*
X109281939Y-28042542D02*
X109281939Y-28471114D01*
X109281939Y-28471114D02*
X109210511Y-28613971D01*
X109210511Y-28613971D02*
X109139082Y-28685400D01*
X109139082Y-28685400D02*
X108996225Y-28756828D01*
X108996225Y-28756828D02*
X108710511Y-28756828D01*
X108710511Y-28756828D02*
X108567653Y-28685400D01*
X110567654Y-27756828D02*
X110567654Y-28756828D01*
X109924796Y-27756828D02*
X109924796Y-28542542D01*
X109924796Y-28542542D02*
X109996225Y-28685400D01*
X109996225Y-28685400D02*
X110139082Y-28756828D01*
X110139082Y-28756828D02*
X110353368Y-28756828D01*
X110353368Y-28756828D02*
X110496225Y-28685400D01*
X110496225Y-28685400D02*
X110567654Y-28613971D01*
X111496225Y-28756828D02*
X111353368Y-28685400D01*
X111353368Y-28685400D02*
X111281939Y-28542542D01*
X111281939Y-28542542D02*
X111281939Y-27256828D01*
X112067653Y-28756828D02*
X112067653Y-27756828D01*
X112067653Y-27256828D02*
X111996225Y-27328257D01*
X111996225Y-27328257D02*
X112067653Y-27399685D01*
X112067653Y-27399685D02*
X112139082Y-27328257D01*
X112139082Y-27328257D02*
X112067653Y-27256828D01*
X112067653Y-27256828D02*
X112067653Y-27399685D01*
X112639082Y-27756828D02*
X113424797Y-27756828D01*
X113424797Y-27756828D02*
X112639082Y-28756828D01*
X112639082Y-28756828D02*
X113424797Y-28756828D01*
X114567654Y-28685400D02*
X114424797Y-28756828D01*
X114424797Y-28756828D02*
X114139083Y-28756828D01*
X114139083Y-28756828D02*
X113996225Y-28685400D01*
X113996225Y-28685400D02*
X113924797Y-28542542D01*
X113924797Y-28542542D02*
X113924797Y-27971114D01*
X113924797Y-27971114D02*
X113996225Y-27828257D01*
X113996225Y-27828257D02*
X114139083Y-27756828D01*
X114139083Y-27756828D02*
X114424797Y-27756828D01*
X114424797Y-27756828D02*
X114567654Y-27828257D01*
X114567654Y-27828257D02*
X114639083Y-27971114D01*
X114639083Y-27971114D02*
X114639083Y-28113971D01*
X114639083Y-28113971D02*
X113924797Y-28256828D01*
X115281939Y-28756828D02*
X115281939Y-27756828D01*
X115281939Y-28042542D02*
X115353368Y-27899685D01*
X115353368Y-27899685D02*
X115424797Y-27828257D01*
X115424797Y-27828257D02*
X115567654Y-27756828D01*
X115567654Y-27756828D02*
X115710511Y-27756828D01*
X117781939Y-27256828D02*
X117781939Y-28328257D01*
X117781939Y-28328257D02*
X117710510Y-28542542D01*
X117710510Y-28542542D02*
X117567653Y-28685400D01*
X117567653Y-28685400D02*
X117353367Y-28756828D01*
X117353367Y-28756828D02*
X117210510Y-28756828D01*
X118424796Y-28685400D02*
X118639082Y-28756828D01*
X118639082Y-28756828D02*
X118996224Y-28756828D01*
X118996224Y-28756828D02*
X119139082Y-28685400D01*
X119139082Y-28685400D02*
X119210510Y-28613971D01*
X119210510Y-28613971D02*
X119281939Y-28471114D01*
X119281939Y-28471114D02*
X119281939Y-28328257D01*
X119281939Y-28328257D02*
X119210510Y-28185400D01*
X119210510Y-28185400D02*
X119139082Y-28113971D01*
X119139082Y-28113971D02*
X118996224Y-28042542D01*
X118996224Y-28042542D02*
X118710510Y-27971114D01*
X118710510Y-27971114D02*
X118567653Y-27899685D01*
X118567653Y-27899685D02*
X118496224Y-27828257D01*
X118496224Y-27828257D02*
X118424796Y-27685400D01*
X118424796Y-27685400D02*
X118424796Y-27542542D01*
X118424796Y-27542542D02*
X118496224Y-27399685D01*
X118496224Y-27399685D02*
X118567653Y-27328257D01*
X118567653Y-27328257D02*
X118710510Y-27256828D01*
X118710510Y-27256828D02*
X119067653Y-27256828D01*
X119067653Y-27256828D02*
X119281939Y-27328257D01*
X121853367Y-28756828D02*
X120996224Y-28756828D01*
X121424795Y-28756828D02*
X121424795Y-27256828D01*
X121424795Y-27256828D02*
X121281938Y-27471114D01*
X121281938Y-27471114D02*
X121139081Y-27613971D01*
X121139081Y-27613971D02*
X120996224Y-27685400D01*
X123567652Y-27185400D02*
X122281938Y-29113971D01*
X123996224Y-27399685D02*
X124067652Y-27328257D01*
X124067652Y-27328257D02*
X124210510Y-27256828D01*
X124210510Y-27256828D02*
X124567652Y-27256828D01*
X124567652Y-27256828D02*
X124710510Y-27328257D01*
X124710510Y-27328257D02*
X124781938Y-27399685D01*
X124781938Y-27399685D02*
X124853367Y-27542542D01*
X124853367Y-27542542D02*
X124853367Y-27685400D01*
X124853367Y-27685400D02*
X124781938Y-27899685D01*
X124781938Y-27899685D02*
X123924795Y-28756828D01*
X123924795Y-28756828D02*
X124853367Y-28756828D01*
X126210509Y-27256828D02*
X125496223Y-27256828D01*
X125496223Y-27256828D02*
X125424795Y-27971114D01*
X125424795Y-27971114D02*
X125496223Y-27899685D01*
X125496223Y-27899685D02*
X125639081Y-27828257D01*
X125639081Y-27828257D02*
X125996223Y-27828257D01*
X125996223Y-27828257D02*
X126139081Y-27899685D01*
X126139081Y-27899685D02*
X126210509Y-27971114D01*
X126210509Y-27971114D02*
X126281938Y-28113971D01*
X126281938Y-28113971D02*
X126281938Y-28471114D01*
X126281938Y-28471114D02*
X126210509Y-28613971D01*
X126210509Y-28613971D02*
X126139081Y-28685400D01*
X126139081Y-28685400D02*
X125996223Y-28756828D01*
X125996223Y-28756828D02*
X125639081Y-28756828D01*
X125639081Y-28756828D02*
X125496223Y-28685400D01*
X125496223Y-28685400D02*
X125424795Y-28613971D01*
D12*
%TO.P,RV1,1,1*%
%TO.N,+5V*%
X125944000Y-68928000D03*
%TO.P,RV1,2,2*%
%TO.N,Net-(A1-A0)*%
X123444000Y-58928000D03*
%TO.P,RV1,3,3*%
%TO.N,GND*%
X120944000Y-68928000D03*
%TD*%
D13*
%TO.P,J1,1,Pin_1*%
%TO.N,GND*%
X36724000Y-72186000D03*
D14*
%TO.P,J1,2,Pin_2*%
%TO.N,Net-(J1-Pin_2)*%
X40534000Y-72186000D03*
%TD*%
D15*
%TO.P,R2,1*%
%TO.N,DIG_2*%
X107000000Y-46230000D03*
D16*
%TO.P,R2,2*%
%TO.N,Net-(R2-Pad2)*%
X117160000Y-46230000D03*
%TD*%
D17*
%TO.P,U1,1,G*%
%TO.N,SEG_G*%
X97536000Y-32070000D03*
D18*
%TO.P,U1,2,F*%
%TO.N,SEG_F*%
X97536000Y-34610000D03*
%TO.P,U1,3,CC*%
%TO.N,Net-(R3-Pad2)*%
X97536000Y-37150000D03*
%TO.P,U1,4,E*%
%TO.N,SEG_E*%
X97536000Y-39690000D03*
%TO.P,U1,5,D*%
%TO.N,SEG_D*%
X97536000Y-42230000D03*
%TO.P,U1,6,DP*%
%TO.N,SEG_DP*%
X105156000Y-42230000D03*
%TO.P,U1,7,C*%
%TO.N,SEG_C*%
X105156000Y-39690000D03*
%TO.P,U1,8,CC*%
%TO.N,Net-(R3-Pad2)*%
X105156000Y-37150000D03*
%TO.P,U1,9,B*%
%TO.N,SEG_B*%
X105156000Y-34610000D03*
%TO.P,U1,10,A*%
%TO.N,SEG_A*%
X105156000Y-32070000D03*
%TD*%
D13*
%TO.P,J2,1,Pin_1*%
%TO.N,GND*%
X47894000Y-72186000D03*
D14*
%TO.P,J2,2,Pin_2*%
%TO.N,Net-(J1-Pin_2)*%
X51704000Y-72186000D03*
%TD*%
D15*
%TO.P,C1,1*%
%TO.N,Net-(D1-A1)*%
X47218000Y-64566000D03*
%TO.P,C1,2*%
%TO.N,Net-(J1-Pin_2)*%
X52218000Y-64566000D03*
%TD*%
D19*
%TO.P,U5,1,IN*%
%TO.N,+12V*%
X66040000Y-48260000D03*
D20*
%TO.P,U5,2,GND*%
%TO.N,GND*%
X66040000Y-50800000D03*
%TO.P,U5,3,OUT*%
%TO.N,+5V*%
X66040000Y-53340000D03*
%TD*%
D15*
%TO.P,R6,1*%
%TO.N,Pumpe*%
X60451000Y-76214000D03*
D16*
%TO.P,R6,2*%
%TO.N,Net-(Q2-G)*%
X70611000Y-76214000D03*
%TD*%
D21*
%TO.P,C3,1*%
%TO.N,+12V*%
X45354000Y-43180000D03*
D15*
%TO.P,C3,2*%
%TO.N,GND*%
X41854000Y-43180000D03*
%TD*%
D22*
%TO.P,D2,1,K*%
%TO.N,+12V*%
X93980000Y-68072000D03*
D23*
%TO.P,D2,2,A*%
%TO.N,Net-(D2-A)*%
X93980000Y-78232000D03*
%TD*%
D15*
%TO.P,R8,1*%
%TO.N,GND*%
X55880000Y-24384000D03*
D16*
%TO.P,R8,2*%
%TO.N,Net-(A1-D11)*%
X66040000Y-24384000D03*
%TD*%
D21*
%TO.P,A1,1,D1/TX*%
%TO.N,unconnected-(A1-D1{slash}TX-Pad1)*%
X87376000Y-62992000D03*
D16*
%TO.P,A1,2,D0/RX*%
%TO.N,unconnected-(A1-D0{slash}RX-Pad2)*%
X87376000Y-60452000D03*
%TO.P,A1,3,~{RESET}*%
%TO.N,unconnected-(A1-~{RESET}-Pad3)*%
X87376000Y-57912000D03*
%TO.P,A1,4,GND*%
%TO.N,GND*%
X87376000Y-55372000D03*
%TO.P,A1,5,D2*%
%TO.N,DIG_1*%
X87376000Y-52832000D03*
%TO.P,A1,6,D3*%
%TO.N,DIG_2*%
X87376000Y-50292000D03*
%TO.P,A1,7,D4*%
%TO.N,DIG_3*%
X87376000Y-47752000D03*
%TO.P,A1,8,D5*%
%TO.N,SEG_A*%
X87376000Y-45212000D03*
%TO.P,A1,9,D6*%
%TO.N,SEG_B*%
X87376000Y-42672000D03*
%TO.P,A1,10,D7*%
%TO.N,SEG_C*%
X87376000Y-40132000D03*
%TO.P,A1,11,D8*%
%TO.N,SEG_D*%
X87376000Y-37592000D03*
%TO.P,A1,12,D9*%
%TO.N,SEG_E*%
X87376000Y-35052000D03*
%TO.P,A1,13,D10*%
%TO.N,SEG_F*%
X87376000Y-32512000D03*
%TO.P,A1,14,D11*%
%TO.N,Net-(A1-D11)*%
X87376000Y-29972000D03*
%TO.P,A1,15,D12*%
%TO.N,SEG_G*%
X87376000Y-27432000D03*
%TO.P,A1,16,D13*%
%TO.N,SEG_DP*%
X72136000Y-27432000D03*
%TO.P,A1,17,3V3*%
%TO.N,unconnected-(A1-3V3-Pad17)*%
X72136000Y-29972000D03*
%TO.P,A1,18,AREF*%
%TO.N,unconnected-(A1-AREF-Pad18)*%
X72136000Y-32512000D03*
%TO.P,A1,19,A0*%
%TO.N,Net-(A1-A0)*%
X72136000Y-35052000D03*
%TO.P,A1,20,A1*%
%TO.N,Net-(A1-A1)*%
X72136000Y-37592000D03*
%TO.P,A1,21,A2*%
%TO.N,Net-(A1-A2)*%
X72136000Y-40132000D03*
%TO.P,A1,22,A3*%
%TO.N,Pumpe*%
X72136000Y-42672000D03*
%TO.P,A1,23,A4*%
%TO.N,unconnected-(A1-A4-Pad23)*%
X72136000Y-45212000D03*
%TO.P,A1,24,A5*%
%TO.N,unconnected-(A1-A5-Pad24)*%
X72136000Y-47752000D03*
%TO.P,A1,25,A6*%
%TO.N,unconnected-(A1-A6-Pad25)*%
X72136000Y-50292000D03*
%TO.P,A1,26,A7*%
%TO.N,unconnected-(A1-A7-Pad26)*%
X72136000Y-52832000D03*
%TO.P,A1,27,+5V*%
%TO.N,+5V*%
X72136000Y-55372000D03*
%TO.P,A1,28,~{RESET}*%
%TO.N,unconnected-(A1-~{RESET}-Pad28)*%
X72136000Y-57912000D03*
%TO.P,A1,29,GND*%
%TO.N,GND*%
X72136000Y-60452000D03*
%TO.P,A1,30,VIN*%
%TO.N,unconnected-(A1-VIN-Pad30)*%
X72136000Y-62992000D03*
%TD*%
D24*
%TO.P,R5,1*%
%TO.N,Net-(D1-A1)*%
X36576000Y-67564000D03*
D25*
%TO.P,R5,2*%
%TO.N,Net-(Q1-D)*%
X36576000Y-47244000D03*
%TD*%
D26*
%TO.P,J4,1*%
%TO.N,+12V*%
X47894000Y-36322000D03*
D27*
%TO.P,J4,2*%
%TO.N,GND*%
X47894000Y-30022000D03*
D28*
%TO.P,J4,3*%
%TO.N,unconnected-(J4-Pad3)*%
X43094000Y-33422000D03*
%TD*%
D17*
%TO.P,U3,1,G*%
%TO.N,SEG_G*%
X121146000Y-32070000D03*
D18*
%TO.P,U3,2,F*%
%TO.N,SEG_F*%
X121146000Y-34610000D03*
%TO.P,U3,3,CC*%
%TO.N,Net-(R1-Pad2)*%
X121146000Y-37150000D03*
%TO.P,U3,4,E*%
%TO.N,SEG_E*%
X121146000Y-39690000D03*
%TO.P,U3,5,D*%
%TO.N,SEG_D*%
X121146000Y-42230000D03*
%TO.P,U3,6,DP*%
%TO.N,SEG_DP*%
X128766000Y-42230000D03*
%TO.P,U3,7,C*%
%TO.N,SEG_C*%
X128766000Y-39690000D03*
%TO.P,U3,8,CC*%
%TO.N,Net-(R1-Pad2)*%
X128766000Y-37150000D03*
%TO.P,U3,9,B*%
%TO.N,SEG_B*%
X128766000Y-34610000D03*
%TO.P,U3,10,A*%
%TO.N,SEG_A*%
X128766000Y-32070000D03*
%TD*%
D29*
%TO.P,Q2,1,G*%
%TO.N,Net-(Q2-G)*%
X75443000Y-78793000D03*
D30*
%TO.P,Q2,2,D*%
%TO.N,Net-(D2-A)*%
X76198000Y-74168000D03*
X79248000Y-74168000D03*
D31*
X77723000Y-72493000D03*
D30*
X76198000Y-70818000D03*
X79248000Y-70818000D03*
D29*
%TO.P,Q2,3,S*%
%TO.N,GND*%
X80003000Y-78793000D03*
%TD*%
D32*
%TO.P,C5,1*%
%TO.N,+5V*%
X67056000Y-61976000D03*
D33*
%TO.P,C5,2*%
%TO.N,GND*%
X65056000Y-61976000D03*
%TD*%
D15*
%TO.P,C4,1*%
%TO.N,GND*%
X63072000Y-38100000D03*
%TO.P,C4,2*%
%TO.N,+12V*%
X68072000Y-38100000D03*
%TD*%
D19*
%TO.P,Q1,1,G*%
%TO.N,Net-(Q1-G)*%
X36576000Y-37592000D03*
D20*
%TO.P,Q1,2,D*%
%TO.N,Net-(Q1-D)*%
X36576000Y-35052000D03*
%TO.P,Q1,3,S*%
%TO.N,GND*%
X36576000Y-32512000D03*
%TD*%
D15*
%TO.P,C2,1*%
%TO.N,GND*%
X56388000Y-77136000D03*
%TO.P,C2,2*%
%TO.N,Net-(J1-Pin_2)*%
X56388000Y-72136000D03*
%TD*%
D34*
%TO.P,U4,1,VDD_2*%
%TO.N,+12V*%
X69088000Y-35052000D03*
D35*
%TO.P,U4,2,INPUT*%
%TO.N,Net-(A1-D11)*%
X69088000Y-32512000D03*
%TO.P,U4,3,NC*%
%TO.N,unconnected-(U4-NC-Pad3)*%
X69088000Y-29972000D03*
%TO.P,U4,4,GND_2*%
%TO.N,GND*%
X69088000Y-27432000D03*
%TO.P,U4,5,GND*%
X61468000Y-27432000D03*
%TO.P,U4,6,~OUT_2*%
%TO.N,Net-(U4-~OUT)*%
X61468000Y-29972000D03*
%TO.P,U4,7,~OUT*%
X61468000Y-32512000D03*
%TO.P,U4,8,VDD*%
%TO.N,+12V*%
X61468000Y-35052000D03*
%TD*%
D36*
%TO.P,L1,1,1*%
%TO.N,+12V*%
X51816000Y-53380000D03*
%TO.P,L1,2,2*%
%TO.N,Net-(D1-A1)*%
X51816000Y-58380000D03*
%TD*%
D21*
%TO.P,C6,1*%
%TO.N,+12V*%
X50434000Y-43230000D03*
D15*
%TO.P,C6,2*%
%TO.N,GND*%
X53934000Y-43230000D03*
%TD*%
%TO.P,R3,1*%
%TO.N,DIG_3*%
X94300000Y-46230000D03*
D16*
%TO.P,R3,2*%
%TO.N,Net-(R3-Pad2)*%
X104460000Y-46230000D03*
%TD*%
D37*
%TO.P,SW1,1,1*%
%TO.N,GND*%
X108784000Y-66952000D03*
X108784000Y-60452000D03*
%TO.P,SW1,2,2*%
%TO.N,Net-(A1-A1)*%
X113284000Y-66952000D03*
X113284000Y-60452000D03*
%TD*%
D17*
%TO.P,U2,1,G*%
%TO.N,SEG_G*%
X109341000Y-32070000D03*
D18*
%TO.P,U2,2,F*%
%TO.N,SEG_F*%
X109341000Y-34610000D03*
%TO.P,U2,3,CC*%
%TO.N,Net-(R2-Pad2)*%
X109341000Y-37150000D03*
%TO.P,U2,4,E*%
%TO.N,SEG_E*%
X109341000Y-39690000D03*
%TO.P,U2,5,D*%
%TO.N,SEG_D*%
X109341000Y-42230000D03*
%TO.P,U2,6,DP*%
%TO.N,SEG_DP*%
X116961000Y-42230000D03*
%TO.P,U2,7,C*%
%TO.N,SEG_C*%
X116961000Y-39690000D03*
%TO.P,U2,8,CC*%
%TO.N,Net-(R2-Pad2)*%
X116961000Y-37150000D03*
%TO.P,U2,9,B*%
%TO.N,SEG_B*%
X116961000Y-34610000D03*
%TO.P,U2,10,A*%
%TO.N,SEG_A*%
X116961000Y-32070000D03*
%TD*%
D13*
%TO.P,J3,1,Pin_1*%
%TO.N,Net-(D2-A)*%
X85088000Y-71628000D03*
D14*
%TO.P,J3,2,Pin_2*%
%TO.N,+12V*%
X88898000Y-71628000D03*
%TD*%
D38*
%TO.P,D1,1,A1*%
%TO.N,Net-(D1-A1)*%
X42672000Y-64516000D03*
D25*
%TO.P,D1,2,A2*%
%TO.N,GND*%
X42672000Y-51816000D03*
%TD*%
D37*
%TO.P,SW2,1,1*%
%TO.N,GND*%
X98116000Y-66952000D03*
X98116000Y-60452000D03*
%TO.P,SW2,2,2*%
%TO.N,Net-(A1-A2)*%
X102616000Y-66952000D03*
X102616000Y-60452000D03*
%TD*%
D15*
%TO.P,R4,1*%
%TO.N,Net-(U4-~OUT)*%
X58420000Y-32004000D03*
D16*
%TO.P,R4,2*%
%TO.N,Net-(Q1-G)*%
X58420000Y-42164000D03*
%TD*%
D15*
%TO.P,R1,1*%
%TO.N,DIG_1*%
X119500000Y-46230000D03*
D16*
%TO.P,R1,2*%
%TO.N,Net-(R1-Pad2)*%
X129660000Y-46230000D03*
%TD*%
D15*
%TO.P,R7,1*%
%TO.N,Pumpe*%
X60451000Y-72136000D03*
D16*
%TO.P,R7,2*%
%TO.N,GND*%
X70611000Y-72136000D03*
%TD*%
D39*
%TO.N,SEG_A*%
X89916000Y-45212000D03*
X103444000Y-32070000D03*
%TO.N,GND*%
X64516000Y-59436000D03*
X69596000Y-60452000D03*
X77723000Y-78232000D03*
%TO.N,SEG_B*%
X91440000Y-42672000D03*
X102936000Y-34544000D03*
%TO.N,SEG_DP*%
X99126000Y-28956000D03*
X100142000Y-42164000D03*
%TO.N,SEG_C*%
X101666000Y-39624000D03*
X92964000Y-40132000D03*
%TO.N,Net-(R1-Pad2)*%
X126812000Y-37084000D03*
X126812000Y-46228000D03*
%TO.N,Net-(R2-Pad2)*%
X113260000Y-45974000D03*
X113096000Y-37150000D03*
%TO.N,Net-(R3-Pad2)*%
X103190000Y-37150000D03*
X103190000Y-45466000D03*
%TO.N,Net-(A1-A0)*%
X94996000Y-54356000D03*
X79248000Y-35052000D03*
%TO.N,Net-(A1-A1)*%
X77724000Y-37592000D03*
X96012000Y-55880000D03*
%TO.N,Pumpe*%
X69088000Y-41656000D03*
X62992000Y-64516000D03*
%TO.N,Net-(A1-D11)*%
X69088000Y-32512000D03*
X68072000Y-24384000D03*
X67056000Y-32512000D03*
X85344000Y-29972000D03*
%TO.N,+12V*%
X47752000Y-46736000D03*
X61952000Y-46228000D03*
X50800000Y-46228000D03*
X70612000Y-68072000D03*
%TO.N,Net-(D2-A)*%
X84835000Y-75184000D03*
%TO.N,Net-(Q2-G)*%
X72643000Y-78232000D03*
%TO.N,Net-(A1-A2)*%
X97028000Y-57404000D03*
X76200000Y-40132000D03*
%TO.N,Net-(D1-A1)*%
X47244000Y-60452000D03*
%TD*%
D40*
%TO.N,SEG_A*%
X100650000Y-25146000D02*
X103190000Y-27686000D01*
X103190000Y-31816000D02*
X103444000Y-32070000D01*
X89916000Y-29022000D02*
X93792000Y-25146000D01*
X93792000Y-25146000D02*
X100650000Y-25146000D01*
X103190000Y-27686000D02*
X103190000Y-31816000D01*
X89916000Y-45212000D02*
X89916000Y-29022000D01*
D41*
%TO.N,GND*%
X80003000Y-78793000D02*
X78284000Y-78793000D01*
X78284000Y-78793000D02*
X77723000Y-78232000D01*
D42*
X68580000Y-59436000D02*
X64516000Y-59436000D01*
X69596000Y-60452000D02*
X68580000Y-59436000D01*
D40*
%TO.N,SEG_B*%
X91440000Y-29276000D02*
X91440000Y-42164000D01*
X102428000Y-34544000D02*
X102936000Y-34544000D01*
X101636000Y-33752000D02*
X102428000Y-34544000D01*
X94300000Y-26416000D02*
X100142000Y-26416000D01*
X94300000Y-26416000D02*
X91440000Y-29276000D01*
X91440000Y-42164000D02*
X91440000Y-42672000D01*
X100142000Y-26416000D02*
X101636000Y-27910000D01*
X101636000Y-27910000D02*
X101636000Y-33752000D01*
%TO.N,SEG_DP*%
X99126000Y-38354000D02*
X99126000Y-28956000D01*
X100142000Y-42164000D02*
X100142000Y-39370000D01*
X100142000Y-39370000D02*
X99126000Y-38354000D01*
%TO.N,SEG_C*%
X92964000Y-29276000D02*
X92964000Y-40132000D01*
X100396000Y-30226000D02*
X100396000Y-37084000D01*
X94808000Y-27432000D02*
X92964000Y-29276000D01*
X100396000Y-37084000D02*
X101666000Y-38354000D01*
X99440478Y-27432000D02*
X100426000Y-28417522D01*
X100426000Y-28417522D02*
X100426000Y-30196000D01*
X94808000Y-27432000D02*
X99440478Y-27432000D01*
X101666000Y-38354000D02*
X101666000Y-39624000D01*
X100426000Y-30196000D02*
X100396000Y-30226000D01*
%TO.N,Net-(R1-Pad2)*%
X126812000Y-46228000D02*
X126812000Y-37084000D01*
%TO.N,Net-(R2-Pad2)*%
X114192065Y-37150000D02*
X113096000Y-37150000D01*
X113260000Y-45974000D02*
X113260000Y-37323935D01*
X114366000Y-37323935D02*
X114192065Y-37150000D01*
%TO.N,Net-(R3-Pad2)*%
X103190000Y-45466000D02*
X103190000Y-37150000D01*
X103886000Y-37150000D02*
X105156000Y-37150000D01*
D42*
%TO.N,Net-(A1-A0)*%
X88900000Y-65024000D02*
X81788000Y-65024000D01*
X81788000Y-65024000D02*
X79248000Y-62484000D01*
X90424000Y-58420000D02*
X90424000Y-63500000D01*
X94488000Y-54356000D02*
X90424000Y-58420000D01*
X94996000Y-54356000D02*
X94488000Y-54356000D01*
X79248000Y-62484000D02*
X79248000Y-35052000D01*
X90424000Y-63500000D02*
X88900000Y-65024000D01*
%TO.N,Net-(A1-A1)*%
X94996000Y-55880000D02*
X91948000Y-58928000D01*
X91948000Y-58928000D02*
X91948000Y-64008000D01*
X91948000Y-64008000D02*
X89408000Y-66548000D01*
X96012000Y-55880000D02*
X94996000Y-55880000D01*
X89408000Y-66548000D02*
X80772000Y-66548000D01*
X80772000Y-66548000D02*
X77724000Y-63500000D01*
X77724000Y-63500000D02*
X77724000Y-37592000D01*
D40*
%TO.N,Pumpe*%
X62992000Y-47752000D02*
X62992000Y-64516000D01*
X69088000Y-41656000D02*
X62992000Y-47752000D01*
%TO.N,Net-(A1-D11)*%
X67056000Y-32512000D02*
X67056000Y-25400000D01*
D42*
X85344000Y-24892000D02*
X84328000Y-23876000D01*
D40*
X67056000Y-25400000D02*
X68072000Y-24384000D01*
D42*
X84328000Y-23876000D02*
X70612000Y-23876000D01*
D40*
X68580000Y-23876000D02*
X70612000Y-23876000D01*
X68072000Y-24384000D02*
X68580000Y-23876000D01*
D42*
X85344000Y-29972000D02*
X85344000Y-24892000D01*
%TO.N,+12V*%
X61952000Y-46228000D02*
X61468000Y-46228000D01*
X62484000Y-68072000D02*
X70612000Y-68072000D01*
X60960000Y-46736000D02*
X60960000Y-66548000D01*
X61468000Y-46228000D02*
X60960000Y-46736000D01*
X61468000Y-46228000D02*
X50800000Y-46228000D01*
X60960000Y-66548000D02*
X62484000Y-68072000D01*
D41*
%TO.N,Net-(D2-A)*%
X84835000Y-75184000D02*
X80264000Y-75184000D01*
X80264000Y-75184000D02*
X79248000Y-74168000D01*
D40*
%TO.N,Net-(Q2-G)*%
X75443000Y-78793000D02*
X73204000Y-78793000D01*
X73204000Y-78793000D02*
X72643000Y-78232000D01*
D42*
%TO.N,Net-(A1-A2)*%
X93472000Y-59436000D02*
X93472000Y-64516000D01*
X76200000Y-64516000D02*
X76200000Y-40132000D01*
X97028000Y-57404000D02*
X95504000Y-57404000D01*
X93472000Y-64516000D02*
X89916000Y-68072000D01*
X89916000Y-68072000D02*
X79756000Y-68072000D01*
X79756000Y-68072000D02*
X76200000Y-64516000D01*
X95504000Y-57404000D02*
X93472000Y-59436000D01*
D41*
%TO.N,Net-(D1-A1)*%
X52042000Y-58606000D02*
X51816000Y-58380000D01*
%TD*%
M02*
